<?xml version="1.0" standalone="no"?>
<!DOCTYPE svg PUBLIC "-//W3C//DTD SVG 1.1//EN" "http://www.w3.org/Graphics/SVG/1.1/DTD/svg11.dtd" >
<svg xmlns="http://www.w3.org/2000/svg">
<metadata></metadata>
<defs>
<font id="evry_scriptregular" horiz-adv-x="1079" >
<font-face units-per-em="2048" ascent="1638" descent="-410" />
<missing-glyph horiz-adv-x="886" />
<glyph unicode="&#xfb02;" horiz-adv-x="1826" d="M-76 1276q0 16 12.5 27.5t31 18.5t37 11t30.5 4q88 23 170 35t160.5 21.5t154.5 17.5t154 23q23 4 47 6t49 2q123 0 253 -6t237 -35q33 -10 64.5 -14.5t58 -17.5t43 -41t16.5 -85q0 -29 -43 -29q-23 0 -51.5 3.5t-55 8.5t-47 9t-28.5 6q-14 -10 -31 -12t-33 -2 q-31 0 -61.5 5t-55.5 5h-190q-66 -4 -134.5 -12.5t-136.5 -16.5q-49 -4 -72.5 -9t-32.5 -15t-9 -26.5t-2 -43.5q-4 -35 -6 -56.5t-7 -56.5q-4 -29 -13 -54t-15 -54q-2 -6 -9.5 -32.5t-14.5 -57.5t-13 -57.5t-6 -32.5q0 -4 13 -6t18 0q119 31 218 67.5t158 59.5q16 6 32.5 4 t35.5 2q14 4 28.5 8t30.5 4q39 0 58.5 -34t19.5 -64q0 -45 -27.5 -74t-66.5 -48.5t-81 -32.5t-73 -26q-27 -12 -58.5 -27.5t-59.5 -21.5q-47 -10 -79 -12t-59.5 -5t-55.5 -11.5t-69 -32.5q-12 -8 -21 -27.5t-14.5 -45t-9.5 -53.5t-8 -50q-10 -53 -20.5 -103.5t-20.5 -103.5 q-6 -27 -10 -65t-9 -71.5t-14.5 -58t-27.5 -24.5q-6 0 -41 14t-74 33q-45 20 -100 47q0 6 4 33.5t10 59.5t11 58.5t5 32.5q8 72 32 146.5t24 146.5q0 35 -13.5 54.5t-30 34t-29.5 27.5t-13 38q0 23 4 24.5t26 3.5q49 4 73 13.5t34 24t10 31.5t4 38q14 98 28.5 194.5 t43.5 190.5v4q0 14 -13.5 17t-13.5 20v6q-16 0 -32.5 -3t-32.5 -3q-84 0 -139.5 28.5t-55.5 100.5zM970.5 286.5q16.5 116.5 58.5 258t100.5 295t119 290t113.5 242t84 152.5q43 12 80 -2.5t62.5 -43t37.5 -67.5t8 -74q-4 -18 -16 -31.5t-23 -29.5q-18 -33 -58 -117 t-89 -191.5t-101.5 -229.5t-92.5 -231.5t-61 -194t-11 -119.5q78 18 147.5 44.5t134 54t126 53.5t124.5 42q27 6 43.5 19.5t38.5 17.5q43 6 71.5 -2t63.5 -21q-6 -27 -19.5 -48t-27.5 -41.5t-27.5 -42t-21.5 -48.5q-74 -31 -136.5 -78t-142.5 -77q-45 -18 -109.5 -49 t-133 -52.5t-135 -20.5t-117.5 46q-10 8 -21.5 23.5t-23.5 32.5t-22.5 34.5t-14.5 28.5q-25 61 -8.5 177.5z" />
<glyph horiz-adv-x="2048" />
<glyph horiz-adv-x="2048" />
<glyph unicode="&#xd;" horiz-adv-x="532" />
<glyph unicode=" "  horiz-adv-x="886" />
<glyph unicode="&#x09;" horiz-adv-x="886" />
<glyph unicode="&#xa0;" horiz-adv-x="886" />
<glyph unicode="!" horiz-adv-x="792" d="M137 106q0 59 10 91q6 16 13 26q31 18 47 32.5t30.5 25t30 15.5t39.5 5q47 0 77 -16.5t46 -41t22.5 -53t6.5 -51.5q0 -8 -4 -46t-19.5 -81t-46.5 -76.5t-82 -33.5q-57 0 -91 15t-51.5 43t-22.5 65.5t-5 80.5zM225 563q0 12 13.5 38t25.5 48q25 94 40 162t26.5 121 t18.5 96t14.5 87t17.5 94.5t25 115.5q8 35 20 93.5t34.5 114.5t59.5 97t92 41q33 0 57.5 -13t41 -34.5t25.5 -47t9 -52.5q0 -20 -9 -46t-22.5 -53.5t-27.5 -53t-24 -46.5q-10 -20 -14.5 -44t-8.5 -48.5t-10 -47t-21 -38.5q-16 -61 -26.5 -94t-19.5 -60.5t-20.5 -66.5 t-29.5 -113q-12 -51 -24.5 -86t-21.5 -62.5t-14.5 -55t-5.5 -64.5v-21.5t3 -25.5q-12 0 -30 -5.5t-35 -9.5t-31.5 -8t-18.5 -4q-37 0 -73 23.5t-36 68.5z" />
<glyph unicode="&#x22;" horiz-adv-x="796" d="M141 1128v101v69.5t2 64.5t4.5 52.5t8.5 30.5q12 23 27.5 40t39.5 17q23 0 49.5 -10t51 -25.5t39 -31t14.5 -27.5t-8.5 -51t-18.5 -85t-21.5 -86t-17.5 -54t-19 -41t-26.5 -53.5t-28 -46t-28.5 -19.5t-25.5 16.5t-21.5 40t-15.5 50t-5.5 48.5zM502 1268q0 39 2 77.5 t8 57.5q8 16 35.5 45t58.5 29q16 0 31.5 -2t29 -11.5t21.5 -28t8 -49.5q0 -33 -2 -73.5t-7 -82.5t-11 -76t-14 -48q-10 -14 -23.5 -36.5t-27 -43t-27 -35t-23.5 -14.5h-2q-8 2 -18.5 25.5t-17.5 53t-13 58.5t-6 45q0 12 -1 43t-1 66z" />
<glyph unicode="#" horiz-adv-x="1583" d="M-12 412v10q0 37 19.5 61.5t47 39t59 20.5t56.5 6q4 0 20.5 -5t35 -10.5t37 -10.5t24.5 -5h6q27 0 47 3t37.5 17.5t33 45t31.5 88.5q-6 18 -22 18t-38 -9t-32 -9q-12 0 -40.5 6t-58.5 20.5t-52.5 38t-22.5 56.5q0 8 4 28.5t17.5 43t39 42t66.5 25.5q4 2 14 2q14 0 38 -3 t59 -3q29 0 63.5 3t81.5 13q6 2 20.5 32t33 74t43 94t54 94t64.5 72.5t74 28.5q35 0 68.5 -28.5t33.5 -75.5q0 -6 -11 -33.5t-29.5 -65.5t-42 -81t-48.5 -80v-21h-2q0 -2 12 -2h54q8 0 35.5 7.5t33.5 23.5q2 6 12.5 35t26 67.5t36 82.5t45 80t51 60.5t55.5 24.5q25 0 51 -4 t47.5 -17.5t36 -36t14.5 -58.5q0 -35 -13.5 -65t-31.5 -57.5t-36.5 -53t-28.5 -50.5q8 -2 28 -2q35 0 69 6t44 6q57 0 86 -38.5t29 -85.5q0 -41 -20.5 -63.5t-52.5 -34t-71 -14.5t-78 -3h-61q-29 0 -49.5 -2t-30.5 -10q-29 -25 -42 -46.5t-20.5 -39t-12.5 -34t-19 -32.5v-18 q16 -10 33.5 -11.5t33.5 -1.5h64q6 0 26.5 5.5t43 12.5t42 12t27.5 5q10 0 28.5 -3t36 -10t31 -18.5t13.5 -29.5q0 -20 -9.5 -46t-22.5 -48.5t-30.5 -38t-34.5 -15.5q-12 0 -31.5 -5t-35.5 -5q-6 0 -38 2t-77 2q-41 0 -88 -3t-88 -11q-14 -29 -30.5 -80t-16.5 -90 q0 -37 -5 -78t-18.5 -76t-38 -57.5t-65.5 -22.5h-4q-41 0 -64.5 14.5t-35 37t-13.5 50t-2 54.5v20q0 33 1 40.5t8.5 15.5t20.5 28.5t38 77.5q-12 0 -27.5 1t-32.5 1q-35 0 -70.5 -2t-64.5 -6q-14 -49 -22.5 -102.5t-20.5 -100.5t-33.5 -84t-60.5 -53q-39 0 -79 40t-40 118 q0 39 18.5 94t28.5 92q-25 6 -55 6q-29 0 -59.5 -2t-61.5 -2q-55 0 -99 18.5t-48 86.5zM596 541l129 -13h12q37 0 57.5 20.5t33 49.5t17.5 60.5t9 56.5l-166 4h-2q-23 0 -38 -25.5t-26.5 -57.5t-17.5 -60.5t-8 -34.5z" />
<glyph unicode="$" horiz-adv-x="1097" d="M20 258q0 53 37 94t90 41q31 0 52.5 -14t43 -32.5t49 -33t73.5 -14.5q27 0 61 6q2 41 3 79t1 77q0 45 -1 91t-3 95q-43 25 -89 54.5t-87 64.5t-72 79t-41 97q6 8 6 21q0 25 -18 43q18 53 48 103t69 96t85 84t93 67q6 -2 18 -2q20 0 26.5 16t6.5 45t-3 65t-3 72 q0 29 4 56.5t17.5 48t36 33t59.5 12.5q45 0 73.5 -15.5t44 -41t20.5 -59.5t5 -68q0 -35 -3 -69t-3 -63q45 0 84 -4t68.5 -18t46 -44t16.5 -83q0 -29 -8 -58.5t-25.5 -53t-42 -39t-55.5 -15.5q-29 0 -47.5 6t-30.5 18.5t-22.5 29t-24.5 36.5q-12 -27 -17.5 -55.5t-8.5 -58 t-8 -59.5t-15 -56q0 -20 -1 -37.5t-1 -36.5q0 -14 1 -27.5t3 -27.5q68 -33 131 -60.5t112.5 -64.5t78 -92.5t28.5 -141.5q0 -6 -3 -24.5t-8 -39t-9.5 -37.5t-6.5 -21q-12 -27 -49 -61t-82 -64.5t-91 -52t-75 -23.5q-6 4 -18 8q23 -43 42 -100.5t19 -110.5q0 -51 -28.5 -86 t-104.5 -35q-33 0 -62.5 15.5t-53 40t-38 55.5t-14.5 63q0 20 3.5 42t7.5 41.5t7 33.5t3 21q0 8 -6 8t-13.5 -4t-9.5 -7q-18 -2 -35.5 -3t-36.5 -1q-78 0 -148.5 20.5t-137.5 74.5q-8 14 -10.5 29.5t-2.5 31.5zM352 1008q0 -51 92 -111v236q-45 -37 -68.5 -67t-23.5 -58z M590 397q0 -29 6 -59q20 6 43 14t41 22.5t29.5 34t11.5 44.5q0 20 -12.5 34.5t-28.5 23.5t-36.5 16.5t-35.5 15.5q-6 -35 -12 -72t-6 -74z" />
<glyph unicode="%" horiz-adv-x="1423" d="M68 950.5q0 26.5 4 50.5q4 20 15 38t17 40q10 12 15.5 22.5t15.5 22.5q8 10 12.5 19.5t12.5 19.5q8 12 16 20.5t17 14.5q8 12 18 21.5t18 17.5q8 12 18.5 21.5t18.5 21.5q14 8 27.5 22.5t32.5 22.5q20 14 47 29q25 16 43 19t53 -7q18 -6 36.5 -13t37.5 -18 q10 -8 25.5 -17t27.5 -18q14 -14 20.5 -32.5t12.5 -34.5q8 -14 9 -28.5t1 -30.5q4 -31 4 -63t-4 -67q-4 -10 -10 -18t-8 -16q-6 -8 -11.5 -18.5t-5.5 -20.5q-4 -16 -4 -26.5t-4 -20.5q-2 -8 -5 -21.5t-8 -26t-13.5 -22.5t-16.5 -18q2 2 2 -2.5t-2 -7.5t-4 -7t-2 -8 q-6 -23 -21 -39q-8 -14 -10 -23.5t-10 -17.5q-10 -12 -18.5 -21.5t-18.5 -17.5q-20 -14 -39 -20l-7 -1t-15.5 -2t-15.5 -1h-7q-4 -14 -27 -21q-18 14 -34.5 19.5t-36 9.5t-37 10t-31.5 14q-4 2 -19.5 9.5t-29.5 18.5t-29.5 21.5t-21.5 22.5q-4 6 -2 9t4 10q0 6 -2 8t-6 14 q0 6 -3.5 15.5t-13.5 13.5q0 8 -4 11t-12 13q0 10 -2 15.5t-2 15.5q-8 27 -8 53.5zM242 953.5q0 -25.5 3 -46t16 -42t34 -42.5q27 6 42 22.5t34 31.5q4 6 7 16t9 21.5t12.5 19.5t12.5 14q4 23 14 51.5t17.5 60.5t8.5 64.5t-12 63.5q-33 -8 -60.5 -30.5t-49 -50.5t-41 -53.5 t-37.5 -47.5q-10 -27 -10 -52.5zM256 -133q2 6 8 30.5t16.5 57.5t22.5 67.5t23 61.5q12 25 27.5 42t32.5 33.5t34.5 36t28.5 48.5q59 143 95 233t74 154q49 82 76 134t47.5 97t40 94.5t49.5 118.5q68 84 106 166t72.5 145.5t84 99.5t139.5 27q12 -2 32.5 -16t38 -34.5 t31 -43.5t11.5 -41q-4 -41 -36 -90t-73 -96t-78 -88t-53 -62q-66 -100 -103.5 -154t-62.5 -85t-42 -53.5t-39.5 -60.5t-57.5 -105.5t-94 -186.5q-27 -53 -37.5 -98t-32.5 -84q-12 -16 -27.5 -40.5t-17.5 -53.5q-2 -12 0 -30.5t0 -39.5v-8q-14 -47 -40 -110.5t-42 -106.5 q-4 -14 -13.5 -34.5t-19.5 -41.5q-41 -27 -62.5 -28t-49.5 2q-31 4 -52.5 19t-35 35.5t-18.5 45t-3 43.5zM834 104.5q0 30.5 6 64.5t14 68.5t16 67.5q4 20 13.5 38.5t15.5 39.5q0 10 20.5 36.5t45 56.5t45 56.5t26.5 36.5q6 8 9.5 16.5t9.5 16.5l8 14q8 12 22.5 23.5 t22.5 26.5q16 -2 27.5 -3t20.5 -4.5t17.5 -8.5t20.5 -19q27 -2 55.5 -18.5t56 -39t47 -48t25.5 -46.5q4 -18 2 -39.5t-7 -45t-8 -47t-1 -44.5q-23 -66 -61 -127q-12 -20 -22.5 -36.5t-27.5 -30.5q-14 -14 -27.5 -25.5t-27.5 -24.5q-8 -10 -16 -16t-19 -14q-8 -6 -16 -12.5 t-17 -16.5q-6 -8 -14 -14t-16 -15q-14 -8 -28.5 -18t-31.5 -12q-16 -4 -33.5 -5.5t-33.5 1.5q-27 2 -43.5 19t-34.5 32q-12 14 -28.5 28.5t-22.5 30.5q-10 27 -10 57.5zM1018 143q23 0 37 8.5t25.5 20.5t25 24.5t29.5 16.5q10 20 25.5 47t28.5 57.5t19 61.5t2 53 q-4 12 -11 18.5t-16 8.5t-17.5 0t-12.5 -6q2 2 4 0t0 -4q-25 -20 -48.5 -53.5t-41.5 -73t-31.5 -86t-17.5 -93.5z" />
<glyph unicode="&#x26;" horiz-adv-x="1142" d="M41 219q0 70 40 144.5t96 146.5t115.5 137.5t100.5 118.5q4 4 5 15.5t1 27.5q0 18 -4 39q0 14 3 26.5t3 26.5v6q-2 33 -3 61.5t-1 55.5q0 51 6.5 99t26.5 114q8 31 43 72t79 77.5t88 62.5t75 26q47 0 90 -19.5t74.5 -52.5t51 -75t19.5 -87q0 -59 -50 -132t-110.5 -146.5 t-110.5 -141t-50 -114.5q0 -98 10 -179.5t31 -124.5q18 25 38.5 51.5t37 52t28.5 47t14 38.5q43 41 61.5 73.5t31 55t28 34t52.5 11.5q16 0 33.5 -8t32.5 -21.5t25.5 -32t10.5 -38.5q0 -31 -22.5 -77t-57.5 -97.5t-74 -103.5t-73.5 -95t-57 -73t-22.5 -36q0 -18 9 -30.5 t22.5 -23.5t27.5 -20.5t27 -21.5q6 -12 10 -30.5t6 -34.5q4 -10 10 -28t12.5 -36t10.5 -32.5t4 -18.5q0 -31 -11.5 -59.5t-32 -51t-46 -37t-55.5 -14.5q-45 0 -72 28.5t-40 66.5t-17.5 75t-4.5 55q-2 8 -10 39t-28 60q-23 -8 -64 -21.5t-85 -26t-85 -21.5t-61 -9h-39 q-51 0 -89 20.5t-63.5 53t-38 72.5t-12.5 81zM266 240q0 -14 6.5 -28.5t28.5 -14.5q12 0 27.5 9t23.5 9q10 0 21.5 1t21.5 1q14 0 46 16.5t61 28.5q-14 76 -28.5 136.5t-31.5 125.5q-25 -23 -55.5 -58.5t-57 -75.5t-45 -80t-18.5 -70zM584 981q0 -8 6 -20q2 -8 6 -15 q6 8 27.5 42t44 75t40 82t17.5 63v9q0 6 -4 6q-49 0 -76 -24.5t-41 -59.5t-17 -72t-3 -61v-25z" />
<glyph unicode="'" horiz-adv-x="503" d="M147 1112q0 20 2.5 71.5t6.5 104.5t9 98.5t11 57.5q12 23 25.5 40t36.5 17q20 0 44.5 -10t46 -25.5t35 -31t13.5 -27.5t-9.5 -53t-21.5 -89t-24.5 -90t-18.5 -57q-6 -14 -17.5 -40.5t-24.5 -53.5t-26.5 -47.5t-25.5 -20.5t-22.5 16.5t-19.5 40t-14.5 50.5t-5.5 49z" />
<glyph unicode="(" horiz-adv-x="659" d="M72 827q2 66 14 143t27.5 147.5t33 126.5t29.5 83q12 43 39 105.5t64.5 131t85 135t98.5 120t105.5 86t105.5 32.5q8 -2 16 3.5t15 9.5q12 0 38.5 -15.5t53 -37t46 -46t19.5 -43.5l-6 -14q-2 -12 -16.5 -26.5t-34 -28t-41 -22.5t-35.5 -9q-41 0 -87 -41t-86 -99.5 t-70.5 -124t-43.5 -114.5q-23 -72 -45 -152.5t-41 -172.5q-6 -4 -10 -29q0 -4 3 -12.5t3 -16.5l6 -43v2l-6 -131l4 -61q2 -47 7.5 -98.5t11.5 -98.5q4 -25 6 -49.5t6 -40.5l10 -64q12 -78 14.5 -156.5t32.5 -152.5l-6 -18q4 -16 13.5 -19.5t13.5 -11.5l12 -18q16 -53 51 -92 t72 -80q35 -39 70 -81t39 -83q2 -25 10 -35l2 -4q0 -27 -12.5 -46.5t-29.5 -32.5t-37.5 -20.5t-37.5 -7.5q-98 0 -176 69t-136.5 179.5t-99 252.5t-67.5 288.5t-40 287t-13 246.5z" />
<glyph unicode=")" horiz-adv-x="739" d="M-193 -375q1 -1 7 15q2 12 16 26.5t33.5 27.5t40 22.5t37.5 9.5q41 0 93 36.5t101 92t86 118t49 111.5q23 72 45.5 152.5t40.5 173.5q6 4 11 28q0 4 -3.5 12.5t-3.5 16.5l-6 43v-2l6 131l-4 61q-2 47 -7 98.5t-11 98.5q-4 25 -6 49.5t-6 40.5l-11 64q-12 78 -26.5 159.5 t-44.5 155.5v-2q-4 16 -10.5 23.5t-12.5 13.5l-14 20q-16 53 -49 94t-70 82q-35 39 -69.5 81t-38.5 83q-2 25 -11 35l-2 4q0 27 16.5 46.5t39 33.5t46 21.5t40.5 7.5q98 0 175.5 -68.5t136 -179.5t99.5 -253t67.5 -288.5t39 -287t14.5 -246.5q-2 -66 -14.5 -142.5 t-27.5 -147.5t-32.5 -127t-29.5 -83q-12 -45 -42 -105.5t-73 -126t-95.5 -130t-108.5 -114.5t-113.5 -82t-108.5 -32q-8 2 -16.5 -3t-14.5 -9q-12 0 -38.5 15.5t-53.5 37t-46.5 46t-19.5 42.5z" />
<glyph unicode="*" horiz-adv-x="825" d="M61 1356q0 37 27 62.5t59 25.5q6 0 30 -11.5t49.5 -25.5t49 -27.5t29.5 -15.5q2 37 2 73t5 64.5t18.5 47t42.5 18.5q33 0 50 -24.5t28.5 -54.5t19.5 -54.5t21 -24.5q12 0 30.5 19.5t41 42t46 42t41.5 19.5q47 0 72 -25.5t25 -62.5q0 -16 -6.5 -39t-32.5 -47 q-35 -33 -79 -54.5t-91 -64.5q12 -10 28.5 -21.5t31.5 -23.5t26.5 -24.5t13.5 -26.5q4 -12 6 -28.5t2 -20.5q0 -18 -11 -32.5t-26.5 -24t-30 -13.5t-20.5 -4q-37 0 -51 11t-20.5 23.5t-10.5 24t-22 11.5q-12 0 -13 -7q0 -16 16.5 -50t16.5 -58q0 -49 -27.5 -65.5 t-56.5 -16.5q-27 0 -44 13.5t-27.5 32.5t-17.5 43t-13 42q-33 -23 -45.5 -44.5t-19.5 -38.5t-18 -28.5t-42 -11.5q-33 0 -50.5 19.5t-37.5 64.5q8 23 31.5 47.5t42.5 42.5q10 12 19 25.5t19 27.5q10 16 30 36t20 26t-28 23.5t-60.5 41t-60.5 50t-28 51.5z" />
<glyph unicode="+" horiz-adv-x="1210" d="M45 643q35 16 74 45t86 39q20 4 31 4q35 4 70.5 -2t70.5 -10q31 -4 58.5 -1t58.5 7h4q2 35 1 68.5t-5 68.5q-4 33 -12.5 68t-13.5 69.5t-4 69.5t15 68q18 45 60.5 43t83.5 -29t69.5 -64.5t22.5 -66.5q-6 -33 -2 -66.5t8 -66.5q4 -35 6 -71t0 -73q0 -6 1 -12t1 -10 q33 -2 65.5 -2t65.5 4q66 10 117 10t121 -14q14 -4 14 -40t-11 -77t-32.5 -73.5t-50.5 -26.5q-35 6 -67.5 2t-65.5 -8q-35 -4 -70 -6.5t-70 -0.5v-30.5t-4 -26.5q-6 -39 -8 -87t-1 -97t4 -96.5t3 -85.5q-16 -10 -37.5 -11.5t-37.5 0.5q-12 2 -35 -2t-47.5 -7t-44 -2 t-23.5 11q-2 6 -4 21.5t-5 37t-6 46t-10 47.5q-2 8 -2 15t-2 16q-2 35 4.5 70.5t10.5 70.5q4 25 2 48.5t-6 45.5h-35t-31 2q-41 6 -88 8t-96 1t-96.5 -4t-86.5 -3q-12 16 -12 38t2 40q2 23 -1 44.5t-7 43.5z" />
<glyph unicode="," horiz-adv-x="579" d="M2 -313q0 12 21.5 44.5t47 78t47 96.5t21.5 100q0 18 -2 27q14 59 32.5 121.5t45.5 112.5t64.5 83t93.5 33q33 0 57.5 -16.5t40.5 -42t24.5 -55t8.5 -54.5q0 -10 -25.5 -66.5t-65.5 -135.5t-89.5 -168t-95.5 -163.5t-82.5 -125t-55.5 -50.5q-23 0 -40 18.5t-27.5 46.5 t-15.5 59.5t-5 56.5z" />
<glyph unicode="-" d="M133 469q0 100 59.5 135t143.5 35q6 0 23.5 -3t38 -7t38 -7.5t23.5 -3.5q33 0 62.5 1.5t64.5 1.5q57 0 89 8t56.5 17t51 17.5t75.5 8.5q8 0 23.5 -12.5t30 -29t24.5 -33t10 -26.5q0 -4 -6 -25.5t-14 -47t-17.5 -46t-17.5 -20.5t-8 4t-11 4q-12 0 -21 -18.5t-24 -18.5 q-12 0 -18 4.5t-21 4.5q-6 0 -44.5 -9.5t-89 -19.5t-99.5 -19.5t-76 -9.5q-33 0 -52 -2t-33.5 -3t-27 -3t-30.5 -2q-16 0 -49 4t-68 17.5t-60.5 38t-25.5 65.5z" />
<glyph unicode="." horiz-adv-x="528" d="M63 106q0 98 33 129t90 37q12 0 21.5 10.5t21.5 10.5q16 0 21.5 -12.5t17.5 -12.5q8 0 10.5 1t2.5 3t2 3t8 1q27 0 48 -20t37.5 -46t26 -51.5t9.5 -37.5q0 -37 -20.5 -73t-50.5 -63.5t-64.5 -44t-65.5 -16.5q-35 0 -62.5 21.5t-46 51.5t-29 60.5t-10.5 48.5z" />
<glyph unicode="/" horiz-adv-x="923" d="M20 -131q0 6 4.5 31.5t11.5 59.5t15 70t17 62q8 27 22 45.5t29.5 37t31 38.5t23.5 51q43 147 69.5 240.5t59.5 161.5q41 86 62.5 141t37 102t29.5 97.5t39 123.5q57 90 87 175.5t58.5 152t73.5 107.5t135 41q12 0 34 -12.5t41.5 -31t34.5 -40t15 -39.5q0 -41 -26.5 -93.5 t-62.5 -103.5t-68.5 -95t-44.5 -67q-55 -106 -88 -163.5t-54.5 -91t-36 -57.5t-34 -63.5t-47 -110.5t-74.5 -196q-20 -55 -25.5 -101t-26.5 -87q-10 -16 -22 -43t-12 -55q0 -12 4 -31t4 -39v-8q-10 -47 -28.5 -112.5t-31.5 -110.5q-2 -14 -9 -36t-15 -44q-39 -29 -60.5 -33 t-50.5 -4q-31 0 -53 13t-37.5 32.5t-23 43t-7.5 42.5z" />
<glyph unicode="0" horiz-adv-x="987" d="M7 266.5q3 61.5 12.5 125t17.5 122.5q6 41 17.5 76t19.5 76q2 16 33.5 68t69.5 110.5t71 111t41 68.5t14 33t12 33l13 24q14 25 37.5 48.5t35.5 49.5q29 -2 49.5 -2t38 -3t35 -11t39.5 -29q45 0 102.5 -24.5t110.5 -60t93 -77.5t53 -79q10 -33 10 -73t-3 -82t-4 -85 t5 -82q-31 -123 -86 -242q-16 -35 -34.5 -66.5t-41.5 -62.5q-23 -29 -46.5 -51t-45.5 -51q-12 -16 -26.5 -29.5t-31.5 -29.5q-14 -14 -27 -27.5t-26 -30.5q-12 -16 -24.5 -29.5t-28.5 -25.5q-23 -20 -46.5 -39.5t-51.5 -30.5q-31 -10 -61.5 -15t-63.5 -5q-47 0 -78 27.5 t-68 52.5q-29 23 -59.5 45t-46.5 55q-23 43 -28 99.5t-2 118zM279 139q53 6 85.5 32t60.5 58.5t54.5 64.5t67.5 50q23 49 53.5 122t55 151.5t33.5 155.5t-9 134q-10 31 -30.5 43.5t-42 13.5t-42 -5.5t-28.5 -14.5q4 2 9 -2t1 -8q-55 -57 -105.5 -145.5t-87.5 -194 t-58.5 -222t-16.5 -233.5z" />
<glyph unicode="1" horiz-adv-x="724" d="M-92 997q59 0 110.5 22.5t97.5 56.5t87 75t80 78q16 18 32.5 37.5t34 37t33.5 30t35 12.5q10 0 30.5 -8.5t46 -19.5t52 -23.5t49.5 -20.5q10 -4 17.5 -22.5t27.5 -22.5q4 -74 -2 -140.5t-17.5 -131t-25.5 -129t-27 -134.5q-20 -55 -27 -125.5t-11.5 -147.5t-8.5 -159 t-16 -158q-4 -29 -9 -57.5t1 -85.5q2 -20 7 -40.5t7 -39t-2 -37t-21 -34.5q-41 -12 -69.5 -5t-53 24t-51 39.5t-59.5 39.5q6 180 18.5 356t53.5 332q-10 37 -6 77t12 81t16 79.5t4 73.5q0 4 -9 3t-19.5 -6t-19.5 -9t-11 -6q-12 -8 -26.5 -16.5t-24.5 -18.5q-4 -6 -11.5 -12 t-11.5 -13q0 -2 -1 -11t1 -9q-39 -27 -97 -12.5t-110.5 48.5t-85 77t-20.5 75z" />
<glyph unicode="2" horiz-adv-x="942" d="M-86 940q27 76 85 138.5t134 104.5t162 62.5t169 11t156.5 -49.5t124.5 -115q2 -41 -2 -59.5t11 -31.5q-27 -72 -57.5 -139t-67.5 -145q-8 -18 -26.5 -32.5t-27.5 -31.5q-14 -33 -29.5 -71.5t-32.5 -78.5t-37.5 -77t-43.5 -68q-20 -29 -38.5 -62.5t-41.5 -88.5 q-14 -35 -29.5 -50.5t-5.5 -47.5q37 4 78 20t84 35.5t88 41t88 36.5q45 16 88 25t78 3t61.5 -32.5t41.5 -83.5q-25 -31 -48.5 -50.5t-48 -33t-55.5 -22.5t-72 -19q-6 -23 -36.5 -36t-42.5 -9q0 -4 -23 -19.5t-53.5 -32t-58 -31t-35.5 -16.5q-61 -20 -132 -5.5t-130.5 54 t-95.5 99t-25 129.5q10 80 53 151.5t80 139.5q25 47 50 91t50 91q53 98 101.5 197.5t84.5 205.5q2 10 -21.5 22.5t-31.5 12.5q-12 2 -26.5 -2t-30 -10t-29.5 -13.5t-24 -11.5q-12 -6 -30 -16t-34 -22.5t-29.5 -27t-19.5 -28.5q0 -2 -2 -2q-8 -23 -9 -44.5t-18 -41.5 q-29 -31 -66.5 -31t-72.5 13q-8 2 -30.5 14t-46 28.5t-40 33t-12.5 28.5z" />
<glyph unicode="3" horiz-adv-x="800" d="M-35 1049q23 74 71 124t109.5 78.5t130 40t136.5 6.5q20 -23 44.5 -34t49 -19t49.5 -17t45 -28q47 -43 57.5 -92t-2 -102.5t-41 -107.5t-59.5 -107.5t-56.5 -103.5t-33.5 -93q39 -25 67.5 -54.5t54 -60t49 -59.5t52.5 -49q31 -59 37 -112.5t-4 -105t-33.5 -101.5 t-52.5 -101q-25 -8 -45.5 -23.5l-41 -31t-42 -28.5t-49.5 -15q-41 -6 -78 8t-72 37q-16 10 -29.5 21t-29.5 20q-16 10 -33.5 11t-34.5 7q-16 4 -31.5 11t-31.5 12q-6 47 7 69.5t64 28.5q39 4 79 0t77 12q25 8 48.5 27.5t43 45t30.5 53.5t9 56q-4 68 -33.5 109t-70.5 72.5 t-87 60.5t-83 72q0 41 12 85t30.5 87t39 84t36.5 76q4 10 14.5 30.5t15.5 41t2 34.5t-23 12q-14 -2 -27.5 -11t-26 -21.5t-22.5 -25.5t-21 -22q-14 -14 -33.5 -23t-37.5 -15q-29 -8 -38 -4t-32 24q-6 4 -26.5 19.5t-43 33t-40 33.5t-15.5 25z" />
<glyph unicode="4" horiz-adv-x="868" d="M-27 573q0 18 14.5 54.5t33 76t37 78.5t26.5 62q41 125 61.5 251t24.5 226q37 31 73 26.5t70.5 -22.5t66.5 -45t60 -43q-2 -68 -24.5 -144.5t-51 -154.5t-54 -151.5t-31.5 -137.5q61 -4 126.5 8.5t112.5 51.5q12 74 22.5 135t22.5 115.5t26.5 106.5t31.5 110 q35 10 66.5 -0.5t60 -31t54 -47t48.5 -48.5q-86 -287 -131 -570.5t-55 -584.5q-37 -18 -65 -15.5t-50.5 17t-45 35t-52.5 38.5q-16 57 -12.5 117.5t13 120t16.5 116t-1 105.5q-35 8 -68.5 4t-70.5 -10t-79 -10t-97 0q-14 12 -43 26.5t-57.5 35t-52.5 45t-26 54.5z" />
<glyph unicode="5" horiz-adv-x="878" d="M4 1057q0 33 33 47t59 14q10 0 21.5 -1t23.5 -3q35 78 62.5 159t72.5 146q43 -6 81 -21.5t67 -39t46 -53t17 -64.5q0 -47 -32 -98q23 -4 44 -6t40 -2q49 0 91 9t78.5 21.5t73.5 21.5t78 9q33 0 80 -10q33 -41 33 -74q0 -39 -44 -73.5t-104.5 -62.5t-122 -47.5 t-96.5 -27.5q-25 0 -35 17l-42 -6q-42 -7 -92 -16t-92 -20.5t-42 -19.5q0 -37 -13.5 -80t-13.5 -78v-12q82 -49 166 -94t156 -121q12 -12 29.5 -23.5t23.5 -19.5q47 -72 47 -152q0 -41 -18 -98t-51 -113.5t-78 -102.5t-100 -64q-25 -8 -48.5 -18.5t-50.5 -10.5 q-25 0 -52.5 1t-51.5 9q-57 16 -101.5 63.5t-48.5 108.5h6q20 0 21 19q31 -12 63 -13q47 0 93.5 20.5t83 56.5t59 84t22.5 104q0 31 -10 67q-72 29 -137.5 55.5t-116.5 63.5t-87 92t-50 139q4 39 19.5 81t15.5 81q0 27 -12.5 45.5t-25.5 35.5t-25.5 33.5t-12.5 41.5z" />
<glyph unicode="6" horiz-adv-x="880" d="M36 456.5q-5 139.5 18.5 280t69.5 270.5t107 228q-4 27 5.5 37t5.5 35q35 45 80 47t86 -22.5t71.5 -66.5t38.5 -83q-115 -139 -177 -299t-65 -371q45 20 85 46t80 44.5t82 24.5t93 -9q41 -12 80 -38.5t70 -61.5t53.5 -73.5t28.5 -75.5q18 -94 -11.5 -176t-91 -146.5 t-145.5 -108.5t-172 -61q-135 31 -219 117t-126 204.5t-47 258zM295 164q12 -10 14 -30.5t13 -33.5q70 -4 128 19.5t98 65.5t60.5 99.5t16.5 121.5q-49 0 -83 -14.5t-58.5 -35t-44.5 -44.5t-38 -42t-50 -44.5t-56 -61.5z" />
<glyph unicode="7" horiz-adv-x="884" d="M-221 1290q18 20 37.5 26.5t41 4.5t46 -9t53.5 -14q47 -10 85 -13t78 -3t87 4t115 10q35 2 75.5 8.5t79.5 13.5t73 18.5t56 23.5q70 -18 121 -54t94 -81q2 -49 -5 -95.5t-20.5 -93.5t-28 -95t-26.5 -99q14 -29 34 -50.5t36 -43t27.5 -44t9.5 -51.5q-2 -31 -23.5 -49 t-50.5 -31.5t-60.5 -24.5t-51.5 -30q-25 -76 -44.5 -164t-43 -178t-55.5 -175t-81 -153q-72 6 -114.5 48.5t-81.5 95.5q23 61 47 121.5t46.5 124t40 130t25.5 142.5q-37 23 -78.5 44t-76.5 48t-57.5 62.5t-18.5 87.5q35 29 66.5 31.5t65.5 -5.5t74 -18t89 -8q27 59 36 144 t25 169q-2 16 -15 19t-19 16q-25 -4 -37.5 -7t-26.5 -12q-88 2 -154.5 -9t-126 -17t-117 3t-126.5 54q-10 4 -12.5 18.5t-14.5 26.5q-16 14 -35.5 23.5t-35 21.5t-23.5 32.5t-4 55.5z" />
<glyph unicode="8" horiz-adv-x="741" d="M14 125q18 68 27.5 133.5t22 132t34 132t64.5 130.5q8 16 18 38t10 30q0 12 -24.5 42t-38.5 52q-45 70 -74.5 141.5t-29.5 149.5q0 57 18 117q16 25 37.5 43t42.5 41q57 57 131 101t168 44h14q61 -23 114.5 -79t94.5 -97q16 -16 37.5 -31.5t32.5 -36.5q12 -25 13 -57.5 t3 -60.5q-29 -57 -64.5 -101.5t-73.5 -86.5t-79 -87t-78 -100q33 -55 70 -111.5t66.5 -114t49 -118t19.5 -125.5q0 -31 -5 -58.5t-18.5 -61.5t-37 -75t-60.5 -96q-29 -45 -59 -76q-43 -41 -83 -58.5t-83 -17.5q-45 0 -87 19.5t-77 49.5t-58.5 65.5t-29.5 68.5q-6 29 -9 60.5 t-18 58.5zM242 147l1 -16t5 -37.5t11 -39t22 -17.5q10 0 23.5 18t27.5 41q35 57 54.5 117.5t19.5 132.5q0 20 -1.5 51t-7.5 58.5t-18 47t-35 19.5q-20 0 -25 -22v4q-18 -27 -24 -60.5t-14 -62.5q-16 -59 -27.5 -116.5t-11.5 -117.5zM242 997q0 -6 1 -20t5 -29.5t11 -27 t17 -11.5q6 0 18.5 11.5t25 28t24.5 31.5t21 26q25 27 52 58.5t27 70.5q0 2 -8 5t-17 6t-18.5 4t-11.5 1h-14q-31 0 -55.5 -14.5t-42 -37t-26.5 -49t-9 -53.5z" />
<glyph unicode="9" horiz-adv-x="874" d="M-39 891q4 61 29.5 118.5t64.5 106.5t86 89t95 71q47 31 134 42t181 1q12 -2 21.5 -8t21.5 -12.5t26.5 -9.5t36.5 3q61 -33 98.5 -84t56.5 -114.5t25.5 -136t6.5 -148.5q2 -41 -1 -83t-7 -83q-6 -68 -19.5 -148.5t-34 -163.5t-49 -159t-65.5 -133q-31 -45 -68 -86 t-84 -70q-23 -14 -45 -23.5t-47 -17.5q-31 -10 -58.5 -5t-58.5 16q-43 14 -91 45.5t-81 74.5t-42 92.5t28 98.5q14 -2 18 8q47 -18 81 -49t71 -49q78 23 135 97.5t94 167.5t53.5 190t12.5 165q-55 -31 -116.5 -59.5t-123 -46t-119 -16.5t-106.5 32q-31 18 -60.5 54t-52 77 t-36 83t-11.5 73zM201 819q53 -2 108.5 10.5t104.5 38t88 64.5t57 92q-61 43 -119.5 40t-106.5 -36t-83 -89.5t-49 -119.5z" />
<glyph unicode=":" horiz-adv-x="583" d="M117 666q0 47 18.5 97t59.5 77q14 10 40.5 28.5t38.5 18.5q29 0 58.5 -14.5t54.5 -37t41 -51t16 -57.5q0 -33 -10 -71t-31.5 -70.5t-53.5 -54t-75 -21.5q-72 0 -114.5 48t-42.5 108zM119 100q0 6 6 26.5t15.5 47.5t18.5 55.5t15 49.5q29 16 56.5 26t27.5 33 q2 -2 36 -13.5t73 -27.5t70.5 -38.5t31.5 -49.5q0 -33 -13.5 -73t-38 -75.5t-59 -59.5t-79.5 -24q-29 0 -57.5 13.5t-51.5 33t-37 41t-14 35.5z" />
<glyph unicode=";" horiz-adv-x="675" d="M12 -354q0 12 23.5 43.5t51.5 73.5t51.5 92.5t23.5 99.5q0 16 -2 25q18 37 31.5 84t35 90t53 71.5t87.5 28.5q33 0 57.5 -16.5t40.5 -42t25.5 -55t9.5 -54.5q0 -10 -21.5 -58t-55.5 -114t-76 -140.5t-82 -138t-72.5 -104.5t-51.5 -41q-33 0 -56.5 15.5t-39.5 38t-24.5 50 t-8.5 52.5zM190 705q0 12 8.5 24t12.5 25q2 23 3 48t15 42q18 6 41 13t45.5 13.5t41 10.5t26.5 4q47 0 80 -22.5t52.5 -56.5t28.5 -71.5t9 -68.5q0 -20 -19.5 -46t-46 -48.5t-54 -38t-42.5 -15.5q-37 0 -73.5 16.5t-64.5 42t-45.5 59.5t-17.5 69z" />
<glyph unicode="&#x3c;" horiz-adv-x="1210" d="M31 592q84 70 151.5 118t128 89l121 82t127.5 98q6 4 7 0t-3 -8q37 29 89.5 57.5t108.5 54t109.5 47t94.5 33.5q12 23 43.5 45.5t38.5 57.5q23 -4 44 -4t39 -23q2 -27 0 -35t21 -33q-16 -29 -15 -53t11 -49q-63 -86 -158.5 -143.5t-200 -108.5t-209 -104.5t-188.5 -130.5 q29 -18 56.5 -36t56.5 -34q10 -8 22.5 -14t22.5 -13q35 -18 72 -39l30 -24q23 -16 44.5 -30.5t49.5 -12.5q33 2 59.5 -8.5t55.5 -24.5l4 -2q74 -33 127 -68q8 -4 13 -8q14 -6 29.5 -16t19.5 -25q6 -16 11 -42.5t5 -45.5q0 -12 -2 -20q-4 -8 -4 -13q-16 -45 -50 -72.5 t-69 -37.5l-8 -2q-6 4 -16.5 13t-20.5 18q-10 10 -15 14t-7 6q-27 18 -52.5 32.5t-48.5 24.5q-29 16 -59.5 29.5t-59.5 26.5q-25 10 -51 21t-53 26q-78 39 -148.5 90t-137 104.5t-126 104.5t-110.5 88z" />
<glyph unicode="=" horiz-adv-x="1335" d="M92 844q0 27 20.5 53.5t49 48t56.5 35.5t46 14q8 0 43 -2t76 -3t77 -3t42 -2q12 0 46 4t73 4q18 0 35.5 9.5t33.5 9.5q12 0 26.5 -4t31.5 -4q49 0 86.5 11t67.5 25.5t50.5 25.5t38.5 11q35 0 60.5 -15t43 -36.5t26.5 -45.5t9 -40q0 -39 -23.5 -59.5t-59 -30.5t-79.5 -13 t-83 -7.5t-68 -13.5t-39 -34q-100 -6 -199.5 -23.5t-211.5 -45.5q-18 -4 -49 -14.5t-46 -10.5q-76 0 -128 33t-52 123zM137 227q0 25 13.5 57.5t35 62.5t50 50.5t63.5 20.5q12 0 16 -5t23 -5q14 0 41 4t72 4h18q8 -2 31 -2q31 0 66.5 4t72.5 8q80 6 170 8t176 17q16 2 39 13 t45.5 23.5l40.5 22.5t25 10q14 0 33.5 -9t39 -23.5t32.5 -33t13 -38.5q0 -6 -1 -19.5t-5 -28t-11 -27.5t-22 -19q-18 -6 -77.5 -22.5t-141.5 -37t-179 -43t-190.5 -40t-175 -29t-135.5 -11.5h-24q-20 0 -47 2t-50.5 11.5t-40 27t-16.5 47.5z" />
<glyph unicode="&#x3e;" horiz-adv-x="1210" d="M51 1171q12 12 16.5 19.5t4.5 13.5t-1 14.5t1 20.5q18 23 39.5 23t44.5 4q6 -35 37.5 -57.5t44.5 -45.5q41 -12 94 -33.5t109.5 -47t108.5 -54.5t89 -57q-4 4 -3 8t7 0q68 -57 128 -98t120.5 -82t128 -89t151.5 -118q-53 -37 -111.5 -88t-125 -104.5t-138 -104.5 t-147.5 -90q-27 -14 -53.5 -25.5t-50.5 -21.5q-29 -12 -59.5 -25.5t-59.5 -30.5q-23 -10 -48.5 -24.5t-51.5 -32.5q-2 -2 -7.5 -6t-15.5 -14q-10 -8 -20.5 -17.5t-16.5 -13.5l-8 2q-35 10 -68.5 37.5t-50.5 72.5q0 4 -4 13q-2 8 -2 20q0 18 5 45t12 43q4 14 19 24.5t30 16.5 q4 4 12 8q53 35 127 68l4 2q29 14 55.5 24.5t59.5 8.5q29 -2 50 12.5t44 30.5l31 24q37 20 71 39q10 6 22.5 12.5t22.5 14.5q29 16 56.5 33.5t56.5 36.5q-84 78 -188.5 131t-209 104t-199.5 108.5t-159 143.5q10 25 11 49t-15 53z" />
<glyph unicode="?" horiz-adv-x="1056" d="M10 1225q6 33 17.5 60.5t26 52t29.5 49t26 53.5q0 2 12 10t27.5 18.5t30 19.5t20.5 13q27 23 58.5 44.5t67 39t71.5 27.5t69 10q147 0 263 -29.5t208 -128.5q27 -31 47.5 -70.5t32.5 -83.5t18 -90t6 -85q0 -49 -11 -83t-29.5 -61.5t-41 -52.5t-45.5 -53q-33 -41 -69 -76 q-45 -41 -101.5 -88t-105.5 -100.5t-83 -112.5t-36 -123v-25q0 -18 -6 -40.5t-29 -40.5l-10 -5q-43 0 -77 24t-57.5 57.5t-34.5 67.5t-11 56q0 78 39 148.5t91 128t102 99.5t75 65q41 41 71.5 90t63.5 98q18 29 37 51.5t19 65.5q0 37 -15.5 67.5t-40 53t-57.5 35t-68 12.5 q-49 0 -96 -19.5t-86 -48.5q-25 -18 -45.5 -32.5t-38.5 -31t-34.5 -38t-30.5 -56.5q-10 -23 -20.5 -46t-35.5 -23h-20h-21q-25 0 -50.5 11t-49 28.5t-43 40t-29.5 47.5zM311 -47q0 31 13 59h6q12 0 16 9.5t6 21.5t6 21.5t19 9.5q-8 8 -11.5 9t-3.5 5q0 20 18.5 23.5 t35.5 3.5q39 0 77.5 -16.5t69.5 -44t49.5 -66.5t18.5 -84q0 -6 -1 -13.5t-1 -13.5q-23 -25 -35 -51.5t-22.5 -50t-27 -37.5t-48.5 -14q-37 0 -71 21.5t-58.5 55t-40 73.5t-15.5 79z" />
<glyph unicode="@" horiz-adv-x="2060" d="M96 346q0 74 13 141q29 154 69.5 316t95 309.5t120 271t143.5 201.5q131 129 313 129q72 0 174 -20.5t213 -64.5t220.5 -113.5t199.5 -169.5q70 -78 126 -160t97 -172t63.5 -191.5t22.5 -218.5q-2 -102 -30.5 -208.5t-74.5 -209t-104.5 -196.5t-120.5 -172 q-43 -14 -88 -15q-61 0 -114.5 27t-98.5 68t-83.5 93t-71.5 103q-39 -14 -59.5 -38.5l-41 -49t-49.5 -42t-86 -17.5q-47 0 -88 18.5t-74.5 47t-63.5 62.5t-56 64q-49 150 -50 299q0 199 81 371t229 276q33 0 71.5 -9t78.5 -25.5t77 -38t68 -43.5q37 -29 67.5 -75t53 -96 t37 -98.5t14.5 -81.5q0 -20 -11 -51q-16 -41 -21 -88t-5 -92q0 -74 24.5 -140.5t42.5 -129.5q6 -23 15.5 -40.5t33.5 -17.5q16 0 27.5 9.5t20 22.5t14.5 27.5t14 26.5q96 141 138 300t42 331q0 80 -20.5 146.5t-56 127t-83.5 116t-102 114.5q-43 49 -96 84t-114.5 62.5 t-131 50t-145.5 47.5q-113 -25 -191.5 -83.5t-134 -141t-95.5 -183t-75 -207.5q-41 -104 -67.5 -195t-36.5 -196q-10 -76 -19.5 -146.5t-9.5 -144.5q0 -92 21.5 -183t68.5 -168t120 -133t177 -79q14 -4 27.5 -4h27.5q27 0 52.5 1t52.5 1q18 0 35.5 -1t36.5 -5 q20 -4 41.5 -17.5t40 -30t31 -31.5t12.5 -26q0 -23 -19.5 -36t-49.5 -22t-61.5 -12t-56.5 -3q-96 0 -192.5 29.5t-183.5 78.5t-161.5 111.5t-123.5 128.5q-31 39 -57.5 97.5t-46 128t-31 145t-11.5 149.5zM852 360q0 -84 33 -149q47 35 85 96.5t66 134.5q2 4 2 11 q0 10 -2 18t-2 18t2 17q18 59 43 120.5t25 114.5q0 29 -9.5 51.5t-31.5 43.5q-27 -6 -47.5 -29t-36.5 -47.5t-28.5 -45t-20.5 -22.5q-27 -70 -52.5 -158t-25.5 -174z" />
<glyph unicode="A" horiz-adv-x="1177" d="M-12 29q0 29 10 57.5t26.5 55t36 51t37.5 45.5q10 10 18.5 25.5t18.5 25.5q12 14 24.5 19t24.5 22q59 88 118.5 177t115.5 177q29 47 63.5 89t65.5 89q27 41 49 83t53 83q20 29 29.5 60.5t21 60.5t31 49.5t62.5 24.5h10l2 10q6 16 8 34.5t2 35.5q0 14 -1 27t-1 30 q0 6 1 12t1 12q0 18 -4 43t-4 48q0 29 19.5 52t47.5 27l15 -8q53 -33 95 -59.5t85 -67.5q6 -72 6 -145q0 -88 -4 -183.5t-4 -187.5q0 -47 -7 -92t-7 -90q0 -23 6 -46.5t6 -45.5q0 -10 -2 -17q8 4 21.5 15.5t23.5 11.5q14 -23 26.5 -38t24.5 -29.5t26.5 -28t35.5 -29.5 q2 -2 2 -6q0 -6 -6.5 -20.5t-14.5 -28t-16 -24.5t-10 -13q-8 -10 -17.5 -21.5t-19.5 -21.5q-31 -29 -70 -31v-14q0 -74 -2 -156t-18 -153q-10 -37 -15.5 -76t-20 -70t-44 -50t-86.5 -19q-20 0 -39 11t-34 26.5t-25.5 33t-12.5 29.5q10 8 17.5 26.5t10.5 40t5 41t4 31.5 q6 51 6 107q0 29 -2 56.5t-2 55.5v19.5t2 19.5l2 12l-18 7q-53 23 -100.5 43t-106.5 49l-15 6l-6 -12q-25 -49 -59.5 -94.5t-69 -89.5t-64.5 -87t-44 -86q-20 -16 -35.5 -41.5t-31 -50t-36 -43t-49.5 -18.5t-62.5 13t-62 33.5t-48 42t-19.5 38.5zM686 635q16 -23 16 -27h-2 q33 -10 52.5 -21.5t42.5 -11.5t43 11l-7 14q-6 14 -6 29v41.5t9 58.5q0 8 -1.5 20.5t-4.5 24.5t-9 20.5t-18 8.5q-16 0 -22.5 -13.5t-16.5 -23.5l-6 -8q-23 -35 -38.5 -71t-31.5 -52z" />
<glyph unicode="B" horiz-adv-x="1048" d="M-37 20v5q0 14 7 21t24 20q25 14 37 34.5t19 50t14.5 66.5t21.5 84q29 70 49.5 136.5t44.5 137.5q14 43 32.5 79t20.5 96v20l-20 -2q-8 -2 -25 -2q-47 0 -81.5 19.5t-69.5 54.5q0 68 20.5 117t55 87.5t77.5 69.5t91 62l20 14q113 72 234.5 136.5t269.5 88.5q16 4 29.5 6 t33.5 2l17 -2q111 -12 151.5 -59t40.5 -100q0 -51 -27.5 -100.5t-64.5 -92.5t-75 -77t-60 -54q-10 -8 -26.5 -24.5t-36 -33t-39 -31.5t-33.5 -22l-6 -2l-4 -8q-10 -25 -30 -44t-41.5 -38.5t-43 -41t-37.5 -48.5l-8 -12l12 -8q23 -16 51.5 -15.5t59.5 0.5q55 -8 109 -24.5 t96 -41t69 -59t27 -79.5q0 -29 -16.5 -60t-43 -59.5t-57.5 -53t-59 -43.5q-39 -23 -71 -45t-61.5 -41.5t-61.5 -37t-71 -31.5q-68 -27 -127 -52.5t-112 -45.5q-43 -16 -86 -37t-90 -21q-18 0 -27.5 1t-14.5 3t-9.5 7.5t-12.5 13.5q-2 2 -14 10t-26.5 22.5t-28 35t-17.5 48.5 zM262 147l29 13q8 4 36.5 16t67.5 29.5t82 41t81 49.5t65.5 52.5t35.5 52.5l5 15l-17 4q-31 10 -62.5 12t-62 4t-61.5 7.5t-62 21.5l-16 8l-16 -35q-29 -66 -58.5 -131t-40.5 -129zM326 905l14 -8l4 -14q10 0 23.5 4t23.5 4q16 0 30.5 -7t18.5 -24q47 10 83 43t69 51l16 11 q20 10 38 23t36 30q6 6 21.5 20.5t32 34t29.5 41t13 39.5q0 16 -14 32.5t-43 16.5q-20 0 -44 -8t-47.5 -19.5t-44 -23.5t-34.5 -21l-4 -6q-39 -29 -79 -50t-79 -50l-4 -2q-10 -8 -17.5 -12t-13.5 -12.5t-11 -23.5t-11 -46q-4 -20 -6 -23z" />
<glyph unicode="C" horiz-adv-x="997" d="M1 230q1 36 1 32q0 133 27.5 256t81 237.5t133.5 226.5t184 224q31 33 71 57.5t76 53.5q23 18 43.5 38.5t42 38t46 30t59.5 12.5q84 0 127 -25t63.5 -64.5t27.5 -88t22 -97.5v2v-4q0 -4 1 -7t1 -7q0 -27 -25 -56.5t-55.5 -54t-57 -40t-30.5 -15.5q-20 0 -30.5 31.5 t-14.5 71.5t-6.5 78t-4.5 48q-29 -6 -60.5 -27.5t-61 -49t-57 -56t-50.5 -51.5q-55 -55 -117.5 -136t-115 -178.5t-86 -207t-33.5 -221.5q0 -35 6 -70t23.5 -61.5t49 -43t83.5 -16.5q45 0 79.5 17.5t75.5 27.5q23 4 44.5 14.5t45.5 10.5q41 0 41 -37q2 -20 -9 -43t-24 -39 q-29 -41 -53 -61.5t-50 -30.5t-54.5 -14.5t-61.5 -8.5t-64.5 -9t-64.5 -5q-41 0 -66.5 12.5t-45 27.5t-38 31.5t-44.5 22.5q-35 8 -50.5 51t-20.5 89q-4 39 -4 71v13z" />
<glyph unicode="D" horiz-adv-x="966" d="M-10 139v21.5t2 21.5q8 47 28.5 82t30.5 80q8 37 12.5 62.5t9.5 43t14 28.5t26 22l8 4l4 8q2 4 2 12q0 10 -5 18.5t-9 12.5l-2 2q0 33 -7.5 64.5t-7.5 64.5q0 86 19.5 170t48.5 170t62.5 175t64.5 185q33 2 58.5 13.5t49 24t47 21.5t54.5 9q94 0 172 -43t136 -105.5 t95 -132t49 -120.5q14 -57 15 -123q0 -106 -36 -210t-94.5 -200t-130 -182t-143 -156.5t-134 -125t-103.5 -85.5q-102 -39 -181 -39q-78 0 -118 39q-6 41 -21.5 81t-15.5 87zM276 258q0 -8 1.5 -16.5t1.5 -16.5l2 -47l32 33q51 49 129 133t150 188.5t123 221t51 233.5 q0 41 -8 87t-29.5 88t-61.5 78t-104 54l-8 2l-16 -8q-16 -8 -34 -16t-34 -19l-10 -6l2 -12q2 -12 2 -24.5v-26.5q0 -84 -13.5 -162t-13.5 -137v-15q-28 -83 -55 -159q-41 -121 -74 -230.5t-33 -222.5z" />
<glyph unicode="E" horiz-adv-x="1075" d="M-14 623q0 35 6 54t16 32.5t24.5 26t30.5 34.5q18 25 35 56.5t29 65.5t19.5 66.5t7.5 55.5q0 27 -13.5 56.5t-29 58t-28.5 55t-13 45.5q0 39 30.5 61.5t81.5 37.5t115.5 27.5t132.5 30.5q31 6 87 20.5t126 29t145.5 26t145.5 11.5q202 0 231 -113q2 -10 3 -18.5t1 -16.5 q0 -43 -41 -61.5t-94 -23.5q-38 -4 -74 -4q-14 0 -28 1q-24 1 -41 1t-27 -1q-4 0 -40 -6t-87 -16.5t-109.5 -22.5t-110.5 -26.5t-89 -28t-45 -23.5l-2 -16q4 -25 15.5 -42.5t21.5 -32.5t19 -31.5t12 -37.5l2 -18l16 2q55 2 125 18.5t139.5 34t132 31.5t103.5 14q12 0 21 -10 t15.5 -24.5t9.5 -26.5t3 -19q2 -23 -13.5 -44t-44.5 -48q-55 -51 -122.5 -79.5t-138 -49t-141.5 -41t-134 -53.5q-47 -27 -93 -53.5t-91 -57.5l-2 -8q-10 -72 -29 -139.5t-19 -132.5q0 -35 7 -66l6 -18l18 8q92 31 171 87t138 132q14 18 26.5 44t27 49.5t31 40t38.5 16.5 q14 0 28.5 -19.5t26 -46t18.5 -55.5t7 -49q0 -45 -17.5 -85t-47 -75t-67.5 -66.5t-77 -62.5q-35 -27 -69.5 -60.5t-70.5 -63.5t-74 -50.5t-75 -20.5q-70 0 -126 45.5t-89 96.5q-20 100 -23 194t-3 187q0 53 -3 105t-3 106z" />
<glyph unicode="F" horiz-adv-x="1163" d="M-76 1276q0 16 12.5 27.5t31 18.5t37 11t30.5 4q88 23 170 35t160.5 21.5t154.5 17.5t154 23q23 4 47 6t49 2q123 0 253 -6t237 -35q33 -10 64.5 -14.5t58 -17.5t43 -41t16.5 -85q0 -29 -43 -29q-23 0 -51.5 3.5t-55 8.5t-47 9t-28.5 6q-14 -10 -31 -12t-33 -2 q-31 0 -61.5 5t-55.5 5h-190q-66 -4 -134.5 -12.5t-136.5 -16.5q-49 -4 -72.5 -9t-32.5 -15t-9 -26.5t-2 -43.5q-4 -35 -6 -56.5t-7 -56.5q-4 -29 -13 -54t-15 -54q-2 -6 -9.5 -32.5t-14.5 -57.5t-13 -57.5t-6 -32.5q0 -4 13 -5t18 -1q61 0 121.5 15t119 36.5t115.5 43 t117 34.5q16 4 32.5 3t34.5 3q14 4 28.5 8t31.5 4q39 0 58 -25.5t19 -56.5q0 -45 -27.5 -73.5t-66.5 -48t-81 -33t-72 -25.5q-27 -12 -59 -27.5t-60 -21.5q-47 -10 -94.5 -15.5t-92.5 -11.5t-88 -17.5t-84 -35.5q-12 -8 -21 -27.5t-14.5 -45t-9.5 -53.5t-8 -50 q-10 -53 -20.5 -103.5t-20.5 -103.5q-6 -27 -10 -65t-9 -71.5t-14.5 -58t-27.5 -24.5q-6 0 -41 14t-74 33q-45 20 -100 47q0 6 4 33.5t10 59.5t11 58.5t5 32.5q8 72 32 146.5t24 146.5q0 35 -13.5 54.5t-30 34t-29.5 27.5t-13 38q0 23 4 24.5t26 3.5q49 4 73 13.5t34 24 t10 31.5t4 38q14 98 28.5 194.5t43.5 190.5v4q0 14 -13.5 17t-13.5 20v6q-16 0 -32.5 -3t-32.5 -3q-84 0 -139.5 28.5t-55.5 100.5z" />
<glyph unicode="G" horiz-adv-x="837" d="M2 459q0 172 43 362q10 47 27.5 102.5t42 112t55.5 112.5t72 105q20 27 39.5 56.5t38 59.5t38 57.5t43.5 48.5l9 6q32 32 59 32h2q25 0 44.5 -14t32.5 -35.5t19 -46t6 -47.5q0 -35 -8 -56.5t-20.5 -36.5t-26.5 -28.5t-26 -27.5q-66 -84 -117 -178.5t-85 -194.5 t-51.5 -202.5t-17.5 -201.5v-36q0 -31 2 -69t12.5 -73t30 -58.5t56.5 -23.5q39 0 70.5 28t54 67.5t37 83t20.5 73.5l-2 2q-53 -24 -105 -24h-4q-51 0 -92 24.5t-51 59.5v4q0 4 -1 6t-1 4l-2 4q0 16 2 29.5t10 23.5l2 4q16 31 58 54.5t91.5 40t98.5 24.5t80 8q43 0 76 -8 l6 -2q25 -16 40 -32.5t48 -18.5h8l10 -14q18 -27 33.5 -53.5t15.5 -67.5v-19l-4 -8q-16 -29 -36.5 -52.5t-30.5 -57.5q-8 -23 -21.5 -42.5t-29 -39t-28.5 -39t-22 -43.5q-31 -43 -64.5 -74t-70.5 -68q-12 -14 -39.5 -39.5t-63.5 -50t-78 -43t-85 -18.5q-57 0 -103.5 42 t-79 115.5t-50 174t-17.5 217.5z" />
<glyph unicode="H" horiz-adv-x="1277" d="M-14 74q0 27 7 57.5t18.5 59t22.5 56t17 48.5q53 160 112.5 317.5t125.5 323.5v4q0 43 9 85t20.5 82t20.5 80t9 79q0 35 -6 63.5t-6 63.5q0 45 19.5 61t54.5 16q29 0 57.5 -8t62.5 -16l13 -16q20 -27 38.5 -46.5t18.5 -64.5q0 -84 -17.5 -163t-42 -157.5t-53 -155.5 t-51.5 -157l-2 -10h10q43 -6 88 -6t89.5 3t91.5 3h22l6 -2l2 8q35 96 68 188.5t58.5 189.5t41 201.5t15.5 225.5q0 16 -1 34.5t-1 37.5q27 16 77 16q27 0 44.5 -5t27.5 -10.5t16.5 -10.5t10.5 -5h6q14 0 25.5 -14t19.5 -34.5t11 -45.5t3 -43q0 -59 -22 -145 q-8 -76 -22.5 -143.5t-33 -131t-39 -126t-40.5 -130.5l-2 -10l10 -2q8 -2 24 -2q43 0 87 15.5t87 34.5t84 36.5t80 23.5q10 -14 17.5 -20t12.5 -12.5t7 -12.5t2 -20q0 -35 -16.5 -55.5t-38.5 -47.5q-27 -31 -55.5 -38t-57.5 -27q-10 -6 -13 -13.5t-5 -11.5 q-25 -12 -53.5 -18t-59.5 -12.5t-60.5 -14.5t-56.5 -24q-20 0 -26 2h-10l-15 -2l-6 -4q-16 -25 -32.5 -75t-47.5 -140q-6 -49 -21.5 -91.5t-36 -81t-39.5 -76.5t-34 -79q-37 -14 -65.5 -19.5t-57.5 -5.5h-23.5t-37 2t-35.5 7.5t-22 15.5q37 49 65.5 109.5t51 125t39 131 t32.5 132.5l2 10h-10q-25 4 -46.5 4h-39.5q-70 0 -130.5 -13.5t-121.5 -41.5l-6 -7q-23 -66 -40.5 -118t-47.5 -105l-2 -4q-6 -18 -10.5 -56t-12.5 -75t-24.5 -64.5t-47.5 -27.5q-12 0 -20 10t-27 19q-16 6 -35.5 9t-36 10t-27.5 22.5t-11 50.5z" />
<glyph unicode="I" horiz-adv-x="497" d="M14 66q18 84 26.5 162.5t15.5 155.5t16.5 151.5t27.5 152.5q0 14 8.5 54t20.5 94.5t27.5 116t29 118.5t22.5 104.5t9 71.5q0 10 -7 21.5t-7 21.5q2 23 8 43.5t6 42.5q-2 14 -8 29.5t-6 32.5q0 12 7 20t30 12q-2 2 -2 7q0 10 12 14t30.5 5t37 0t30.5 3q59 -23 88 -88 t29 -141q0 -55 -16 -117h2q2 0 6 6q-20 -139 -51 -278.5t-61 -279.5t-53.5 -284t-31.5 -294q-20 -27 -48 -54.5t-44 -27.5q-6 0 -8 2q-2 -4 -8 -4q-12 0 -25.5 9t-27 19t-28 19.5t-26.5 9.5q-2 0 -10 -4q-2 10 -4 35.5t-17 38.5z" />
<glyph unicode="J" horiz-adv-x="940" d="M-20 246q0 18 11 34.5t19 32.5q6 14 22.5 40t37 52.5t43 46t41.5 19.5q8 0 19 -17.5t21.5 -42t17.5 -51t7 -45.5q0 -25 -7 -51t-7 -53q0 -23 8 -38t18 -15q12 0 31 15t38 36.5t37.5 45.5t31.5 38q23 27 33 60.5t22 64.5q29 68 48.5 138.5t41.5 135.5q45 139 71.5 294 t47.5 302q6 41 21.5 87t15.5 91q0 20 -6 43q12 49 41.5 75t82.5 36q0 -6 8.5 -10t20.5 -6t24.5 -4.5t18.5 -6.5q29 -12 55.5 -43.5t26.5 -60.5q0 -53 -13.5 -110.5t-29.5 -110.5q-8 -23 -16.5 -44.5t-16.5 -43.5q-10 -35 -15 -71t-11 -71q-8 -33 -20.5 -64.5t-16.5 -64.5 q-16 -109 -42 -219t-62.5 -215.5t-87 -206t-117.5 -186.5q-23 -29 -46.5 -58.5t-50 -54t-57.5 -41t-66 -16.5q-80 0 -131 22.5t-81.5 59.5t-45 84t-18.5 96q-2 16 -10 35.5t-8 36.5z" />
<glyph unicode="K" horiz-adv-x="1093" d="M-22 306q2 58 6 114q8 119 31.5 240.5t55 238.5t67.5 228.5t71 211.5q23 59 41 116.5t35 111.5q12 4 20 16l41 -4q10 -16 22.5 -32.5t22.5 -33.5q33 -45 55 -88q18 -34 18 -80q0 -12 -1 -26q-4 -51 -21.5 -99.5t-40.5 -101.5q-18 -43 -35.5 -87t-27.5 -91l-12 -49l47 18 q268 115 493 459q10 14 17.5 28.5t17.5 30.5q23 41 44.5 73t49.5 28q10 -2 27.5 -23.5t36 -53.5t32 -66.5t13.5 -61.5v-8q0 -51 -22 -105q-24 -58 -63.5 -109.5t-83.5 -100t-79 -85.5q-72 -76 -152.5 -131t-168.5 -110q10 -16 13 -34.5t13 -35.5q27 -51 54.5 -89t55 -69.5 t56.5 -59.5t59 -56q25 -20 48.5 -43t52.5 -49l4 -5l4 -2q16 -6 30.5 -4t24.5 6l2 3q12 -23 21.5 -50.5t17.5 -56.5q10 -29 18.5 -57.5t22.5 -53.5q-10 -59 -36.5 -85.5t-55.5 -26.5q-25 0 -39 14q-41 31 -104.5 89.5t-129 126t-124 135t-88.5 120.5l-4 6l-7 4 q-16 6 -37.5 29t-40 50.5t-33 56t-18.5 49.5l-6 45q-23 -10 -31 -12.5t-12 -2.5q-16 0 -26.5 -13t-17.5 -53t-12 -115t-11 -199q-4 -66 -7.5 -121.5t-7.5 -77.5q-10 -49 -31.5 -77t-33.5 -38q-2 -2 -4 -2q-2 4 -3 10.5t-3 10.5q-4 8 -7.5 17t-9.5 17q-8 14 -19.5 21.5 t-21.5 11.5q-10 2 -16 8q-25 33 -37 79q-12 45 -16 99q-3 40 -4 84v28z" />
<glyph unicode="L" horiz-adv-x="925" d="M-14 284q16 117 58 258.5t100.5 295t119 290t113.5 242t84 152.5q19 5 38 5q22 1 42 -7q37 -14 62.5 -43t37.5 -68q9 -29 9 -56q0 -9 -1 -18q-4 -18 -16 -31.5t-23 -29.5q-18 -33 -58 -117t-89 -191.5t-101.5 -229.5t-92.5 -231.5t-61 -194.5q-14 -58 -14 -92 q0 -16 3 -28q78 18 147.5 45t134 54.5t126 53.5t124.5 42q27 6 43 19.5t39 17.5q18 3 34 3q21 0 37 -5q28 -8 64 -21q-6 -27 -19.5 -48t-27.5 -41.5t-27.5 -42t-21.5 -48.5q-74 -31 -136.5 -78t-142.5 -78q-45 -18 -109 -49q-66 -30 -134 -52q-65 -21 -129 -20h-5 q-66 1 -118 46q-10 8 -21.5 23.5t-24 32.5t-22.5 34.5t-14 27.5q-15 37 -15 94q0 37 7 84z" />
<glyph unicode="M" horiz-adv-x="1642" d="M-70 27q0 8 4 24q10 53 22.5 114.5t25 118t20.5 100.5t10 62q2 35 17.5 68t15.5 61q0 6 -4 15q45 147 104.5 286.5t100.5 294.5q6 31 14 64t24.5 58.5t42 42t68.5 16.5q23 0 56.5 -5.5t56.5 -21.5q33 -23 54.5 -68t35.5 -102t20.5 -117.5t6.5 -109.5q0 -25 -6.5 -44.5 t-6.5 -49.5q0 -25 19 -27q20 0 39.5 22.5t29.5 36.5q127 127 254 242t246 233q33 29 61.5 55.5t60.5 46t68.5 32t86.5 12.5q47 -4 88 -24.5t63 -61.5q18 -33 31.5 -95.5t13.5 -115.5q-4 -29 -7 -55.5t-7 -53.5q-4 -47 -13.5 -92t-19.5 -90q-10 -39 -14 -77t-19 -77 q-23 -63 -45 -125.5t-45 -121.5q-16 -41 -27.5 -88.5t-19.5 -91.5t-12 -82.5t-4 -59.5q0 -18 5 -42.5t5 -47.5q0 -35 -20.5 -49t-49.5 -14q-35 0 -67.5 16t-59 44t-43 60.5t-16.5 67.5q0 66 5 103.5t12.5 63t16.5 47t17 54.5q14 90 42 171t55.5 163t49 167t25.5 185v13 l-10 -2q-18 0 -35.5 -11.5t-33 -28t-31 -35t-29.5 -32.5q-18 -20 -39.5 -36.5t-38.5 -41.5q-6 -14 -19.5 -26.5t-27.5 -26.5q-43 -41 -79 -65.5t-68.5 -48t-65.5 -51.5t-72 -71q-29 -33 -58.5 -69.5t-62 -68.5t-65.5 -53.5t-68 -21.5q-20 4 -41.5 20.5t-42 39t-39 48.5 t-32.5 48q-2 2 -7.5 22.5t-13.5 45t-18 44t-21 19.5q-12 0 -26.5 -30.5t-27.5 -71.5t-24.5 -82t-17.5 -64q-12 -35 -25.5 -96t-26.5 -132t-30.5 -143.5t-37 -132t-45 -96.5t-56.5 -37q-16 0 -42 12.5t-50.5 33t-42 44t-17.5 46.5z" />
<glyph unicode="N" horiz-adv-x="1355" d="M-70 143q0 90 44 196.5t102.5 212t115.5 201t84 165.5q14 43 32 93t38.5 99t44 94t51.5 78q4 8 22.5 15.5t45.5 12.5t54.5 8t49.5 3q20 0 40 -2t42 -10q31 -12 46.5 -51t23.5 -86.5t12 -93.5t10 -70q14 -66 21.5 -135.5t26.5 -133.5q31 -106 59.5 -192t56.5 -189 q10 35 15.5 84.5t17.5 89.5q12 45 34.5 113t47.5 138.5t45.5 137t30.5 113.5l2 13q4 25 9 49t9 47l8 37q8 35 11.5 65.5t13.5 54t31.5 37t66.5 13.5q29 0 54.5 -16.5t46 -41t32 -53.5t11.5 -53q0 -66 -26 -148t-42 -153l-4 -25q-14 -59 -35.5 -146t-48.5 -180.5 t-53.5 -179.5t-50.5 -141q-23 -37 -38.5 -76t-36 -70.5t-48 -52t-74.5 -20.5q-59 0 -107.5 41t-83 99.5t-58 125t-36.5 115.5q-20 78 -46.5 151.5t-53.5 151.5q-18 53 -30.5 107.5t-51.5 101.5q-6 0 -17.5 -24.5t-23.5 -55.5t-22.5 -57.5t-12.5 -28.5q-16 -59 -37.5 -115.5 t-56.5 -107.5q-47 -70 -80 -153t-67 -161q-20 -45 -39 -86t-35 -78q-31 -8 -72 -8t-88 8q-33 51 -33 123z" />
<glyph unicode="O" d="M-6 332q0 66 21.5 124t37.5 117q20 102 62.5 178t94.5 140.5t110.5 125t111.5 130.5q35 51 80 90t80 80q18 23 45 53.5t62.5 58t76.5 47t88 19.5q37 0 70 -12.5t64.5 -28.5t65.5 -32.5t73 -24.5q4 -10 12 -25.5t31 -19.5q10 -27 10 -52q0 -53 -38 -88.5t-85 -35.5 q-23 0 -39 8l-53 18q6 -35 9 -66.5t22 -62.5q25 -59 34 -122.5t9 -129.5q0 -59 -12.5 -129.5t-37 -141.5t-62.5 -134.5t-87 -108.5q-61 -55 -115.5 -124.5t-116 -131t-135 -104.5t-174.5 -43q-31 0 -68.5 17.5t-73.5 42t-63.5 52t-37.5 45.5q-31 55 -51.5 129t-20.5 142z M250 307q0 -12 10 -29.5t26.5 -33t37 -25.5t43.5 -10q37 0 82 28.5t88 67.5t78.5 78t52.5 57q29 37 50 82t35.5 94.5t21.5 100.5t7 98v19q-2 12 -3 25t-1 28q0 4 1 10t1 12q0 29 -22.5 72t-50.5 88v-6q0 -27 -43 -59.5t-101.5 -77.5t-121 -104.5t-101.5 -137.5 q-90 -182 -90 -377z" />
<glyph unicode="P" horiz-adv-x="1091" d="M-63 14q0 16 13 23.5t30 32.5q68 115 103.5 245.5t63.5 262.5l9 30q14 72 30.5 145.5t32.5 147.5v-2l-2 2q0 6 7 42t18.5 79t21.5 82t17 51l-15 10l-4 19q-25 0 -44 -16.5t-36.5 -35t-35 -35t-37.5 -16.5q-10 0 -25.5 7.5t-30 20.5t-24 31.5t-9.5 41.5t9.5 47t21.5 49 q49 102 158.5 151.5t253.5 49.5q100 0 212.5 -28t208 -76t159 -111.5t63.5 -135.5q0 -92 -48 -179t-126 -148l-27 -19q-78 -66 -145.5 -115t-130 -84.5t-121.5 -59t-121 -36.5h-8l-4 -8q-41 -68 -67.5 -146.5t-53.5 -155.5t-60.5 -144.5t-91.5 -114.5q-37 8 -67.5 13.5 t-52 13.5t-33.5 23t-12 46zM432 758l37 -4q0 -2 -2 -4v-2q8 10 28.5 23t45 25.5t48 26t38.5 23.5q18 12 60 38.5t86 64.5t78 88t34 112q0 43 -24.5 62.5t-53.5 35.5l-6 2q-68 35 -135.5 46.5t-116.5 11.5h-23l4 -23q6 -35 7 -65q0 -55 -13.5 -111.5t-32 -114t-36 -117 t-23.5 -118.5z" />
<glyph unicode="Q" horiz-adv-x="995" d="M-45 673.5v26.5q0 92 18.5 165t59.5 151q25 45 53.5 97t62 101.5t73.5 94.5t85 75q35 25 71 52.5t72.5 52t76.5 42t83 19.5q18 12 54 13q43 0 96 -17.5t99 -43t77 -58.5t31 -64q0 -33 -39 -71h2q4 0 10 -7.5t10 -16.5t8.5 -17t4.5 -11q2 -6 2 -18q0 -49 -17.5 -111.5 t-27.5 -119.5q-23 -106 -48.5 -207t-58.5 -205q-16 -49 -34.5 -97t-18.5 -102q0 -14 2 -22q41 16 78 22t84 37q8 4 10 4q10 0 19.5 -8t15.5 -19.5t10 -22.5t4 -17q0 -33 -21.5 -67t-46.5 -52q-8 -6 -29.5 -18.5t-48 -25.5t-50 -23.5t-33.5 -10.5q-8 0 -15.5 3t-15.5 1 q-25 -6 -45.5 -43t-36.5 -83t-30.5 -90t-28.5 -66q-27 -41 -42.5 -91.5t-26.5 -104.5t-24.5 -108.5t-35.5 -105.5q0 4 -13 4q-25 0 -60 -3q-17 -1 -33.5 -1t-32.5 1q-31 3 -54.5 15.5t-23.5 44.5q0 27 10 49.5t23.5 46t26.5 47t19 52.5q12 51 26.5 102.5t29.5 104.5 q4 16 14 37.5t19.5 44t15.5 45t6 41.5q0 4 -8 7t-19.5 4t-22.5 1h-20q-31 0 -63.5 -2t-65.5 -2l-29 3q-28 3 -61 14.5t-60.5 34t-27.5 61.5q0 41 41 54t84 13q25 0 47.5 -2t36.5 -2q8 0 36 2t61.5 5t66.5 6t55 3q23 0 25 -2q-2 2 -2 7q0 4 3 8t3 8q0 6 5 22.5t11 35t12.5 36 t10.5 25.5q33 86 60.5 169t47.5 169q-4 4 -2 8l-127 -160q-27 -33 -67.5 -62.5t-87.5 -53t-94.5 -37t-84.5 -13.5q-29 0 -65.5 4t-52.5 15q-16 10 -28.5 21t-35.5 15q-10 0 -18 15.5t-14.5 35t-10.5 39t-6 27.5q-4 12 -4 24.5zM188 688q4 -2 7.5 -2t3.5 -4q57 35 107 70.5 t96.5 73.5t89.5 83t86 99q6 8 39.5 46t70.5 84t66.5 91t29.5 71q0 14 -14 24.5t-32.5 17t-36 9.5t-23.5 3q-55 0 -95 -19.5t-87 -48.5q-57 -72 -117 -144.5t-103 -152.5q-41 -78 -64.5 -146.5t-23.5 -154.5z" />
<glyph unicode="R" horiz-adv-x="1210" d="M-72 -59q0 37 10.5 74.5t20.5 72.5q8 33 17.5 66.5t29.5 62.5q8 10 8 32.5t4 35.5q35 190 101.5 362t138.5 344q43 102 84 209t61 195q8 33 19.5 54t62.5 21q14 0 26.5 -6t24 -14t21.5 -14t21 -6q23 0 49 21.5t53 31.5q37 14 75 22t79 8q45 0 79 -8q31 -41 72 -62.5 t78 -46t63.5 -64.5t26.5 -118q0 -106 -37 -186t-95 -144.5t-129 -116.5t-140 -103q-16 -12 -38 -27.5t-42.5 -30t-34.5 -26t-14 -13.5q0 -14 13 -28.5t31.5 -28.5t39 -27.5t34.5 -25.5q39 -33 74 -70t69 -75t68.5 -73.5t75.5 -66.5q25 -18 51.5 -31.5t48.5 -34.5 q10 -8 16.5 -18t16.5 -14t16.5 -6t12.5 -5q23 -27 22 -59q0 -41 -22.5 -71.5t-67.5 -30.5q-61 0 -126.5 29.5t-102.5 64.5q-66 59 -133.5 113.5t-130.5 111.5q-59 53 -114.5 105.5t-102.5 107.5q-8 10 -16.5 24.5t-20.5 20.5q-33 -66 -53.5 -122t-38 -111.5t-35 -115.5 t-41.5 -132q-6 -18 -16.5 -44t-21.5 -48.5t-24.5 -37.5t-27.5 -15q-16 0 -36 9t-34 15q-16 6 -36.5 8t-39 6.5t-31 15.5t-12.5 34zM442 754q49 4 91 31.5t85 50.5q66 33 123.5 97t100.5 120q12 14 29.5 40.5t35 56.5t29.5 61.5t12 60.5t-19.5 52.5t-66.5 23.5 q-51 0 -93 -18.5t-74.5 -42t-52.5 -46.5t-24 -31q-20 -53 -46.5 -101t-49.5 -99q-4 -10 -15 -51t-24.5 -87.5t-25 -82t-15.5 -35.5z" />
<glyph unicode="S" horiz-adv-x="901" d="M-61 -70.5q0 19.5 6 36t17 28.5t32 12q41 0 73.5 10.5t69.5 30.5q31 16 66 39q29 16 54.5 36.5t51.5 43.5q47 41 92 87t74 99q14 27 10 56.5t-19 57.5t-36.5 51.5t-42.5 37.5l-61 49q-35 31 -72 59.5t-68.5 61.5t-55.5 71t-32 87q-3 21 -3 41q0 16 2 32q5 34 14 68 q8 33 18 64.5t29 60.5q16 29 31.5 55.5t31.5 55.5q33 57 86 107t101 95q47 43 103 77t122 34q29 0 66.5 -7t60.5 -26q23 -18 39 -32.5t39 -30.5q53 -29 73 -93q9 -26 9 -50q0 -41 -25 -77l-8 -3t-18.5 -6t-19.5 -6t-11 -3q-16 2 -40 14.5t-40 20.5q-8 4 -17.5 8t-19.5 4 q-11 2 -23 -2q-27 -6 -50 -24.5t-42 -34.5q-29 -25 -56.5 -51.5t-53.5 -55.5q-23 -25 -45.5 -46t-42 -44.5t-31.5 -50.5t-15 -62q4 -33 24 -63.5t47.5 -59t59 -53t60.5 -45.5q29 -18 54.5 -34.5t45.5 -41.5q14 -16 44 -39.5t42 -43.5q29 -49 35 -79q4 -18 4 -41 q0 -16 -2 -34q-2 -41 -19.5 -80t-41.5 -72q-72 -104 -168 -200q-45 -47 -97.5 -90t-107.5 -78q-29 -16 -53.5 -31.5t-55.5 -26.5q-16 -6 -30.5 -13t-30.5 -11t-31.5 -4h-31.5h-8.5h-13.5t-12 -1l-5 -1q-18 14 -39 25.5t-39.5 24.5t-31.5 30.5t-19 42.5q-2 14 -2 33.5z" />
<glyph unicode="T" horiz-adv-x="1267" d="M-135 1329l49 -8q47 -10 97 -13t104 -3q178 0 351 37.5t343 84.5l22 7q4 10 7.5 22t7.5 25q10 37 23.5 76.5t31 72.5t41 54.5t55.5 21.5q57 0 115 -72l6 -8l2 -12q2 -29 -4 -48.5t-14 -35.5l-4 -8t-4 -9q35 2 69.5 14.5t71.5 28.5q35 16 68.5 28.5t68.5 19.5q10 2 21.5 3 t25.5 1t41 -2t55.5 -9.5t53.5 -22.5t37 -40q6 -14 6 -35v-11q-2 -28 -35 -67q-41 -45 -96.5 -55t-108.5 -14q-39 0 -65 -6q-25 -4 -65 -13.5t-80 -18.5t-73.5 -19.5t-48.5 -16.5q-47 -123 -106.5 -264.5t-124 -288.5t-134 -296.5t-138.5 -291.5q-16 -29 -31 -67 q-18 -43 -42 -92.5t-52.5 -90.5t-63.5 -67.5t-80 -26.5q-35 0 -63 14l-15 7l-4 14q-20 45 -20 120q0 21 2 44v8l4 6q12 27 32.5 37t45.5 6h2q43 98 89 193.5t91 187.5q90 182 176 370.5t154 395.5q-39 -8 -82 -20.5t-90 -26.5q-72 -23 -146.5 -41t-146.5 -25 q-23 -2 -53.5 -4t-61.5 0q-29 0 -77 3t-97 21.5t-89 59.5t-48 117z" />
<glyph unicode="U" horiz-adv-x="901" d="M-25 393q0 74 5.5 149.5t15.5 147.5q6 41 20.5 80t18.5 80q4 31 3 62.5t11 62.5q8 23 23.5 50.5t37 52t47 42t54.5 17.5q27 0 53.5 -14.5t48 -38t35.5 -52t14 -57.5q0 -16 -6 -33.5t-15 -36t-18.5 -36t-15.5 -31.5q-43 -125 -62.5 -251t-19.5 -259q0 -41 12.5 -75 t55.5 -34q49 0 90 35t73.5 84t58.5 103.5t46 93.5q39 74 64.5 177t51 196t59.5 159t89 66q27 0 45.5 -13.5t30.5 -34t17.5 -43t5.5 -41.5q0 -23 -4.5 -46t-4.5 -46q0 -16 6.5 -30.5t6.5 -32.5q0 -23 -15.5 -64t-23.5 -82q-12 -59 -37 -111t-47 -110q-12 -33 -33.5 -60.5 t-36.5 -56.5q-27 -55 -65.5 -109t-82.5 -104.5t-90 -97.5t-87 -88q-8 -6 -28 -12t-41.5 -11.5t-40.5 -8.5t-26 -3q-33 0 -58.5 10.5t-49 27t-44 35.5t-40.5 38q-37 33 -58.5 75t-31.5 87t-13.5 94t-3.5 98z" />
<glyph unicode="V" horiz-adv-x="1081" d="M-4 1249q0 70 32.5 91.5t82.5 21.5q35 0 64.5 -32t53 -79t37 -102t13.5 -102v-19q0 -45 1 -92t1 -94q0 -31 -1 -60.5t-1 -58.5q0 -39 -9.5 -78t-9.5 -80q0 -66 14.5 -97.5t16.5 -45.5h6q4 0 11 4t26.5 31.5t57.5 88t106 171.5l8 12q41 66 79 134.5t79 133.5l4 7 q4 8 12 20q47 61 93 124.5t87 133.5q10 18 22.5 59t32 83t51 74t81.5 32q25 0 41 -12.5t27 -31t16.5 -39t5.5 -36.5q0 -49 -25 -105.5t-58.5 -116t-72.5 -119.5t-66 -116q-20 -51 -47.5 -93t-55.5 -82t-51.5 -82t-35.5 -97q-14 -59 -44 -101t-52 -89q-35 -72 -75 -142.5 t-83 -140.5q-10 -16 -26.5 -54t-37 -77t-47 -68.5t-57.5 -29.5q-39 0 -71.5 25.5t-67.5 84.5q-57 94 -87 187.5t-43.5 197t-15.5 219t-2 252.5v111q0 63 -10 139t-10 135z" />
<glyph unicode="W" horiz-adv-x="1464" d="M-27 387q0 168 37 336t84 330q16 59 29.5 117.5t27 104.5t28 74.5t32.5 28.5q39 0 62.5 -15t42 -39t36 -50.5t45.5 -48.5q-10 -31 -19 -79t-18.5 -103.5t-21.5 -115t-29 -112.5q-14 -47 -34.5 -92t-39 -91t-30.5 -93t-12 -99v-37.5t16 -21.5q23 0 33 17.5t20 31.5 q49 72 89 158t93 160q14 20 27.5 43.5t28 45t33 36t47.5 18.5q16 -25 36.5 -38t38.5 -24q53 -31 70.5 -74.5t17.5 -115.5v-279v-31.5t1 -38t5.5 -30.5t12.5 -10t22.5 20.5t30.5 44t33.5 53t30.5 46.5q53 78 89 170t81 176q27 49 62.5 96t62.5 94q23 39 33 58.5t15 26.5 t8 10.5t8 10.5t16.5 25.5t33.5 57.5q31 62 68 62h1q38 -1 71.5 -29.5t61.5 -64.5t38 -42q0 -12 -6 -29.5t-14.5 -34t-16.5 -31t-14 -20.5q-70 -98 -105 -163.5t-62.5 -125t-59 -128t-95.5 -173.5q-39 -63 -72 -139t-86 -129q-16 -25 -35.5 -58.5t-42 -65t-48 -54.5 t-56.5 -23q-39 0 -83 30t-84 72t-71.5 89t-44.5 84q-6 18 -8 34.5t-4 32t-6 31t-14 35.5l-13 23l-14 -21q-12 -18 -30.5 -44t-41 -52.5t-44 -54t-40.5 -50.5q-12 -16 -28.5 -40.5t-36 -46t-41 -37t-43.5 -15.5q-68 10 -106.5 57.5t-58 112t-25 134t-5.5 122.5z" />
<glyph unicode="X" horiz-adv-x="1243" d="M-35 35q14 43 39 74.5t55 66.5l13 12q59 59 102 127t94 127l15 17q10 12 26.5 30.5t31.5 40t26.5 44t11.5 42.5q0 18 -5 38t-9 38q-18 61 -28.5 138t-27 157t-42 159t-74.5 148q-6 18 -7 35q0 45 35 69.5t88 24.5q74 0 120 -30.5t76 -78.5t44 -107.5t24 -114.5l2 -11 q10 -68 20.5 -107.5t19 -61t16.5 -27.5t14 -6q12 0 30.5 20.5t40 51t45 65.5t42.5 61q27 37 59.5 85t75.5 95.5t97.5 86t123.5 55.5h4q6 2 20.5 5t24.5 3q20 -27 41 -41t37.5 -30.5t27.5 -41t11 -67.5q0 -47 -19.5 -75t-47 -50.5t-59.5 -46t-58 -58.5q-21 -31 -31 -41 q-20 -16 -32.5 -27t-27 -26.5t-33 -37t-51 -60.5t-80.5 -97.5t-122 -144.5l-8 -10q-20 -23 -37 -48.5t-17 -60.5q0 -29 10.5 -74.5t28 -102t39 -119t45.5 -121.5l17 -41q14 -35 32.5 -78t47.5 -72l8 -4q10 0 18 2t17 2q29 0 48 -22.5t30.5 -53t16.5 -63.5t5 -55 q0 -25 -6 -54.5t-17.5 -55.5t-27 -44t-35.5 -18q-35 0 -54.5 14t-41.5 37q-29 27 -47.5 43t-30.5 29.5t-22.5 27.5t-22.5 41q-20 41 -40 73t-40 68l-10 21q-10 18 -23.5 38.5t-17.5 37.5q-18 23 -29.5 60.5t-28.5 84.5q-16 47 -30.5 92t-30.5 94l-8 23l-13 -21 q-29 -55 -74.5 -100t-84.5 -110q0 -2 -4 -12.5t-9.5 -23t-11.5 -23.5t-10 -13q-37 -18 -52.5 -27.5t-26.5 -14.5t-26.5 -7t-52.5 -8q-27 37 -76 71.5t-96 69.5z" />
<glyph unicode="Y" horiz-adv-x="954" d="M-16 510.5v38.5q0 33 2 77t5 93t9 97t12 89q4 27 12.5 61.5t15.5 71.5t13 72t6 64q6 -2 21 -3q39 0 77 18.5t64 18.5q8 0 17 -4q18 -18 30.5 -28.5t20.5 -18.5t12 -16t4 -21q0 -27 -13 -71.5t-24 -79.5q-16 -49 -24 -104.5t-13.5 -111t-6.5 -107.5t-1 -97 q0 -27 7.5 -45.5t31.5 -18.5q41 0 80 39t70.5 93.5t58.5 109.5t43 88q18 39 46 85t55.5 94t54 97.5t43.5 92.5q6 4 16 13t12 32q8 4 33 10t60 6q74 0 133 -47q-4 -12 -6.5 -29.5t-2.5 -33.5v-15.5t5 -17.5q-6 -45 -15.5 -98.5t-19.5 -109.5t-19.5 -110.5t-15.5 -99.5l-6 2 q-27 -90 -67 -169t-68 -167q-18 -53 -31.5 -107.5t-30.5 -107.5q-86 -248 -131 -493.5t-63 -499.5q0 -8 -1 -17.5t-1 -33v-64.5t2 -110q0 -16 1 -39t1 -52q0 -35 -3 -43t-3 -28l-7 4l-12 -25q-10 -23 -35.5 -27.5t-77.5 -4.5h-4q-14 0 -23 -2.5t-22 -2.5l-6 3q-16 4 -18 10 t-13 10q-18 27 -22 102q-2 34 -2 73q0 49 3 107q5 105 19.5 227t30.5 243.5t35.5 233.5t36 191.5t28 120.5t15.5 21l2 6q14 43 31.5 85t35 90t36 104.5t34.5 130.5q-31 -49 -56.5 -89t-57 -68t-76.5 -43t-113 -15q-39 0 -81 12t-79 37q-10 6 -20.5 24.5t-21.5 41t-23.5 44 t-24.5 31.5q0 12 -4 23.5t-8 19.5q-8 20 -8 37.5z" />
<glyph unicode="Z" horiz-adv-x="1042" d="M-31 1149q0 23 5.5 47.5t15.5 44.5q12 27 41.5 39t64.5 17.5t72 6.5t63 7q82 16 176.5 25.5t180.5 9.5q66 0 137.5 -8.5t126.5 -24.5q20 -6 38.5 -17.5t39.5 -17.5q25 -8 51.5 -21.5t49 -32t37.5 -44t15 -58.5q0 -29 -13 -54.5t-32.5 -49t-41 -44t-40.5 -38.5 q-31 -31 -61.5 -62.5t-60.5 -60.5q-8 -8 -29 -27.5t-41.5 -39t-36.5 -32t-16 -7.5q0 -4 2 -7.5t2 -7.5v-4q-61 -51 -110.5 -109.5t-92.5 -122t-83 -130t-81 -131.5q2 -6 8 -8.5t12.5 -2.5t11.5 -2t5 -8v-2q4 12 14 12q4 0 6.5 -1t4.5 -1t2 2q0 8 -4 17q6 -12 26 -13 q35 0 100.5 26t132 58.5t121 62.5t68.5 38q29 14 58.5 31.5t58.5 17.5q41 0 60.5 -34t19.5 -58q0 -49 -27 -86t-65.5 -67t-82.5 -52.5t-79 -40.5q-49 -27 -98.5 -50.5t-100.5 -43.5q-31 -12 -68.5 -30.5t-78.5 -34t-83 -27t-81 -11.5q-47 0 -88 26t-71 64.5t-47 85t-17 84.5 q0 68 25.5 116t58.5 97q49 74 107 139.5t112 131.5q37 47 65.5 99t69.5 97q41 41 74.5 84t68.5 90q25 33 57.5 59.5t55.5 57.5q-12 2 -23.5 3t-23.5 1q-70 0 -141.5 -20.5t-133.5 -32.5q-35 -8 -74.5 -17.5t-77.5 -21.5t-72 -27.5t-58 -35.5q-16 -14 -29.5 -23.5t-32.5 -9.5 q-37 0 -60.5 22.5t-37.5 56.5t-20.5 70.5t-6.5 65.5z" />
<glyph unicode="[" horiz-adv-x="651" d="M70 -369q18 131 27 256t15.5 247t15.5 241t28 239q10 53 28.5 126t22.5 139q0 6 -3 9t-4 8t1 11t14 17q-6 80 2 149.5t20.5 137t23.5 137t11 147.5q0 18 -7 34.5t-7 33.5q2 37 10 68.5t4 68.5q0 18 -5 42.5t-7 46t5 39t30 21.5q-4 20 7 28.5t29.5 10.5t39 2t32.5 4 q2 -10 9.5 -21t14.5 -17.5t12 -6.5t7 11q10 -14 17 -29q129 25 267.5 30t279.5 5q14 -35 33.5 -61.5t34 -52.5t19.5 -54.5t-7 -67.5q-16 -16 -32 -20t-33 -1t-34.5 8t-36.5 9q-53 8 -77.5 4t-51.5 -8q-76 -12 -154.5 -13t-152.5 -3q4 -63 0 -129t-14 -131q4 0 8 6 q-18 -201 -46 -398.5t-55.5 -398.5t-51 -405.5t-35.5 -415.5q63 4 125.5 9t121.5 13q14 2 27.5 4t28.5 4q18 4 37.5 5.5t40.5 5.5q4 0 9 1t9 1q78 12 90 4q14 -20 35.5 -25.5t38.5 -7.5h8q-2 -14 4 -24q-4 -14 -7 -28.5t-1 -31.5q0 -12 2 -25.5t4 -25.5q2 -10 3 -18.5 t1 -16.5l2 -8q0 -10 -2 -10v-2h-4q-8 -4 -17.5 -7.5t-17.5 -13.5q-6 -6 -8 -10q-4 0 -8 1t-8 1q-76 6 -152 2t-149 -12q-14 0 -42 -2t-63 -3t-72.5 -3.5t-74.5 -4.5q-20 -35 -40 -57t-30 -12q-6 -12 -15.5 -1t-19.5 23.5t-20 15.5t-19 -26q0 6 -4 20.5t-12 29t-16.5 21.5 t-16.5 -3q-2 6 -3 21.5t-3 32.5t-6 33.5t-10 26.5zM512 1352v6v-6z" />
<glyph unicode="\" horiz-adv-x="823" d="M-6 1530q0 55 32.5 106.5t79.5 73.5q29 14 56 14q29 0 53.5 -14t42.5 -35.5t31.5 -46t23.5 -43.5q45 -98 79 -216t64.5 -239.5t65.5 -242.5t84 -228q4 -23 14.5 -62.5t21.5 -80.5t21.5 -74.5t12.5 -40.5q14 -29 43 -45t59.5 -31.5t59 -35t45.5 -51.5q4 -8 3 -27t1 -27 q16 -35 26.5 -71.5t10.5 -71.5q0 -53 -26 -97t-83 -73q-12 -6 -24 -6q-31 0 -64 26.5t-59.5 59.5t-45 62.5t-22.5 35.5q-31 68 -78 209t-103.5 312t-117.5 345.5t-121 307.5q-4 6 -30.5 44t-57.5 82t-56.5 79.5t-27.5 39.5q-14 35 -14 62z" />
<glyph unicode="]" horiz-adv-x="608" d="M-428 -430l2 8q0 8 1 16.5t3 18.5q2 12 4 25.5t2 25.5q2 16 -1 30.5t-7 29.5q6 10 4 24h8q16 2 38 7t36 26q12 8 90 -4q4 0 9.5 -1t9.5 -1q20 -4 39.5 -5t37.5 -6q14 -2 27.5 -4t28.5 -4q59 -8 121.5 -13t126.5 -9q6 145 18 342.5t21.5 418t9.5 444.5t-19 425q2 -6 8 -6 q-10 66 -14 131t0 129q-74 2 -152.5 3t-154.5 13q-27 4 -51.5 8.5t-77.5 -4.5q-18 -4 -35.5 -9t-35 -8t-34 1t-30.5 20q-12 39 -7 68t19 54.5t34 52t34 61.5q141 0 279 -5t267 -30q6 14 17 29q2 -10 7 -10t12 6t13.5 17t10.5 22q12 -4 32.5 -4t39 -2.5t29.5 -10.5t7 -28 q23 -4 30 -21.5t5 -39t-7 -46t-5 -43.5q-4 -37 4 -68.5t10 -68.5q0 -16 -7 -32.5t-7 -35.5q0 -78 3 -148.5t5 -139t1 -139t-7 -150.5q-2 -41 -4 -121t-4 -185.5t-4 -230.5t-4 -255t-3.5 -260t1.5 -247q-6 -10 -10.5 -26.5t-6.5 -33.5t-3 -32.5t-3 -21.5q-8 10 -16.5 3 t-16.5 -21.5t-12 -29t-4 -20.5q-8 29 -18.5 26t-20.5 -15.5t-19.5 -23.5t-15.5 1q-10 -10 -29.5 12.5t-40.5 56.5q-37 2 -74.5 4.5t-72.5 3.5t-62.5 3t-41.5 2q-74 8 -150 12t-151 -2q-4 0 -8.5 -1t-8.5 -1q-2 4 -8 10q-8 10 -17.5 13.5t-17.5 7.5h-4v2q-2 0 -2 10z M182 1364v6v-6z" />
<glyph unicode="_" horiz-adv-x="1024" d="M0 -311h1024v-172h-1024v172z" />
<glyph unicode="`" horiz-adv-x="1024" d="M223 1442v20q41 12 73 30.5t64 18.5q31 0 54.5 -21.5t43 -52t36 -65.5t30.5 -61q47 -84 73.5 -142.5t55.5 -101.5q8 -10 9 -23q0 -33 -52 -32q-31 0 -70.5 15t-111.5 75q0 20 -18.5 28.5t-30.5 22.5q-41 47 -70.5 77t-48 57.5t-28 62t-9.5 92.5z" />
<glyph unicode="a" horiz-adv-x="1183" d="M12 68q43 123 87 223t87 194q23 51 47.5 103.5t47.5 109.5q10 4 14 10.5t6 10.5l2 2l4 -2l39 -17l-14 41q-4 10 2 23.5t16 34.5q10 20 20.5 43.5t14.5 52.5q51 14 89 76.5t75 134.5q18 39 38.5 78t43 69.5t48.5 49t54 18.5q33 0 66 -20l14 -9l10 13q20 27 26.5 50 t12.5 64l2 2q31 31 68 31h8q41 -4 78 -45q36 -35 54 -84q16 -42 15 -83v-13q-4 -47 -20 -93t-35 -89q-12 -29 -21.5 -54.5t-13.5 -48.5q-5 -32 -5 -62v-10q1 -36 5 -65q2 -10 2 -16.5v-12.5l2 -16l15 -2q16 -1 32 -1q27 0 51 4q38 7 72 15q31 8 60 14.5t61 4.5 q4 -18 13.5 -37t19.5 -41l2 -2q0 -53 -13.5 -77t-35.5 -50q-10 -12 -21.5 -25.5t-21.5 -29.5q-41 0 -73 -10.5t-60 -20.5q-23 -10 -46.5 -17.5t-51.5 -11.5l-15 -2l-2 -16v-13q1 -82 23 -150q24 -73 53 -142q23 -53 41 -106.5t22 -108.5q-10 -4 -17 -10.5t-15 -10.5 q-16 -12 -43 -27q-41 20 -72 55.5t-53.5 80.5t-41 96t-36.5 104q-23 66 -45.5 131.5t-57.5 118.5l-6 8h-12q-11 -1 -21 -1q-26 0 -44 8q-24 10 -46 22q-23 12 -47 21.5t-61 5.5h-8l-6 -9q-43 -70 -79 -137t-69 -143t-64.5 -164t-62.5 -199q-29 -12 -51 -12q-25 0 -44.5 12.5 t-34.5 32t-27.5 45t-24.5 51.5q-6 14 -12.5 27.5t-12.5 24.5z" />
<glyph unicode="b" horiz-adv-x="970" d="M-53 995q14 61 42.5 89t57.5 44.5t50.5 31t21.5 48.5q0 43 -8.5 63.5t-8.5 39.5q2 4 8.5 8t10.5 8l6 4q14 8 24.5 11.5t26.5 3.5t40 -3.5t30 -9.5l4 -4h8q4 0 13.5 2t48.5 21q78 37 155.5 52t149.5 15q51 0 112.5 -13t102.5 -52q2 -2 12 -8.5t22.5 -20.5t22.5 -34.5 t10 -49.5q0 -35 -26.5 -70.5t-65.5 -72.5t-80 -74t-69 -70q-92 -57 -170 -123.5t-166 -132.5l-8 -4l2 -10q2 -6 20.5 -13t46 -12.5t61 -9.5t66.5 -4q23 0 51.5 -3t58 -7t57.5 -8t46 -9q37 -8 91.5 -27.5t104.5 -55t87 -91t37 -137.5q0 -57 -39 -90l-19 -14 q-20 -16 -41.5 -33.5t-44.5 -34.5q-18 -14 -36.5 -30.5t-41.5 -26.5q-117 -53 -241.5 -82t-261.5 -29q-14 0 -27.5 1t-28.5 1q-12 18 -28.5 28.5t-32.5 20t-30.5 18.5t-24.5 21l-33 43l4 -37h-21q-14 0 -23 -7t-17 -7h-3q2 0 -13 5t-35.5 11.5t-37 11.5t-14.5 5t0 -3t-2 1 t3 23.5t13 62.5q39 170 52 323q0 23 6 52q16 86 27.5 168t11.5 165q0 14 7 32t7 38q0 27 -12.5 34t-16.5 7t-21.5 2t-36.5 3t-35.5 3t-18.5 2zM199 156h18q150 0 266.5 22.5t208.5 77.5q4 2 25.5 9t46 18.5t44 28t19.5 38.5q0 27 -25.5 47.5t-60 33.5t-72.5 19.5t-65 6.5 q-14 2 -55 9t-88 15t-88 13.5t-54 5.5q-14 0 -31.5 -39t-32.5 -93.5t-28.5 -108.5t-21.5 -85zM385 1077q0 -16 5 -29.5t22 -13.5q18 0 41.5 20.5t46.5 43.5l6 6q25 23 51 51l4 4q10 12 19.5 25.5t9.5 27.5t-18.5 26.5t-41.5 12.5q-55 0 -91 -32.5t-46 -73.5v-6 q-4 -16 -6 -31.5t-2 -30.5z" />
<glyph unicode="c" horiz-adv-x="907" d="M-18 380q-1 17 -1 33q0 33 3 66q4 49 16 101.5t41 111.5q14 31 42 85t67.5 116.5t90 128t111 118t130 86.5t145.5 34q66 0 112.5 -20.5t80.5 -47.5t55.5 -51.5t35.5 -30.5l2 -2q6 -8 12.5 -14.5t12.5 -14.5q8 -16 8 -24q0 -29 -34.5 -53.5t-69.5 -24.5h-19h-20 q-53 0 -103.5 20.5t-111.5 57.5q-10 -12 -31.5 -24.5t-38.5 -26.5q-86 -74 -149.5 -156t-104.5 -164t-61.5 -155.5t-20.5 -129.5q0 -72 14.5 -127t51.5 -92q12 -14 32.5 -22t36.5 -8t44 11t62 28.5t73 39t79 41.5q90 47 146.5 75t81.5 28q10 0 25.5 -12.5t28.5 -32t23.5 -42 t10.5 -40.5q0 -23 -14.5 -37t-36 -25.5t-47 -17.5t-48.5 -12q-45 -10 -107.5 -49t-130 -82t-132 -77t-113.5 -34t-99 25.5t-90 72.5t-64.5 113.5t-24.5 150.5q0 56 -2 106z" />
<glyph unicode="d" horiz-adv-x="880" d="M-30 -46q-2 9 -1 18q0 10 2 22q4 22 11.5 43.5t11.5 36.5q14 53 21.5 107.5t27.5 107.5q25 61 55.5 116.5t44.5 120.5q14 59 25.5 120t34.5 120q29 72 63.5 133.5t50.5 134.5q16 70 39 138.5t58 132.5q4 10 16 22t12 23q0 14 -14 23t-32.5 16.5t-37 11.5t-28.5 8 q-41 12 -78 25.5t-62 33.5q-26 22 -38 52q-6 16 -5 34q0 19 5 41q47 27 106 27q39 0 78 -9t80 -22q53 -14 109.5 -23t103.5 -40q27 -16 41 -37t24 -47q14 -35 31.5 -64.5t38.5 -60.5q31 -47 60.5 -97.5t43.5 -105.5q10 -39 14.5 -77.5t6.5 -77.5q0 -78 -11.5 -155 t-27.5 -149q-31 -127 -85 -240.5t-120 -223.5q-43 -53 -95 -109.5t-112.5 -105t-128 -79t-141.5 -30.5q-88 0 -176 53q-18 12 -22 32zM254 197q80 31 137.5 74.5t97.5 121.5q23 47 56 92t43 99q10 49 29.5 95t33.5 93q2 6 3 11.5t3 11.5q4 25 6.5 51t2.5 53q2 25 2 59.5 t-6.5 67.5t-22.5 59.5t-49 34.5l-6 2l-4 -6q-98 -195 -165 -399.5t-136 -435.5q-6 -20 -12.5 -41t-12.5 -43z" />
<glyph unicode="e" horiz-adv-x="968" d="M-123 1362q154 47 334 74.5t352 50.5q45 6 96.5 15t103.5 16q51 6 103 8h21q40 0 78 -6q6 -2 13 -3t13 -4q35 -10 74 -18t75 -22.5t64.5 -37t44.5 -61.5q-2 -20 -8 -32.5t-16 -26.5q-2 -4 -4 -6t-4 -6q-29 -2 -58 -2.5t-61 -0.5h-88q-33 0 -65 -1t-67.5 -5t-78.5 -11 t-97 -21q-24 5 -44 5q-12 0 -24 -2q-30 -5 -63 -16q-33 -10 -75 -18l-17 -4v-17q2 -37 2 -65.5t-3 -55t-7 -52t-10 -56.5l-4 -20l18 -3q16 -4 30.5 -4h31.5q84 0 159.5 22.5t147.5 51.5q53 23 104 39t103 23q8 -23 14 -62q2 -13 2 -25q0 -24 -8 -45q-2 -2 0 -11t-2 -9 q-12 -23 -58.5 -51.5t-103.5 -58t-111.5 -53t-81.5 -34.5q-41 -16 -79.5 -31.5t-79.5 -33.5q-10 -6 -18.5 -14.5t-12.5 -14.5q-8 -12 -12 -14q-20 -12 -40 -15.5t-38 -7.5q-16 -4 -31.5 -7t-28.5 -13q-35 -31 -53 -75t-24 -97q-5 -45 -5 -98v-18q1 -62 5 -126l2 -63l26 16 q137 80 253 200t206 261q8 -10 20.5 -18.5t34.5 -6.5q33 -63 33 -122q0 -7 -1 -15q-5 -66 -33.5 -125t-73.5 -113.5t-88 -103.5q-12 -14 -40 -38.5t-58.5 -53.5t-60.5 -57.5t-46 -49.5q-84 -46 -153 -46q-86 0 -148 73q-45 55 -70 138t-35 174q-7 65 -7 129q0 25 1 51 q4 90 19 155q12 59 13 128v28q0 55 -3 110q39 8 61.5 32t35.5 56.5t19.5 70.5t10.5 75l6 55l6 37l-33 -16q-37 -18 -82 -19q-57 0 -109 25.5t-85 70.5q-16 23 -28 60q-6 19 -7 41q0 22 6 47z" />
<glyph unicode="f" horiz-adv-x="1026" d="M-129 567q37 23 74 34t74.5 18.5t76.5 13.5t80 18q14 74 30.5 138.5t31 128t22.5 128.5q6 53 6 111v29q-68 -18 -125 -20q-7 -1 -14 -1q-49 0 -90 15q-47 18 -81 57t-52 104q8 20 27.5 27.5t46 8.5t55 1t53.5 6q29 6 47.5 12.5t59.5 12.5q92 10 205.5 30.5t246.5 35.5 q45 4 106.5 10t126 11t126.5 6h23q47 0 81 -3q20 -2 53 -23.5t55 -49.5t22 -56q0 -27 -40 -45q-14 -4 -38.5 0t-43.5 0q-76 -6 -157.5 -19.5t-163.5 -28.5t-160 -28.5t-146 -21.5q11 -64 11 -117v-14q-2 -58 -11.5 -113t-26 -115.5t-30.5 -134.5q55 0 124 16.5t141.5 31 t146.5 16.5h8q70 0 131 -31q1 -9 1 -18q0 -42 -16 -67q-20 -30 -55.5 -48.5t-82 -29.5t-95.5 -28q-90 -29 -189.5 -60.5t-197.5 -70.5q-25 -82 -44 -152.5t-36.5 -141t-35 -145.5t-39.5 -163q13 -32 13 -60q0 -21 -7 -41q-17 -46 -72 -56q-14 6 -25.5 14t-23.5 15 t-28.5 11.5t-39.5 2.5q-27 87 -27 154q0 9 1 18q4 73 24.5 141t47 140.5t38.5 172.5q-35 6 -70.5 21.5t-67.5 41t-55.5 63.5t-29.5 87z" />
<glyph unicode="g" horiz-adv-x="1038" d="M-47 565q0 12 6 29.5t10 28.5q10 51 20.5 93t24.5 85q23 68 45.5 134t57.5 130q16 31 48 71t65.5 83t62.5 83.5t39 75.5q23 23 51.5 39.5t73.5 20.5q12 -12 24.5 -20.5t22.5 -21t16 -31.5t6 -52t-6 -66t-10 -65q0 -4 -16.5 -20.5t-36 -35t-37 -35t-19.5 -18.5 q-23 -23 -36 -45q-20 -25 -55.5 -72t-68 -105t-56 -122.5t-23.5 -120.5q0 -10 1 -17t1 -16v-28q0 -96 22.5 -159.5t58.5 -101.5t82 -54.5t95 -16.5q76 0 160 36t153.5 99.5t114.5 151.5t45 192q-4 -2 -21 -2q-12 0 -24 1t-21 1q-72 0 -138 -10t-132 -39q-23 -10 -49.5 -25.5 t-54 -31t-54 -26.5t-49.5 -11q-16 0 -23 6t-16 18l-14 -2q-18 0 -38.5 13.5t-20.5 36.5q0 20 11 35.5t15 31.5q-2 -4 12.5 19.5t38 54.5t51 60.5t54.5 39.5q72 37 164 59.5t178 22.5q35 0 80 -6t86 -24.5t71.5 -53.5t36.5 -92l2 -10l7 -4q22 -25 22 -54q0 -41 -7 -84 t-13 -83q-12 -80 -49 -152t-90.5 -134.5t-119 -114.5t-135.5 -91q-53 -31 -107 -61.5t-120 -30.5q-57 0 -113.5 12t-107.5 37q-27 12 -44.5 29.5t-30.5 36t-26.5 39t-29.5 38.5q-35 35 -55.5 84t-34 104.5t-20.5 116t-13 117.5z" />
<glyph unicode="h" horiz-adv-x="1177" d="M-53 -104q2 131 30.5 234t69.5 197.5t87 187.5t85 204l4 4q2 4 2 10q0 16 -22.5 48t-22.5 77q0 23 16.5 37t41 26.5t52 28t50.5 41.5q25 29 38 52.5t22.5 48t17.5 55.5t18 76q12 53 27.5 115.5t41 114.5t66.5 87t107 35q51 0 76.5 -31t25.5 -69q0 -35 -14 -73t-31 -69 q-16 -45 -32.5 -83t-35 -77.5t-42 -85t-54.5 -100.5q-10 -18 -26.5 -47t-30.5 -58.5t-24.5 -54t-10.5 -36.5q0 -29 38 -49.5t89 -35t102.5 -24.5t77.5 -16q49 92 80 192t51.5 211t30.5 233.5t19 258.5v16l16 2q10 2 18.5 2h16.5q47 0 77.5 -13.5t53.5 -27.5l8 -4v-8 q14 -84 14 -174t-13 -165t-32.5 -145.5t-42 -140t-41.5 -151.5q10 4 23.5 7t21.5 3q14 0 24.5 -10.5t17 -24.5t8.5 -30.5t2 -26.5q0 -45 -26 -72t-57.5 -45t-58 -33.5t-28.5 -34.5q-6 -49 -16.5 -90t-21.5 -83t-23.5 -90t-22.5 -109q-6 -43 -6 -111t-12.5 -131.5 t-47.5 -108.5t-110 -45q-4 0 -7.5 1t-7.5 1h-16l-2 17q-6 61 -6 123q0 92 8 169.5t22.5 149.5t34 141.5t39.5 143.5q-31 18 -81 28.5t-103 19.5t-102.5 23.5t-77.5 40.5v-2q-51 -78 -92.5 -190.5t-94.5 -235.5q-16 -37 -28.5 -89t-28.5 -99t-43 -81t-72 -34q-41 0 -96 37 l-8 4v11z" />
<glyph unicode="i" horiz-adv-x="765" d="M-2 137v22.5t4 22.5q10 35 24.5 67t28.5 64q12 29 18.5 56.5t10.5 58.5q8 45 22.5 88t31 86t30.5 86t22 90q4 31 7.5 81t13.5 97.5t30.5 81t61.5 33.5q27 0 53.5 -18.5t48 -46t35 -58t13.5 -55.5q0 -10 -5.5 -28.5t-11.5 -41t-13 -45t-9 -41.5q-16 -90 -41 -189 t-54.5 -202.5t-61.5 -205t-60 -195.5q-12 -4 -19 -4q-16 0 -31.5 6t-27.5 12q-20 8 -42 10t-44 6q-6 35 -20.5 76t-14.5 86zM262 1311q0 39 17.5 69.5t46 52t65.5 34t76 12.5q53 0 75.5 -26t22.5 -68q0 -48 -24 -91q-23 -41 -61 -80.5t-89 -39.5q-57 0 -93 41.5t-36 95.5z " />
<glyph unicode="j" horiz-adv-x="815" d="M-70 319q0 16 7.5 29.5t9.5 34.5q2 33 3 74t8 76.5t28.5 60t66.5 24.5q10 0 29.5 -22.5t19.5 -38.5v-2q27 -16 35 -48t8 -73q0 -31 -2 -65.5t-2 -69.5q0 -25 4.5 -58.5t15.5 -66.5t31.5 -55.5t53.5 -22.5q18 0 43.5 13.5t50.5 31t44 36t28 28.5q20 27 41.5 65.5t41 81.5 t35 88t25.5 86q7 31 7 64v8v15q0 29 3 57q4 33 16.5 81t12.5 97q0 10 -1 22.5t-3 22.5q6 8 9 16.5t7 18.5q-2 16 -3 33.5t-1 33.5q0 63 5 134t5 141q0 47 -4 90t-14 84q12 29 37.5 39t48.5 18q2 -2 9 -7t15.5 -11t14.5 -11.5t4 -5.5q72 0 95.5 -45t23.5 -110 q0 -63 -9.5 -136t-9.5 -133q0 -70 -9 -151.5t-19 -151.5q-4 -29 -8.5 -66.5t-10.5 -79.5t-14 -86t-19 -83q-25 -88 -63.5 -172t-91.5 -152.5t-117.5 -120t-138.5 -75.5q-55 -18 -98 -18q-18 0 -34 4q-55 10 -96 44.5t-72.5 87t-66.5 109.5q-20 35 -27.5 92.5t-7.5 95.5z" />
<glyph unicode="k" horiz-adv-x="1083" d="M-90 27q0 16 8 33.5t2 33.5q-2 4 11.5 54.5t35 123t50 160.5t55 171t50 151.5t36.5 101.5q30 84 30 147v11v18q27 33 34 87.5t17.5 106.5t34 94t84.5 52q25 -12 62 -26.5t70.5 -33t58 -39t24.5 -42.5q0 -66 -16 -115t-37.5 -93t-41 -89t-27.5 -103q2 -2 8 -2q16 0 16 13 q0 4 -3 4t1 2q43 31 98.5 102.5t108.5 154.5t97 163t67 127q16 35 29.5 73.5t31 73.5t43 63.5t66.5 43.5q55 -41 109.5 -82t88.5 -103q-57 -154 -132.5 -282.5t-166 -241.5t-191.5 -214t-210 -202q-2 -12 14.5 -35.5t41 -53t53 -59.5t53 -55.5t40 -41t13.5 -15.5q4 0 8 -2 q10 -29 30.5 -45t57.5 -16h13q18 -33 32.5 -51.5t26.5 -33t25.5 -31.5t29.5 -46q-10 -10 -28.5 -26.5t-42 -31t-50 -23.5t-51.5 -3q-47 10 -111.5 63.5t-132 127t-131 155.5t-106.5 148q-10 -20 -29.5 -87t-41 -141t-37 -133t-15.5 -65q0 -43 -10 -85t-29 -83q-18 -8 -39 -9 q-20 0 -42.5 11.5t-42 24t-32 21.5t-12.5 3q0 10 6 10q-31 35 -47 55.5t-16 55.5z" />
<glyph unicode="l" horiz-adv-x="770" d="M-31 193v19t2 19h13l2 17q18 135 53 270t79 268.5t95 261t102 244.5q18 45 37 88t35 84l21 35q25 39 61 39q41 0 85 -29.5t83 -62.5q0 -51 -18.5 -99.5t-43 -93.5t-49 -86t-39.5 -75l-36 -76q-104 -217 -173 -443.5t-83 -422.5v-27l24 10q135 57 264 129t242 158 q12 0 18.5 -6t22.5 -11q0 -6 -1 -11t-1 -9q0 -14 4 -25.5t18 -23.5q-20 -72 -54 -122t-78 -87t-95 -65.5t-106 -55.5q-31 -16 -55.5 -31.5t-52.5 -28t-60.5 -19.5t-77.5 -7q-55 0 -99.5 23.5t-75 62.5t-47 88t-16.5 101z" />
<glyph unicode="m" horiz-adv-x="1505" d="M-74 39q0 68 12.5 135.5t30 127.5t33.5 105.5t27 67.5q49 113 92 227.5t94 222t113.5 204t150.5 174.5q29 27 60.5 47t66.5 20q37 0 62.5 -17.5t40 -44t20.5 -58t6 -60.5q0 -76 -18.5 -161t-18.5 -157q0 -23 2 -32l16 20q15 19 33.5 42.5t35 44t20.5 24.5 q33 33 65.5 66.5t63.5 68.5q29 35 59.5 77t71.5 60q0 12 -6 12q12 0 34.5 15.5t45 37t42 42t29.5 32.5q8 8 14.5 15.5t14.5 15.5q41 41 95.5 62.5t103.5 21.5q25 0 47 -13.5t39.5 -35t27 -46t9.5 -44.5q0 -25 -7.5 -50.5t-11.5 -54.5q-8 -41 -11 -83t-13 -83 q-10 -37 -24.5 -72.5t-27.5 -72.5q-10 -29 -18 -64.5t-23 -64.5q-66 -141 -107.5 -290.5t-51.5 -336.5q-2 -35 -6.5 -77.5t-18.5 -80.5t-39.5 -63.5t-71.5 -25.5q-33 0 -58 22.5t-25 89.5q0 33 4 75t10 81l11 71.5t7 49.5q10 82 26.5 160.5t39.5 158.5q29 104 73 203.5 t72 206.5q8 29 15.5 71.5t17.5 59.5q-6 20 -18 20q-18 0 -38 -16t-41.5 -41t-45 -53.5t-52.5 -55.5q-39 -35 -71 -81q-49 -70 -105.5 -136.5t-109.5 -132.5q-20 -27 -43 -60.5t-47.5 -63t-53 -50t-61.5 -20.5q-55 0 -90 27.5t-53.5 73.5t-25.5 108.5t-7 132.5v4 q-39 -29 -56.5 -75t-33.5 -91q-31 -90 -67 -175t-70.5 -174t-63.5 -185.5t-41 -209.5q0 -4 -10 -8l-15 -6q2 -2 4.5 -3t4.5 -3q-43 -16 -66 -16q-47 0 -84 37.5t-37 103.5z" />
<glyph unicode="n" horiz-adv-x="1396" d="M-35 94q0 47 15.5 99.5t38 104.5t48 102.5t44.5 97.5q10 25 15 48t10 44.5t12.5 41t23.5 36.5q23 23 33 42t14 50q0 23 9.5 38t21.5 29.5t26.5 29t24.5 32.5q31 49 53.5 103.5t42 104.5t37 91t39.5 63q4 4 17.5 5t23.5 20q33 4 65.5 9t65.5 5q39 0 80 -14 q49 -59 74.5 -129t36 -146.5t13.5 -157.5t9 -162t21.5 -159t52.5 -149l14 -29l17 27q37 51 62.5 113.5t46 133t36.5 147.5t33 157q14 72 31.5 150.5t40 156.5t50 148.5t61.5 126t73 87t84 31.5q33 0 60.5 -17.5t62.5 -27.5q10 -49 33.5 -84t39.5 -76q-12 -23 -39.5 -38 t-50.5 -15q-12 0 -16 2l-15 6l-10 -12q-68 -96 -111.5 -240.5t-80.5 -304.5t-77 -319.5t-97 -288.5q-12 -37 -29.5 -77t-40.5 -71.5t-53.5 -52t-71.5 -20.5q-12 0 -26.5 2t-30.5 6q-66 59 -121 148t-95 195.5t-64.5 225.5t-26.5 240v47l-33 -35q-63 -70 -122.5 -174 t-114 -220t-104.5 -229.5t-95 -203.5q-31 -6 -66 -6q-20 0 -41.5 2t-50.5 6q-16 23 -22.5 49.5t-6.5 54.5z" />
<glyph unicode="o" horiz-adv-x="1204" d="M16 266q0 51 18.5 93t18.5 92v10q16 41 41 74.5t45 74.5q39 86 90.5 161t107.5 144.5t116.5 137t119.5 135.5q37 43 74 83t76 68l20 15l-4 24q-8 47 -19 87t-11 63q0 20 10 37h8q33 0 61 16q23 -12 48.5 -21.5t35.5 -23.5l13 -14l16 -2q51 -8 85 -37t61.5 -71t54 -94 t63.5 -108q18 -78 42 -144.5t24 -125.5q0 -131 -24.5 -226.5t-67.5 -173t-100.5 -147t-123.5 -147.5q-14 -16 -25 -36t-28 -32q-51 -43 -110.5 -94t-125 -97t-136 -77t-142.5 -31q-49 0 -98 12t-72 35q-8 8 -12 16.5t-19 18.5q-35 18 -59.5 53t-39.5 77t-23.5 88t-8.5 87z M264 266q0 -14 1 -27.5t1 -29.5q4 -35 7 -42t40 -7q66 0 122.5 26.5t106.5 67.5t96 90t91 94q121 119 185.5 262.5t64.5 317.5l2 51q-29 2 -54.5 2t-54.5 -14q-45 -31 -84.5 -73t-76.5 -81q-41 -41 -81 -84t-79 -86q-41 -45 -90 -100t-93 -116.5t-74 -125t-30 -125.5z" />
<glyph unicode="p" horiz-adv-x="974" d="M78 -225q0 25 7 50t17 50q29 66 38.5 139.5t31.5 153.5q8 33 19.5 57.5t19.5 49t14 54t6 72.5q0 14 -1 25.5t-5 22.5l-6 4q-4 0 -8 1t-8 1q-6 0 -13.5 -2t-13.5 -2q-23 0 -30 23.5t-13 41.5l-2 4q-10 20 -10 25q0 10 17.5 19t33.5 14q55 18 89 46.5t42 80.5 q4 35 12.5 67.5t18.5 61.5q14 49 22.5 94t14.5 88t12 85t16 87l2 12l-12 -2q-25 -2 -42 -20.5t-28 -32.5l-8 -10q-8 -14 -13 -18.5t-11 -4.5h-16.5t-30.5 -6h-37t-41.5 3t-41 11t-34.5 25q0 4 6 16.5t6 32.5q0 4 -1 8t-1 8q0 23 10.5 41.5t25.5 35t32.5 31.5t32.5 30 q27 37 60.5 58t69 33.5t71.5 15.5t69 3h8q18 2 36.5 3t37.5 1q61 0 148 -16t167 -54t136.5 -102.5t56.5 -161.5q0 -27 -13 -53q-72 -143 -174 -255.5t-225 -198.5q-10 -10 -29.5 -23.5t-40 -28t-38 -23.5t-25.5 -9q-4 -2 -5 -3.5t-5 -3.5l-4 -2v-6v-8q0 -16 -5.5 -34.5 t-13.5 -37.5q-12 -31 -25.5 -107.5t-37 -177t-58 -214t-90.5 -215.5q-3 -5 -17 -5q-7 0 -17 1q-29 4 -64 12t-63.5 19.5t-28.5 19.5zM553 825l16 15q35 20 83 56t77 83q10 10 25.5 34.5t29 54.5t23.5 60.5t10 53.5q0 53 -37 73.5t-102 20.5h-39v-8v-17.5t-2 -15.5 q-10 -63 -22.5 -115.5t-23.5 -98.5t-20.5 -88t-15.5 -85z" />
<glyph unicode="q" horiz-adv-x="1187" d="M-14 670q0 102 36.5 198.5t77.5 194.5q2 6 6.5 20.5t10.5 29.5t14 26.5t21 15.5q16 63 53 114.5t80 98.5q39 43 76.5 77t80.5 56.5t96.5 34.5t123.5 12q49 0 104 -26.5t100 -64.5t75 -82t30 -81q0 -14 -3 -31.5t-8.5 -33t-14.5 -26.5t-21 -11q-6 0 -15 4 q-2 -10 -13 -32.5t-11 -43.5q0 -16 12 -22t12 -27q0 -18 -6 -46t-13 -56.5t-13.5 -51t-8.5 -30.5q-25 -115 -52.5 -222.5t-55.5 -215.5q-45 -174 -99.5 -347.5t-115.5 -343.5q-6 -18 -10.5 -37.5t-4.5 -39.5q0 -37 10.5 -75t10.5 -75q0 -10 -6 -33.5t-17.5 -48t-29 -43 t-39.5 -18.5q-39 0 -72 18.5t-57.5 46t-37.5 61t-13 62.5q0 35 10 71t22 72q14 43 22.5 87t22.5 85q12 35 22.5 64t10.5 82q0 8 -2 8q-4 -2 -16.5 -3t-26.5 -1h-28.5h-20.5q-35 0 -46 14.5t-30 30.5q-18 16 -48 41t-30 53q0 14 11.5 28.5t27 27t32.5 22.5t30 16 q23 12 54.5 19.5t64 14.5t63.5 17.5t49 28.5q45 45 60.5 102.5t19.5 123.5q4 -2 6 -8.5t2 -2.5q-8 6 -9 20.5t9 18.5q-43 -43 -85 -74.5t-81 -70.5q-12 -12 -35.5 -20.5t-46 -11.5t-42 -4t-23.5 -1q-51 0 -98.5 16.5t-84 47t-58 75.5t-21.5 105zM199 698q0 -43 39 -43 q20 2 49.5 22.5t62.5 51.5t63.5 64.5t56.5 63.5t41 49.5t17 19.5q-4 8 -4 12q0 12 13.5 21.5t23.5 25.5q29 47 52.5 98.5t54.5 94.5q8 14 23.5 25t30.5 22.5t25.5 24t10.5 24.5q0 29 -34 39t-67 10q-37 0 -78.5 -25t-64.5 -43q-74 -61 -129 -142t-96 -167q-6 -12 -20.5 -42 t-30 -66.5t-27.5 -74.5t-12 -65z" />
<glyph unicode="r" horiz-adv-x="892" d="M-61 53q2 2 8 11.5t14 19.5t14.5 21.5t10.5 17.5l2 8q18 166 37.5 300t42.5 257q12 66 31.5 129.5t41 126t41 124.5t31.5 128q8 45 23.5 56.5t37.5 25.5l33 22l-20 27q-16 20 -33.5 31.5t-26.5 25.5q14 41 45 67t68 41t75 21.5t68 8.5q47 -20 90 -47t95 -50 q33 -47 68.5 -99t64 -108.5t47 -116t18.5 -122.5q0 -35 -7 -71t-20.5 -69.5t-32 -61t-38.5 -46.5q-49 -31 -89 -62.5t-81 -59t-86 -46t-102 -24.5l-43 -4q12 -31 20 -45.5t15.5 -22.5t13.5 -15.5t12 -21.5q20 -49 48 -106.5t58.5 -114.5t63.5 -109.5t64 -89.5l16 13 q31 18 53.5 43.5t44.5 46.5q8 -6 19.5 -17.5l23.5 -23.5q6 -16 11.5 -42t9.5 -52.5t6 -52t2 -44.5q0 -72 -40 -114.5t-99 -42.5q-55 0 -103.5 31.5t-88.5 79.5t-71.5 105.5t-58.5 108.5l-16 27q-16 35 -36 67.5t-38 65.5l-29 49l-26 -51q-18 -35 -38 -87t-26 -83 q-2 -6 -7 -26.5t-16.5 -41t-28.5 -37t-42 -16.5h-4q-47 4 -89 46t-52 91zM391 1214l4 -10q23 -39 31 -71.5t8 -67.5q0 -37 -5 -77t-9 -89l-4 -39l39 4q82 10 122.5 79t40.5 147q0 86 -40.5 138t-104.5 52q-12 0 -24.5 -2t-24.5 -6t-22.5 -15.5t-10.5 -31.5v-11z" />
<glyph unicode="s" horiz-adv-x="948" d="M31 -104q6 22 10 45q0 8 2 14q35 27 75 51.5t79 46.5q33 18 82 47t99 62t95 65.5t70 61.5q19 25 43 57q16 21 16 42q0 11 -4 22q-23 53 -68 80.5t-98 49t-107.5 44t-93.5 63.5q-31 33 -56 79t-38 89q-4 14 -7 40t-5 53.5t0 53t8 42.5q20 51 56 88.5t84.5 70.5t108.5 60.5 t130 56.5q20 10 39.5 17.5t40.5 17.5q78 35 151.5 61.5t151.5 26.5q47 0 94 -12q8 -14 19.5 -27.5t21.5 -24.5q12 -12 18 -17q7 -6 6 -14q0 -4 -1 -8q-2 -8 -2 -24q0 -8 -4.5 -26.5t-10.5 -39t-15.5 -36t-19.5 -15.5q-84 -8 -185 -33.5t-192.5 -62.5t-160 -82t-88.5 -92 l18 -47l6 -11q10 -27 40 -41t53 -24q59 -29 129.5 -71t113.5 -91q37 -43 68 -104.5t46 -129.5q10 -46 10 -91q0 -21 -2 -41q-7 -66 -48 -115q-33 -39 -86 -83t-113.5 -86t-119 -80t-101.5 -62l-77 -42t-89 -34q-22 -5 -43.5 -5t-42.5 5q-41 10 -69 57q-8 12 -20.5 31.5 t-16.5 32.5q-3 9 -3 18.5t3 20.5z" />
<glyph unicode="t" horiz-adv-x="1355" d="M-176 1198v6q0 25 14 49h19q8 0 58 5.5t127 17.5t173 31.5t194.5 46t192.5 62.5t168 81l10 10v15q2 37 9.5 67.5t18.5 60t21.5 59.5t18.5 67q23 0 54.5 -4.5t51.5 -4.5h18.5t18.5 5l17 -11q20 -12 40.5 -17t38 -10t32 -14.5t20.5 -29.5v-11q-6 -16 -19.5 -53t-11.5 -59 q2 -16 10 -18.5t46 2.5t120 15.5t232 16.5q51 0 107 -32.5t75 -92.5q-4 -4 -18.5 -7t-33 -6t-36 -5t-27.5 -2q-45 -4 -98 -16.5t-108.5 -30t-106.5 -37t-90 -33.5q-10 -4 -26.5 -11t-33 -14.5t-31 -15.5t-18.5 -12q-16 -16 -33.5 -19.5t-44.5 -17.5l-14 -6l-6 -19 q-16 -66 -37 -135.5t-43 -138.5l-2 -6q-29 -96 -58.5 -193.5t-52.5 -195.5q-6 -31 -18 -70t-22.5 -78t-18.5 -74.5t-8 -62.5q0 -23 5 -48.5t5 -47.5q0 -20 -2 -42t-6 -46v-5q-8 -47 -14.5 -99t-22.5 -85q-10 -57 -48 -83.5t-73 -26.5q-55 0 -97 39.5t-65 82.5l-4 11 q2 8 7 22.5t11.5 27.5t11.5 24l5 10q31 119 42 218t26 208q37 203 71.5 363.5t81.5 301.5l12 37l-36 10q-27 8 -60 9q-51 0 -116.5 -13.5t-135.5 -29.5q-53 -10 -117.5 -15.5t-121.5 -25.5q-12 4 -38 13t-36 13q-6 2 -24.5 8.5t-41 17.5t-44 29.5t-31.5 43.5l-11 24h-22z " />
<glyph unicode="u" horiz-adv-x="1157" d="M12 418q0 141 9.5 229t19.5 129q10 51 15 82t26 80q16 45 23.5 90t15.5 92q16 86 39.5 167t40.5 159q41 20 86 20q43 0 84 -15t63 -38q12 -47 12 -90q0 -76 -28.5 -152.5t-63.5 -156.5q-41 -90 -68.5 -168t-39.5 -170q-6 -43 -13.5 -73t-12.5 -58.5t-9 -58t-4 -72.5 q0 -53 13 -89t33.5 -57.5t45.5 -31t47 -9.5q55 0 103.5 34t86 82t65.5 103.5t44 98.5q16 49 32.5 100t43.5 94q31 53 61.5 105.5t53.5 111.5q27 72 46 145t44 144q10 31 24.5 67t36 66.5t50 52t65.5 21.5t65.5 -19.5t28.5 -62.5q0 -47 -10 -94t-23.5 -93t-25 -88t-13.5 -79 q-45 -111 -90 -223.5t-95 -223t-106.5 -217t-123.5 -207.5q-20 -31 -61.5 -73.5t-88.5 -80.5t-97 -64.5t-89 -26.5q-27 0 -65 10t-76.5 25.5t-70.5 35t-46 37.5q-59 78 -81 186.5t-22 223.5z" />
<glyph unicode="v" horiz-adv-x="1216" d="M33 1395q0 43 17.5 74.5t66.5 39.5q72 -25 118 -71.5t87 -102.5q2 -217 21 -429t36 -427q0 -8 2 -36.5t5 -64.5t5 -72t2 -60q0 -31 -4 -31q29 12 49.5 41t42.5 53q29 33 53.5 69t51.5 73q82 117 149.5 235.5t128.5 251.5q16 35 42 65.5t44 65.5q23 43 38.5 92t30.5 99.5 t32.5 100.5t44.5 95q6 8 15 22.5t20.5 28t25 23.5t25.5 10q18 0 38.5 -17.5t39 -41t31 -48t14.5 -36.5q2 -8 2 -16.5v-16.5q0 -53 -15.5 -104.5t-37 -100.5t-46 -95t-43.5 -87q-53 -113 -105 -217.5t-114 -214.5q-45 -78 -96 -161t-106.5 -164t-113 -155.5t-114.5 -136.5 q-6 -6 -19.5 -21.5t-28.5 -32.5t-29.5 -29.5t-22.5 -12.5q-117 20 -188.5 111.5t-71.5 224.5v57q0 66 -11.5 128.5t-11.5 133.5q0 29 2 60t2 59v33.5t-4 34.5q-2 12 -6 17t-9 11.5t-8.5 16.5t-3.5 33q0 18 1.5 37.5t1.5 39.5t-1.5 40t-5.5 42q-16 78 -23 154t-18 145 q-6 41 -16 90.5t-12 94.5z" />
<glyph unicode="w" horiz-adv-x="1812" d="M-29 1317q6 16 20.5 31.5t28.5 33.5q16 -2 32 -9t34 -14t39.5 -13.5t50.5 -8.5q68 -45 91.5 -124.5t23.5 -180.5q0 -68 -7.5 -139.5t-15.5 -142.5l-2 -25q-14 -100 -22 -204.5t-8 -207.5v-22l2 -8h8q41 0 83 33.5t82 87t76.5 117t67.5 122.5t53.5 105.5t32.5 66.5 q66 117 103.5 174.5t46.5 63.5q47 -20 93 -38t83 -41.5t59.5 -57t22.5 -89.5q0 -82 -4.5 -132t-8.5 -95t-8 -96t-4 -133q0 -31 2 -63t6 -64l8 -70q76 78 123 144.5t83 132t64.5 136t67.5 154.5l2 7q39 82 78 164.5t86 162.5q27 45 50.5 85t53 70t66.5 49t90 26l15 -21 q6 -10 34.5 -22.5t40.5 -22.5q-12 -117 -65 -229.5t-113 -229.5l-2 -2q-10 -12 -21.5 -29.5t-21.5 -41.5l-2 -5q-47 -98 -89 -191t-88 -185.5t-100.5 -183.5t-123.5 -187q-10 -12 -30.5 -40t-43.5 -28q-10 0 -25.5 3.5t-23.5 3.5q-92 14 -153.5 63t-101.5 119.5t-64.5 154.5 t-45.5 166l-10 47q-4 18 -11 21.5t-14 11.5l-2 6h-8q-12 0 -24.5 -15t-24.5 -36.5t-23.5 -44t-21.5 -37.5q-33 -47 -59.5 -107.5t-69.5 -121.5q-51 -86 -105.5 -172t-113.5 -166q-8 -2 -23 -2q-39 0 -71.5 14.5t-62.5 38t-55.5 52t-49.5 57.5l-6 8q-12 66 -17.5 135.5 t-5.5 140.5q0 166 14.5 329t14.5 327q0 117 -12.5 225.5t-47.5 208.5z" />
<glyph unicode="x" horiz-adv-x="1024" d="M-227 -57q16 41 41.5 71.5t58.5 65.5l12 10q31 29 79 83t99.5 114.5t96.5 115t71 82.5l17 17q10 12 27.5 30.5t34 39t28.5 42t12 41.5q0 8 -6 45t-14 78t-15.5 77t-9.5 46q-18 139 -79.5 251t-166.5 230q-2 10 12.5 30t20.5 26q31 31 85 53t99 39q7 2 14 2q25 0 51 -28 q34 -36 63.5 -93t53 -124.5t36.5 -123.5l2 -10q8 -68 26.5 -114t40 -75.5t40 -43t24.5 -13.5q25 0 37 28t55 81q29 35 63.5 82t78.5 92t99.5 81t126.5 50h5q4 2 16 4t22 2h7q18 -27 37.5 -42t36 -31.5t26.5 -39t10 -61.5q0 -49 -19.5 -79t-49 -52.5t-63.5 -44t-62 -55.5 q-10 -14 -19.5 -25.5t-13.5 -15.5q-20 -16 -27.5 -20.5t-14.5 -9.5t-17.5 -15.5t-35 -37t-70.5 -76.5t-122 -134l-10 -10q-20 -23 -37.5 -47.5t-19.5 -59.5v-10q0 -54 20 -122q22 -75 62 -198l14 -43q12 -35 29.5 -79t44.5 -72l8 -4h6q8 0 15 1t14 1q27 -2 44 -22.5 t28.5 -50.5t15.5 -61.5t4 -56.5q0 -23 -9.5 -53.5t-24.5 -58t-35.5 -46t-41.5 -18.5q-35 0 -54.5 16.5t-41.5 38.5l-45.5 45.5t-28.5 29.5t-21.5 27.5t-21.5 43.5q-18 41 -37.5 73.5t-38.5 71.5l-8 21q-23 45 -36 74.5t-23 61.5t-18.5 74t-20.5 111l-8 23l-13 -21 q-16 -27 -58 -74t-90 -99t-93 -101t-66 -80q0 -2 -4 -12.5t-10 -21.5t-12.5 -22.5t-10.5 -13.5q-37 -16 -53 -25t-27.5 -13.5t-28 -6.5t-52.5 -6q-25 39 -73 76t-93 74z" />
<glyph unicode="y" horiz-adv-x="1058" d="M-78 721q0 41 8.5 80t8.5 80q0 23 -1 43t-1 39q0 35 19 42t46 7q4 0 9 -1t12 -1q6 0 49 7t84 7q16 0 25 -14.5t22 -26.5q20 -20 23 -45t7 -47q5 -44 5 -106v-32q-1 -23 -1 -45q0 -60 3 -120q4 -82 20 -147.5t59 -82.5q88 70 156 166.5t117 196.5q25 51 51.5 94t54 85 t56 86t55.5 93q20 37 36.5 78t43.5 76q20 29 37.5 41t36 17t39 6t49.5 8q8 -4 24 -5h10q4 -10 12.5 -22t18.5 -18q-4 -133 -22.5 -261.5t-44 -254.5t-52 -250.5t-47.5 -253.5h-8q-23 -96 -45.5 -186.5t-40.5 -179.5t-29.5 -179t-11.5 -189q0 -131 14.5 -252.5t14.5 -244.5 q0 -27 -19.5 -55.5t-19.5 -53.5q-4 0 -6 1t-4 1q-6 0 -15 -4q-12 6 -36.5 8t-41.5 2q-23 0 -44 -3t-44 -3h-6q-10 0 -14 6.5t-7 13.5t-7.5 15t-14.5 14q6 12 8 32t2 43.5v46v38.5q0 78 -4 152.5t-4 152.5q0 152 24.5 301.5t53.5 296.5q4 25 15.5 66t23.5 88t21.5 96t9.5 92 q0 63 -27 93q-41 -35 -77 -94.5t-74.5 -118t-83.5 -101.5t-107 -43q-59 0 -112.5 34t-98.5 62q-27 16 -43 55.5t-28.5 85.5t-21.5 90t-19 73t-17.5 66.5t-21.5 64.5q-2 6 -12.5 17t-20.5 22.5t-19 19.5l-8 8q-2 10 -2 31z" />
<glyph unicode="z" horiz-adv-x="1112" d="M-27 152q0 61 28 113t68 98.5t86 87.5t85 79q135 137 270 272.5t246 293.5q2 2 2 6q0 18 -12.5 29.5t-28 17.5t-28.5 8t-17 2q-23 0 -58.5 -2t-75.5 -6t-79 -12.5t-68 -20.5q-45 -20 -74.5 -31.5t-54 -14.5t-46 4t-52.5 26q-6 4 -24.5 18.5t-37 31.5t-33 35.5t-14.5 35.5 q0 4 4 12q39 53 96.5 85t125 48t140.5 21.5t144 5.5q82 0 160 -19.5t145.5 -59.5t117.5 -101.5t77 -143.5q-8 -35 -17.5 -54.5t-9.5 -31.5q0 -8 9 -16q-53 -74 -111.5 -139.5t-124.5 -143.5q-16 -16 -43 -26.5t-39 -26.5q-27 -33 -57.5 -71t-63.5 -77t-67.5 -74.5 t-69.5 -62.5t-64.5 -58.5t-74.5 -86.5q-14 -16 -27.5 -26.5t-24 -18.5t-15.5 -18.5t-5 -26.5q0 -10 21.5 -11.5t33.5 -1.5q47 0 127 33t167 72t168 71.5t130 32.5t88 -7t67 -27.5t43 -58.5t15 -97q-33 -23 -60.5 -37t-54 -21.5t-55 -10.5t-63.5 -3q-14 0 -27.5 1t-30.5 1 q-16 -4 -54 -20.5t-88 -40t-106.5 -49t-111.5 -47t-102.5 -36t-77.5 -14.5q-63 0 -120.5 22.5t-100.5 64.5t-69 98.5t-26 124.5z" />
<glyph unicode="{" horiz-adv-x="894" d="M51 748q0 33 16.5 55t41 40.5t51 38t47.5 44.5q4 6 14 18t20.5 24.5t17.5 22.5t7 15q0 6 -12 25.5t-25.5 41t-26 43t-12.5 31.5v4q-37 23 -43 55.5t-6 65.5q0 63 12.5 103t46 70t95 56.5t160.5 63.5q12 4 30.5 10l37 12t33.5 10.5t24 4.5q47 0 86 -28t39 -63v-22 q0 -16 -10.5 -37.5t-55.5 -56.5q-12 -10 -48 -11.5t-61 -7.5q-98 -23 -138 -52.5t-40 -88.5q0 -31 12.5 -49.5t27 -42t26.5 -61.5t12 -107q0 -51 -13.5 -80t-28.5 -48.5t-27.5 -40t-12.5 -52.5q0 -6 13.5 -21.5t29 -35t28.5 -39t13 -33.5v-2l-8 -131q-2 -31 -12.5 -53.5 t-21.5 -45t-20.5 -50.5t-9.5 -71q0 -16 12.5 -50t37 -67.5t62.5 -60t91 -26.5q45 0 72 3t44 7t28.5 7t27.5 3q23 0 46.5 -10.5t23.5 -22.5q0 -35 -39 -63.5t-89 -48t-99.5 -30.5t-69.5 -11q-4 0 -21.5 1t-38 2t-41 4t-30.5 9q-27 14 -58.5 48t-61.5 75t-50.5 81t-26.5 64 q-18 82 -18 148q0 53 14 92q4 10 8 28.5t7.5 38t5.5 35t2 19.5q0 37 -23.5 59.5t-51.5 41t-50.5 41t-22.5 59.5z" />
<glyph unicode="|" horiz-adv-x="823" d="M240 209q0 49 8 133t21.5 189.5t27.5 226.5t27.5 242.5t21.5 238.5t8 213q0 8 -8 53t-17.5 97.5t-17.5 96.5t-8 48q0 37 17.5 68.5t44 56t60.5 38t69 13.5q45 0 71.5 -21.5t41 -52t18.5 -65.5t4 -62q0 -109 -19.5 -228.5t-44 -244.5t-44 -248.5t-19.5 -240.5 q-6 -23 -13.5 -63t-14.5 -82t-11 -75.5t-4 -41.5q0 -33 17.5 -59.5t39 -54.5t39.5 -56.5t18 -65.5q0 -10 -8 -26.5t-8 -26.5q0 -49 -12.5 -94t-37 -81t-62 -56.5t-89.5 -20.5q-37 0 -59.5 36t-34.5 80t-17 85t-5 51z" />
<glyph unicode="}" horiz-adv-x="868" d="M90 1477q0 37 38 63.5t90 42.5t104.5 24.5t83.5 8.5q12 0 35.5 -2t50 -6t48 -9.5t27.5 -9.5q31 -23 61.5 -55.5t57.5 -70.5t43 -76.5t16 -75.5q0 -47 -10 -80t-25.5 -59.5t-34 -52t-34.5 -56.5t-27.5 -72t-13.5 -100q6 -4 10 -14.5t8.5 -20.5t8.5 -19.5t10 -9.5 q14 0 25.5 3.5t23.5 3.5q68 0 99.5 -37t31.5 -78q0 -18 -16.5 -41t-38 -45.5t-43 -42t-29.5 -33.5q-16 -23 -19 -53.5t-9 -54.5l83 -273q-8 -55 -20 -93t-27.5 -63.5t-31 -44t-29.5 -36.5q-8 -14 -40 -41t-60 -39q-6 -4 -41 -11.5t-76 -16.5t-79 -15t-52 -6q-47 0 -83 14 t-59.5 35.5t-36 48t-12.5 51.5q0 23 30 33t50 10q16 0 21.5 -2t11.5 -5t17.5 -5t41.5 -2h72q27 0 52.5 3t46 16t37 39t26.5 71q4 8 20.5 25.5t16.5 27.5q0 8 -6.5 28.5t-6.5 41.5q-35 43 -55 89t-30.5 85t-13.5 64.5t-3 29.5q0 33 10 53.5t22.5 35.5t23 26.5t10.5 27.5 l-16 23q-15 24 -34.5 55t-35 63.5t-15.5 51.5q0 43 11.5 84t29 76.5t37.5 63.5t39 46q2 2 5 19.5t5 40t3 46t1 42.5v14q-2 10 -15 33.5t-32.5 48t-44 43t-49.5 18.5q-37 0 -54.5 -8t-30.5 -17.5t-31.5 -16.5t-55.5 -7q-33 0 -55.5 11.5t-37 27.5t-20.5 34.5t-6 33.5z" />
<glyph unicode="~" horiz-adv-x="1210" d="M61 604q31 43 64 79t70.5 63.5t84 43t105.5 15.5q66 0 122 -16.5t109 -45.5q59 -35 103.5 -51t91.5 -16q31 0 55.5 14.5t44 34.5t35 45t27.5 45l174 -205q-70 -100 -143.5 -150t-182.5 -50q-51 0 -111.5 13t-119.5 50q-47 29 -93 47.5t-98 18.5q-35 0 -60.5 -15.5 t-45 -38t-33.5 -46t-24 -40.5z" />
<glyph unicode="&#xa2;" horiz-adv-x="1093" d="M141 440q0 229 96.5 406.5t319.5 316.5q8 6 8 19q0 10 -2 22.5t-2 26.5v10q6 39 8 68.5t2 52.5q0 37 -3 59.5t-3 38.5t6.5 28.5t24.5 29.5q29 23 64.5 36t64.5 13q20 0 41.5 -16.5t38 -38t28 -43t11.5 -33.5q0 -14 -9.5 -68.5t-21.5 -140.5q12 -10 42 -14.5t67 -4.5 q25 0 48 1t46 1q27 0 37 -2q12 -12 23 -40.5t11 -57.5q0 -35 -23.5 -53.5t-55 -27.5t-62.5 -11t-45 -2h-4q-12 0 -27.5 4t-27.5 4q-6 0 -12.5 1t-12.5 1q-10 0 -21.5 -7t-21.5 -36q-10 -27 -26.5 -94.5t-34 -150.5t-29.5 -167t-12 -139v-51q0 -33 5 -66.5t23 -66.5h23 q51 0 115.5 11t115.5 20q12 -18 13 -48q0 -37 -21.5 -76.5t-50.5 -56.5q-23 -14 -57.5 -19t-66.5 -8t-54.5 -7.5t-22.5 -16.5q0 -61 9.5 -105t21.5 -79t21.5 -65.5t9.5 -65.5t-6.5 -66t-21.5 -54.5t-42 -37.5t-68 -14q-37 0 -66.5 20.5t-51 53t-33.5 72.5t-14 77 q4 12 11 23.5t13 29t11.5 42t5.5 61.5q0 12 -4.5 52t-4.5 64q-86 29 -150.5 63t-107.5 78t-64.5 103t-21.5 141zM352 489q0 -14 10.5 -57t28.5 -78q20 -35 48 -57.5t40 -22.5h29l39 514v11q0 18 -4 52t-11 52q-80 -61 -130 -167.5t-50 -246.5z" />
<glyph unicode="&#xa3;" horiz-adv-x="1878" d="M37 314.5v29.5q0 31 16.5 57.5t41 47t51 33t44.5 12.5q76 0 125.5 -7.5t93.5 -20.5t93 -31.5t127 -41.5q2 2 18.5 37t34.5 79t32.5 87t14.5 63q0 16 -19.5 23.5t-21.5 7.5q-10 0 -10 -4t-10 -4q-29 0 -58.5 13.5t-53.5 37t-39 56t-15 69.5q0 41 20.5 66.5t50 39 t61.5 17.5t54 4h19.5t29 -1t28.5 -1h19q33 0 44.5 56.5t18.5 140.5t18.5 182t43 182t92 140.5t166.5 56.5q6 0 16.5 -8.5t23 -17.5t24.5 -16t20 -7q35 0 51.5 -27t28.5 -73t24.5 -105.5t39.5 -122.5l15 -40t9 -40q0 -4 -1 -5t-1 -3v-2q0 -10 4 -38t4 -62q0 -47 -16 -86 t-70 -39q-27 0 -51 17t-46.5 45t-42 58.5t-32.5 59.5q-6 12 -13 35.5t-11 46.5q-6 27 -10 57l-21 -33q-29 -45 -49.5 -100t-34.5 -106.5t-21.5 -90.5t-7.5 -53q0 -12 3.5 -22.5t19.5 -10.5q6 0 41 -6t75 -12t74.5 -12.5t42.5 -6.5q6 0 23.5 8.5t38 17.5t39 17.5t26.5 8.5 q20 0 44 -9.5t44.5 -24.5t34 -34.5t13.5 -40.5q0 -18 -12.5 -40.5t-31 -42t-40 -34t-39.5 -14.5q-12 0 -18.5 4t-20.5 4q-6 0 -55.5 -2t-115 -6t-138 -11t-123.5 -20q-12 -2 -19.5 -15t-12.5 -31.5t-9 -38t-9 -31.5q-10 -33 -14 -49.5t-7 -26.5t-6 -20.5t-11 -30.5 q-10 -23 -20.5 -54.5t-16.5 -60.5q35 -23 125 -51.5t198.5 -56t219 -46t184.5 -18.5q20 0 35.5 9t29 21.5t25.5 26t26 23.5q25 29 65 39t71 22q45 -43 76.5 -72.5t31.5 -74.5q0 -55 -45 -99.5t-106.5 -75t-122 -47t-90.5 -16.5q-6 0 -32 1t-55.5 3t-55 3t-31.5 1 q-12 0 -26.5 12.5t-27.5 16.5q-20 6 -47.5 13.5t-55.5 13.5t-49.5 10t-27.5 4q-12 0 -17 -1t-18 -1q-6 0 -57 12.5t-110.5 26.5t-110.5 26.5t-58 12.5q-10 0 -34.5 -41t-59.5 -91t-80 -91t-96 -41h-108q-8 0 -43 22.5t-74 54t-74 64.5t-43 53q-6 16 -32.5 55t-39.5 74 q-8 27 -13 60.5t-7 64.5t-2 54.5zM279 205q0 -27 13 -55.5t35.5 -52t52.5 -39t60 -15.5q6 0 18.5 10t24 23.5t20.5 28t9 22.5q0 10 -6 16q-2 2 -4 2q-23 8 -52.5 18.5t-57 20t-49 16.5t-28.5 7h-36v-2z" />
<glyph unicode="&#xa7;" horiz-adv-x="1009" d="M8 -94q0 18 10.5 37.5t25.5 37t32.5 27.5t34.5 10q47 -16 78.5 -30.5t68.5 -14.5t76 10.5t70.5 29t53 45t21.5 61.5q0 41 -40 92t-93 99t-104.5 87t-71.5 58q-29 23 -49.5 55.5t-33.5 67t-19.5 68.5t-6.5 59q0 47 19.5 107t53.5 121.5t82 121t106 104.5 q-10 23 -17.5 46.5t-7.5 45.5q0 70 43 148t114.5 144.5t162 110.5t186.5 44q33 0 61.5 -12.5t50 -34t35 -49t13.5 -58.5q0 -20 -9.5 -42.5t-31.5 -26.5q-8 -2 -29 -2q-18 0 -40 1t-44 1q-20 0 -40.5 -2.5t-43.5 -8.5q-72 -23 -118 -78t-46 -137q0 -45 31 -91t76 -92t99 -94 t99 -99.5t76 -107t31 -114.5q0 -74 -25.5 -130t-71 -99t-103.5 -73t-126 -48q31 -41 54.5 -86t23.5 -94q0 -96 -41 -165t-108.5 -115t-157.5 -70.5t-189 -34.5q-14 0 -31.5 -2t-33.5 -2q-14 0 -27 4q-78 29 -101.5 74t-27.5 92v4zM326 715q0 -53 42 -107.5t95 -107.5h24 q45 0 86 12t74 33.5t52.5 50t19.5 61.5t-27.5 72t-67.5 79t-84 76t-77 62q-53 -43 -95 -104.5t-42 -126.5z" />
<glyph unicode="&#xa8;" horiz-adv-x="1024" d="M201 1198q0 23 1 32t7 18t18.5 25.5t34.5 51.5q4 0 12.5 -3t18.5 -3t26.5 10t26.5 10q31 0 55.5 -18t41 -43t25.5 -52.5t9 -45.5q0 -16 -12 -40t-30.5 -45.5t-40 -37t-42.5 -15.5q-16 0 -39.5 12.5t-46 27t-39 27.5t-18.5 13q-2 18 -5 42t-3 34zM549 1280q0 20 15.5 38.5 t36 33t41 23.5t30.5 9q27 0 54.5 -17t50 -40.5t36.5 -49.5t14 -44t-3 -46t-16 -52.5t-38 -43t-68 -18.5q-31 0 -58.5 25.5t-49 60.5t-33.5 69t-12 52z" />
<glyph unicode="&#xa9;" horiz-adv-x="1363" d="M115 530q0 31 7 67t22.5 72t38 66.5t53.5 50.5q23 14 33 42t26 49q16 23 33.5 51t40.5 57t50 57.5t62 51.5q16 10 30.5 22t31.5 23q16 10 28.5 20t26.5 17l36 9t58.5 14t55 12.5t28.5 5.5q2 0 7 -1.5t8 -3.5q4 -2 10 -4t12 -2t14 4t11 4q8 0 23.5 -4t29.5 -10t26.5 -11 t16.5 -7q86 -29 145.5 -94.5t96 -147.5t53 -169t16.5 -159q0 -80 -23.5 -179t-74.5 -194.5t-133 -173t-199 -112.5q-18 -4 -29.5 -11.5t-19.5 -11.5l-12 -6q-8 -4 -11 -4h-2l-7 7t-11 3q-10 0 -18.5 -3t-16.5 -5q-4 0 -4 -1t-2 -1q-131 0 -236.5 54.5t-179 142.5 t-112.5 196.5t-39 216.5zM268 416q0 -8 3 -13.5t8 -11.5q2 -2 2 -6q20 -68 59 -122t88 -91t106.5 -57.5t116.5 -20.5q115 0 200 53.5t140.5 134t83 176t27.5 177.5q0 41 -13.5 114.5t-46 144.5t-88 123t-139.5 52q-8 0 -18.5 -3t-18.5 -7q-25 -2 -38 -5t-23 -7 q-4 -2 -10.5 -5.5t-12.5 -3.5q-4 4 -10 4q-10 0 -14 -3t-11 -9q-10 -18 -28.5 -21t-36.5 -8q-6 -2 -13.5 -3t-11.5 -5q-25 -16 -50 -36.5t-38 -36.5q-27 -33 -62.5 -79t-67.5 -99.5t-54.5 -107.5t-22.5 -102q0 -10 3.5 -20t7.5 -20q2 -4 2 -9q0 -12 -5.5 -27.5t-9.5 -25.5 q-4 -8 -4 -14zM457 416q0 18 10 61t28.5 96.5t45 111.5t59.5 105.5t70 78t78 30.5q6 0 21 -7t30.5 -18.5t27 -25.5t11.5 -29q0 -8 -29 -47q-20 -27 -49 -61.5t-54.5 -73.5t-44 -78t-18.5 -72q0 -6 7 -17t18.5 -24.5t22.5 -25.5t18 -19q20 12 36.5 27.5t32.5 32.5 q37 37 41 37q27 0 42.5 -10.5t23.5 -26t11 -34t3 -32.5q0 -31 -20.5 -59.5t-49 -50t-58.5 -34.5t-48 -13h-70q-23 0 -56.5 14t-64 38.5t-53 57.5t-22.5 68z" />
<glyph unicode="&#xaa;" horiz-adv-x="1183" d="M12 68q43 123 87 223t87 194q23 51 47.5 103.5t47.5 109.5q10 4 14 10.5t6 10.5l2 2l4 -2l39 -17l-14 41q-4 10 2 23.5t16 34.5q10 20 20.5 43.5t14.5 52.5q51 14 89 76.5t75 134.5q18 39 38.5 78t43 69.5t48.5 49t54 18.5q33 0 66 -20l14 -9l10 13q20 27 26.5 50 t12.5 64l2 2q35 35 76 31t78 -45q35 -35 53.5 -84t15.5 -96q-4 -47 -20 -93t-35 -89q-12 -29 -21.5 -54.5t-13.5 -48.5q-6 -37 -5 -72.5t5 -64.5q2 -10 2 -16.5v-12.5l2 -16l15 -2q45 -4 83 3t72 15q31 8 60 14.5t61 4.5q4 -18 13.5 -37t19.5 -41l2 -2q0 -53 -13.5 -77 t-35.5 -50q-10 -12 -21.5 -25.5t-21.5 -29.5q-41 0 -73 -10.5t-60 -20.5q-23 -10 -46.5 -17.5t-51.5 -11.5l-15 -2l-2 -16q-2 -90 22.5 -163t53.5 -142q23 -53 41 -106.5t22 -108.5q-10 -4 -17 -10.5t-15 -10.5q-16 -12 -43 -27q-41 20 -72 55.5t-53.5 80.5t-41 96 t-36.5 104q-23 66 -45.5 131.5t-57.5 118.5l-6 8h-12q-41 -4 -64.5 6.5t-46.5 22.5t-47 21.5t-61 5.5h-8l-6 -9q-43 -70 -79 -137t-69 -143t-64.5 -164t-62.5 -199q-29 -12 -51 -12q-25 0 -44.5 12.5t-34.5 32t-27.5 45t-24.5 51.5q-6 14 -12.5 27.5t-12.5 24.5z" />
<glyph unicode="&#xab;" horiz-adv-x="1380" d="M66 571q2 2 4 3t6 6v10q14 29 36.5 45t47.5 20q39 25 67.5 50.5t55 50t58.5 47t79 43.5q27 25 60.5 34t80.5 46q6 4 10 15t11 20q14 10 29.5 14t29.5 14q8 10 15.5 23.5t17.5 23.5q6 4 13 2t18 -18q2 4 4 6q6 6 13 -3t15 -22.5t15.5 -29t15.5 -23.5q10 -59 -19.5 -115.5 t-76.5 -95.5q-35 -29 -78 -47h2q0 -4 4 -4q-72 -41 -110.5 -63.5t-67.5 -38.5q27 -18 56.5 -44t64.5 -54.5t77 -59.5t97 -59q14 -23 29.5 -53.5t13.5 -47.5l-4 -8q2 -2 2 -8q-2 -12 -11.5 -22.5t-18.5 -20.5t-17.5 -20.5t-8.5 -22.5q-2 -4 -1 -6t1 -6q-8 0 -26.5 4t-28.5 -6 q-57 35 -80.5 51t-39 28.5t-36 27.5t-71.5 50q-16 4 -37 18.5t-45.5 32t-51 34t-50.5 24.5q-10 2 -18.5 -2t-16.5 -2q-4 2 -6 2t-7 2q-8 -4 -16 -13q-23 4 -51.5 11.5t-34.5 23.5q0 2 -2 3t-2 3q-2 0 -2 2v5q-6 14 -4 32q-12 4 -9 28t7 52v2q-2 4 -4 4t-4 2zM610 551 q2 2 3 2t5 4v2q-4 25 -8 49.5t11 30.5q-4 18 4 33v4l2 2q0 2 1 2t1 4q8 14 36.5 21.5t51.5 11.5q4 -4 8 -6t8 -6q2 2 5 3t7 3q8 0 16.5 -4.5t18.5 0.5q25 8 51.5 24.5t50 32.5t44 30.5t37.5 18.5q51 33 72.5 49.5t36.5 29.5t39 29.5t81 51.5q10 -10 28.5 -8t26.5 6v-10 q0 -12 8.5 -23.5t18.5 -23t18 -21.5t11 -23q0 -4 -3 -6l2.5 -5l2.5 -5q2 -16 -13.5 -46t-29.5 -56q-109 -55 -174.5 -114.5t-120.5 -98.5q27 -16 66.5 -39t111.5 -64q-4 0 -4 -4l-2 -2q23 -10 41 -20.5t34 -24.5q47 -39 77 -95.5t22 -115.5q-8 -10 -15.5 -24.5t-15.5 -29 t-15 -22.5t-14 -2q-2 0 -4 6q-10 -16 -17 -18t-13 2q-12 10 -18.5 22.5t-14.5 22.5q-14 12 -29.5 17.5t-30.5 15.5q-6 4 -10 15t-10 18q-25 18 -44.5 27t-36.5 16.5t-32.5 14.5t-29.5 17q-47 20 -78 44t-57.5 48.5t-55.5 50t-67 50.5q-25 6 -47.5 21.5t-36.5 43.5v9 q-4 4 -6.5 7t-4.5 5z" />
<glyph unicode="&#xad;" d="M133 469q0 100 59.5 135t143.5 35q6 0 23.5 -3t38 -7t38 -7.5t23.5 -3.5q33 0 62.5 1.5t64.5 1.5q57 0 89 8t56.5 17t51 17.5t75.5 8.5q8 0 23.5 -12.5t30 -29t24.5 -33t10 -26.5q0 -4 -6 -25.5t-14 -47t-17.5 -46t-17.5 -20.5t-8 4t-11 4q-12 0 -21 -18.5t-24 -18.5 q-12 0 -18 4.5t-21 4.5q-6 0 -44.5 -9.5t-89 -19.5t-99.5 -19.5t-76 -9.5q-33 0 -52 -2t-33.5 -3t-27 -3t-30.5 -2q-16 0 -49 4t-68 17.5t-60.5 38t-25.5 65.5z" />
<glyph unicode="&#xae;" horiz-adv-x="868" d="M152 866q0 4 3 25.5t7 48.5t10 50.5t10 31.5q20 35 35.5 62.5t32.5 54.5q31 53 82 92q8 6 19 12t24 12q12 6 26.5 12.5t24.5 10.5q49 23 101.5 30t103.5 7q4 0 26.5 -6t38.5 -11q14 -4 37 -21t33 -40q4 -8 11 -34.5t13.5 -56.5t11.5 -57.5t5 -39.5v-99q0 -43 -23.5 -101 t-65.5 -110.5t-97.5 -89.5t-116.5 -37h-41q-35 0 -79 15.5t-84 41t-69.5 59.5t-35.5 71q0 2 -11 8q-10 4 -16 12q-8 12 -12 21.5t-4 25.5zM225 909q0 -2 2 -4l4 -10q8 -16 9 -25q6 -47 31.5 -82.5t60.5 -61.5t74.5 -39t76.5 -13q18 0 40 7t42.5 17.5t35.5 20.5l24 16 q33 27 56.5 67t36.5 84t19 89t6 82q0 16 -5 47t-16 61.5t-30.5 53t-50.5 22.5q-47 0 -109.5 -6t-115.5 -41q-12 -8 -23.5 -19.5l-23.5 -23.5l-24.5 -24.5t-27.5 -22.5q-6 -4 -14 -19l-6 -8q0 -2 -2 -4l-2 -2q-2 0 -2 2q-2 0 -8 -6q-2 -4 -4 -6q-4 -10 -10.5 -22.5 t-12.5 -26.5q-12 -29 -21.5 -58.5t-9.5 -42.5v-2zM385 950q0 35 5 74t34 61q4 4 16 19q4 6 10.5 11t10.5 9q18 18 43.5 27.5t44.5 9.5q47 0 60.5 -28.5t13.5 -59.5q0 -16 -8.5 -33.5t-20.5 -35.5q-12 -16 -27.5 -36t-31.5 -38h47q2 0 2 -1t2 -1l2 -2q2 -2 4 -2 q23 0 43 -15.5t20 -27.5t-15 -34t-34 -22q-8 0 -22.5 5.5t-30.5 11.5q-4 2 -22.5 9t-22.5 7h-14l-19 10q4 -14 7 -35.5t3 -33.5q0 -14 -8 -35t-33 -21q-8 0 -17 7.5t-17.5 17.5t-14.5 18.5t-6 12.5q-2 4 -2 14q0 8 4 21q4 12 4 18v4q-2 16 -6 47t-4 47zM453 1006 q0 -39 22 -39q6 0 17 6q16 10 38.5 41t24.5 47q-10 25 -29 24h-4q-8 -4 -19 -14t-22.5 -22.5t-19.5 -24.5t-8 -18z" />
<glyph unicode="&#xaf;" horiz-adv-x="1024" d="M170 1194q0 43 13.5 67.5t37 37t55 15.5t66.5 3q4 0 19.5 1t34 1t33.5 1t20 1q29 0 53 1t53 1h75.5t47 1t44 1h64.5q8 0 20.5 -10t25 -24.5t20.5 -29t8 -22.5q0 -68 -34.5 -91.5t-98.5 -23.5q-4 0 -38 -1t-76 -2l-84 -2t-64 -1q-53 0 -73.5 -5t-49.5 -5h-16q-18 0 -45 2 t-51.5 10t-42 25.5t-17.5 48.5z" />
<glyph unicode="&#xb0;" horiz-adv-x="733" d="M61 1042q0 31 17.5 99.5t54.5 139.5t94.5 124t137.5 53q49 0 102 -39t99 -90t76 -102t30 -76q0 -53 -8.5 -84t-20.5 -53q-2 -6 -33.5 -32t-71.5 -53.5t-81 -49t-62 -21.5q-8 0 -22.5 -2t-22.5 -2q-27 0 -75 18.5t-96 47t-83 61.5t-35 61zM246 1094q0 -8 9 -21.5t24.5 -26 t35 -21.5t39.5 -9q8 0 35 7t54.5 19.5t49 28t21.5 31.5q0 18 -17.5 49t-41 61.5t-48 55t-40.5 30.5q-31 -16 -53.5 -45.5t-38 -61.5t-22.5 -59.5t-7 -37.5z" />
<glyph unicode="&#xb2;" horiz-adv-x="942" d="M-86 940q27 76 85 138.5t134 104.5t162 62.5t169 11t156.5 -49.5t124.5 -115q2 -41 -2 -59.5t11 -31.5q-27 -72 -57.5 -139t-67.5 -145q-8 -18 -26.5 -32.5t-27.5 -31.5q-14 -33 -29.5 -71.5t-32.5 -78.5t-37.5 -77t-43.5 -68q-20 -29 -38.5 -62.5t-41.5 -88.5 q-14 -35 -29.5 -50.5t-5.5 -47.5q37 4 78 20t84 35.5t88 41t88 36.5q45 16 88 25t78 3t61.5 -32.5t41.5 -83.5q-25 -31 -48.5 -50.5t-48 -33t-55.5 -22.5t-72 -19q-6 -23 -36.5 -36t-42.5 -9q0 -4 -23 -19.5t-53.5 -32t-58 -31t-35.5 -16.5q-61 -20 -132 -5.5t-130.5 54 t-95.5 99t-25 129.5q10 80 53 151.5t80 139.5q25 47 50 91t50 91q53 98 101.5 197.5t84.5 205.5q2 10 -21.5 22.5t-31.5 12.5q-12 2 -26.5 -2t-30 -10t-29.5 -13.5t-24 -11.5q-12 -6 -30 -16t-34 -22.5t-29.5 -27t-19.5 -28.5q0 -2 -2 -2q-8 -23 -9 -44.5t-18 -41.5 q-29 -31 -66.5 -31t-72.5 13q-8 2 -30.5 14t-46 28.5t-40 33t-12.5 28.5z" />
<glyph unicode="&#xb3;" horiz-adv-x="800" d="M-35 1049q23 74 71 124t109.5 78.5t130 40t136.5 6.5q20 -23 44.5 -34t49 -19t49.5 -17t45 -28q47 -43 57.5 -92t-2 -102.5t-41 -107.5t-59.5 -107.5t-56.5 -103.5t-33.5 -93q39 -25 67.5 -54.5t54 -60t49 -59.5t52.5 -49q31 -59 37 -112.5t-4 -105t-33.5 -101.5 t-52.5 -101q-25 -8 -45.5 -23.5l-41 -31t-42 -28.5t-49.5 -15q-41 -6 -78 8t-72 37q-16 10 -29.5 21t-29.5 20q-16 10 -33.5 11t-34.5 7q-16 4 -31.5 11t-31.5 12q-6 47 7 69.5t64 28.5q39 4 79 0t77 12q25 8 48.5 27.5t43 45t30.5 53.5t9 56q-4 68 -33.5 109t-70.5 72.5 t-87 60.5t-83 72q0 41 12 85t30.5 87t39 84t36.5 76q4 10 14.5 30.5t15.5 41t2 34.5t-23 12q-14 -2 -27.5 -11t-26 -21.5t-22.5 -25.5t-21 -22q-14 -14 -33.5 -23t-37.5 -15q-29 -8 -38 -4t-32 24q-6 4 -26.5 19.5t-43 33t-40 33.5t-15.5 25z" />
<glyph unicode="&#xb4;" horiz-adv-x="1024" d="M369 1051q0 12 3 18t10 13.5t16.5 17.5t21.5 26q27 39 42 62.5t23.5 40t14.5 28t16 27.5q20 33 32.5 54.5t18.5 42t8.5 46t2.5 70.5q0 20 20 41t50 38t61.5 28.5t54.5 11.5q31 0 48 -21.5t25.5 -49t10.5 -53.5t2 -36q0 -18 -12.5 -45t-32 -55.5t-43 -59t-45.5 -61.5 q-18 -25 -54 -62.5t-78 -74.5t-88 -62.5t-85 -25.5q-16 0 -29.5 15t-13.5 26z" />
<glyph unicode="&#xb6;" horiz-adv-x="1124" d="M61.5 -208.5q-2.5 15.5 1 30t10.5 26t23 13.5q35 4 59.5 16t53.5 31q27 20 47 41q23 16 41 35.5t35 40.5q35 37 66.5 79.5t52.5 90.5q8 23 0.5 46t-22.5 43.5t-35.5 36t-39.5 25.5q-14 10 -28.5 18.5t-24.5 18.5q-31 20 -64.5 38.5t-63.5 41t-53.5 51.5t-35.5 66 q-8 33 -8 60.5t4 55.5q2 27 7 54.5t17 52.5q10 25 19.5 49.5t19.5 48.5q18 49 55.5 95t71.5 87q31 37 71 70t89 43q0 14 1 27.5t1 25.5q2 55 25 111q10 23 19 46.5t20 49.5q18 47 55 94t72 88t76.5 75t95.5 42q23 4 54.5 1t51.5 -17q18 -12 32.5 -21.5t35.5 -19.5 q25 -8 43 -25.5t28 -40.5q25 -51 0 -104q-2 -4 -21.5 -12.5t-23.5 -8.5q-14 -2 -33.5 5.5t-33.5 11.5q-20 8 -31 8q-14 0 -20 -4q-18 -10 -35 -27.5t-29 -30.5q-23 -27 -42 -49t-38 -51q-29 -45 -54.5 -86t-21.5 -98q2 -35 21.5 -59.5t47.5 -43t56.5 -34t51.5 -33.5 q20 -16 42.5 -31.5t43.5 -32.5q16 -16 36.5 -29.5t39 -29.5t31.5 -36.5t15 -49.5q2 -66 -32 -133q-27 -45 -53.5 -90t-61.5 -88q-31 -43 -67.5 -84t-77.5 -76q-18 -12 -34 -25.5t-34 -23.5q6 -18 6 -35q4 -35 -6 -68.5t-27 -62.5q-25 -47 -53.5 -92t-58.5 -88 q-31 -45 -70 -85t-78 -75q-20 -16 -38.5 -30.5t-43.5 -24.5q-10 -8 -22 -16.5t-23 -12.5q-14 -4 -27.5 -6t-23.5 -4q-4 0 -18.5 -2t-14.5 -4q-33 18 -67.5 31.5t-48.5 51.5q-4 12 -6.5 27.5zM328 616q2 -31 18 -52t40 -36.5t51.5 -27t49.5 -23.5q14 -8 25 -16q14 6 25.5 13 t25.5 18q10 10 20.5 17t20.5 17q20 14 36.5 31.5t33.5 36.5q29 35 56.5 74t45.5 80q8 20 1 39.5t-20.5 38t-31.5 32.5t-33 25q-14 8 -26.5 14t-24.5 14q-4 4 -11 8.5t-14 8.5q-27 14 -43 12q-4 4 -13 6t-15 0q-12 0 -17 -4q-18 -8 -32.5 -23.5t-24.5 -29.5 q-20 -18 -37.5 -41t-34.5 -45q-29 -39 -52 -88t-19 -99z" />
<glyph unicode="&#xb7;" horiz-adv-x="606" d="M125 543q0 49 9 78.5t24.5 47t38 24.5t49.5 12q12 0 20 10t21 10q16 0 21 -12.5t18 -12.5q16 0 13 4.5t11 4.5q25 0 47.5 -19.5t38 -45.5t24.5 -50.5t9 -36.5q0 -37 -20.5 -70.5t-50 -61.5t-64.5 -44t-66 -16q-35 0 -61.5 21.5t-45 50t-27.5 58t-9 48.5z" />
<glyph unicode="&#xb8;" horiz-adv-x="966" d="M100 -594q0 8 9.5 31.5t17.5 42.5q41 6 78 38.5t64.5 79t43 98.5t15.5 97v14q0 16 22.5 37t32.5 25q6 4 26.5 9t43.5 5q18 0 34 -6t30.5 -20.5t26 -32t18.5 -32.5t7 -23q0 -53 -29.5 -105.5t-74.5 -100.5t-99.5 -87t-103.5 -64q-12 -6 -29.5 -17t-35 -23.5t-30.5 -20.5 t-17 -8q-16 0 -33 25.5t-17 37.5z" />
<glyph unicode="&#xb9;" horiz-adv-x="724" d="M-92 997q59 0 110.5 22.5t97.5 56.5t87 75t80 78q16 18 32.5 37.5t34 37t33.5 30t35 12.5q10 0 30.5 -8.5t46 -19.5t52 -23.5t49.5 -20.5q10 -4 17.5 -22.5t27.5 -22.5q4 -74 -2 -140.5t-17.5 -131t-25.5 -129t-27 -134.5q-20 -55 -27 -125.5t-11.5 -147.5t-8.5 -159 t-16 -158q-4 -29 -9 -57.5t1 -85.5q2 -20 7 -40.5t7 -39t-2 -37t-21 -34.5q-41 -12 -69.5 -5t-53 24t-51 39.5t-59.5 39.5q6 180 18.5 356t53.5 332q-10 37 -6 77t12 81t16 79.5t4 73.5q0 4 -9 3t-19.5 -6t-19.5 -9t-11 -6q-12 -8 -26.5 -16.5t-24.5 -18.5q-4 -6 -11.5 -12 t-11.5 -13q0 -2 -1 -11t1 -9q-39 -27 -97 -12.5t-110.5 48.5t-85 77t-20.5 75z" />
<glyph unicode="&#xba;" horiz-adv-x="1204" d="M16 266q0 51 18.5 93t18.5 92v10q16 41 41 74.5t45 74.5q39 86 90.5 161t107.5 144.5t116.5 137t119.5 135.5q37 43 74 83t76 68l20 15l-4 24q-8 47 -19 87t-11 63q0 20 10 37h8q33 0 61 16q23 -12 48.5 -21.5t35.5 -23.5l13 -14l16 -2q51 -8 85 -37t61.5 -71t54 -94 t63.5 -108q18 -78 42 -144.5t24 -125.5q0 -131 -24.5 -226.5t-67.5 -173t-100.5 -147t-123.5 -147.5q-14 -16 -25 -36t-28 -32q-51 -43 -110.5 -94t-125 -97t-136 -77t-142.5 -31q-49 0 -98 12t-72 35q-8 8 -12 16.5t-19 18.5q-35 18 -59.5 53t-39.5 77t-23.5 88t-8.5 87z M264 266q0 -14 1 -27.5t1 -29.5q4 -35 7 -42t40 -7q66 0 122.5 26.5t106.5 67.5t96 90t91 94q121 119 185.5 262.5t64.5 317.5l2 51q-29 2 -54.5 2t-54.5 -14q-45 -31 -84.5 -73t-76.5 -81q-41 -41 -81 -84t-79 -86q-41 -45 -90 -100t-93 -116.5t-74 -125t-30 -125.5z" />
<glyph unicode="&#xbb;" horiz-adv-x="1533" d="M68 915q6 8 11 24.5t10 32t11 26t13 6.5l4 -5q8 16 15 19.5t18 -0.5q10 -8 19 -20.5t19 -18.5q14 -10 31 -12t33 -11q4 -4 11 -15t16 -15q51 -31 84.5 -35t66.5 -23q49 -12 84 -30.5t65.5 -38t62.5 -41t77 -39.5q51 0 94 -53v-9l5 -5l3 -3q0 -2 -4 -6v-4 q10 -25 16.5 -49.5t-6.5 -28.5q6 -18 2 -33q0 -2 -2 -4v-2q0 -2 -1 -3t-1 -3q-4 -18 -31.5 -31.5t-50.5 -19.5q-4 4 -9 6t-9 6q-2 -4 -5 -5t-7 -5q-8 -2 -16.5 1t-18.5 1q-25 -12 -47.5 -32.5t-44 -42t-40 -39t-32.5 -25.5q-47 -41 -65.5 -60.5t-33 -34l-34 -34t-70.5 -62.5 q-16 10 -31.5 3t-23.5 -7v6t-4 6q-2 12 -11.5 20.5t-20.5 18t-22.5 17.5t-15.5 20q0 6 2 8q2 0 -6 9q-6 16 6.5 46.5t22.5 57.5q51 37 88 75t66.5 71.5t54 63t49.5 52.5q-27 10 -71 28.5t-122 47.5q6 2 7 4h2q-49 12 -86 37q-53 31 -90 82t-37 110zM723 219q-6 59 29 114.5 t84 90.5q33 23 79 39l-2 2q0 2 -4 4q76 37 118 56.5t69 33.5q-27 20 -53.5 48t-59.5 58.5t-74 64.5t-94 67q-12 27 -25.5 58.5t-11.5 45.5q4 4 5 6t3 4q-2 2 -2 9q2 12 11.5 21t20.5 19.5t20.5 20.5t11.5 23v10q8 -2 26.5 -6t28.5 4q55 -39 76.5 -57.5t37 -32t35 -32 t68.5 -54.5q14 -6 36 -19.5t46.5 -30t49 -36t44.5 -35.5q23 -20 50.5 -33.5t52 -30t40 -39t11.5 -59.5v-2q0 -4 6 -6q-4 -2 -5 -4t-5 -4v-11q-16 -29 -41 -42t-49 -19q-43 -20 -73 -44t-58.5 -46.5t-62.5 -44t-83 -39.5q-14 -10 -29.5 -15.5t-33 -10.5t-39 -14t-47.5 -26 q-4 -4 -10.5 -15t-10.5 -15q-16 -10 -31.5 -13.5t-31.5 -17.5q-8 -6 -16.5 -18.5t-18.5 -22.5q-8 -4 -15.5 -2t-17.5 18l-4 -4q-6 -4 -12 4t-13.5 22.5t-13.5 31t-12 26.5z" />
<glyph unicode="&#xc0;" horiz-adv-x="1296" d="M-37 63v5q4 61 36 107t73 92t82 99.5t63 131.5q10 23 37 47t47 53q10 14 19.5 37.5t18.5 49.5t19.5 52.5t22.5 46.5q25 41 64.5 109t86 144.5t96.5 154.5t96 140.5t84 101.5t60 39q51 0 81 -19.5t45.5 -53.5t18.5 -83t3 -107q0 -51 -1 -90t-1 -78q0 -51 4 -114.5 t14 -167.5q0 -14 8.5 -20.5t20.5 -8.5t25.5 -4t23.5 -8q27 -20 35 -57t8 -58v-6q-2 -37 -17.5 -53.5t-34 -28.5t-34.5 -27.5t-18 -48.5q0 -6 4 -24.5t9 -43t12 -51t13 -49.5q4 -20 29 -42.5t37 -45.5q8 -18 14.5 -42.5t10.5 -48t6 -43t2 -27.5q-2 -16 -16.5 -56.5t-38 -82.5 t-51 -74.5t-58.5 -32.5q-41 0 -66.5 27.5t-41 69.5t-20.5 92t-7 94t-2 75t-2 35q-4 31 -6.5 54.5t-4.5 50t-6 58.5t-14 79q-55 -16 -117.5 -24.5t-126 -18t-122 -24.5t-105.5 -44q-27 -14 -43 -50t-31.5 -79t-31 -90t-38 -86t-53 -63.5t-78.5 -24.5q-29 0 -54 16.5t-45.5 41 t-32 51t-11.5 46.5zM512 610q0 -16 13.5 -20t29.5 -4h20q6 0 11 2q18 2 59 15t84 28.5t77 28t38 16.5l14 190q-10 82 -17 141.5t-22 120.5q-25 -29 -47 -62.5t-45 -66.5q-8 -12 -26.5 -41.5t-43 -69.5t-50 -84t-47 -84t-35 -69.5t-13.5 -40.5zM541 1935v21q41 12 72.5 30.5 t64.5 18.5q31 0 54.5 -21.5t43 -52t35.5 -65.5t31 -62q47 -84 73.5 -142t55.5 -101q8 -10 8 -23q0 -33 -51 -33q-31 0 -71 15.5t-112 74.5q0 20 -18 28.5t-31 23.5q-41 47 -70.5 76.5t-48 57t-27.5 62.5t-9 92z" />
<glyph unicode="&#xc1;" horiz-adv-x="1296" d="M-37 63v5q4 61 36 107t73 92t82 99.5t63 131.5q10 23 37 47t47 53q10 14 19.5 37.5t18.5 49.5t19.5 52.5t22.5 46.5q25 41 64.5 109t86 144.5t96.5 154.5t96 140.5t84 101.5t60 39q51 0 81 -19.5t45.5 -53.5t18.5 -83t3 -107q0 -51 -1 -90t-1 -78q0 -51 4 -114.5 t14 -167.5q0 -14 8.5 -20.5t20.5 -8.5t25.5 -4t23.5 -8q27 -20 35 -57t8 -58v-6q-2 -37 -17.5 -53.5t-34 -28.5t-34.5 -27.5t-18 -48.5q0 -6 4 -24.5t9 -43t12 -51t13 -49.5q4 -20 29 -42.5t37 -45.5q8 -18 14.5 -42.5t10.5 -48t6 -43t2 -27.5q-2 -16 -16.5 -56.5t-38 -82.5 t-51 -74.5t-58.5 -32.5q-41 0 -66.5 27.5t-41 69.5t-20.5 92t-7 94t-2 75t-2 35q-4 31 -6.5 54.5t-4.5 50t-6 58.5t-14 79q-55 -16 -117.5 -24.5t-126 -18t-122 -24.5t-105.5 -44q-27 -14 -43 -50t-31.5 -79t-31 -90t-38 -86t-53 -63.5t-78.5 -24.5q-29 0 -54 16.5t-45.5 41 t-32 51t-11.5 46.5zM512 610q0 -16 13.5 -20t29.5 -4h20q6 0 11 2q18 2 59 15t84 28.5t77 28t38 16.5l14 190q-10 82 -17 141.5t-22 120.5q-25 -29 -47 -62.5t-45 -66.5q-8 -12 -26.5 -41.5t-43 -69.5t-50 -84t-47 -84t-35 -69.5t-13.5 -40.5zM686 1544q0 12 3 18.5 t10.5 13.5t16.5 17.5t21 26.5q27 39 42.5 62.5t23.5 40t14 27.5t17 28q20 33 32.5 54t18.5 41.5t8 46.5t2 71q0 20 20.5 40.5t50 38t61.5 28.5t54 11q31 0 48.5 -21.5t25.5 -49t10 -53t2 -35.5q0 -18 -12 -45t-31.5 -55.5t-43 -59.5t-46.5 -61q-18 -25 -54 -63t-78 -75 t-88 -62.5t-85 -25.5q-16 0 -29.5 15.5t-13.5 25.5z" />
<glyph unicode="&#xc2;" horiz-adv-x="1296" d="M-37 63v5q4 61 36 107t73 92t82 99.5t63 131.5q10 23 37 47t47 53q10 14 19.5 37.5t18.5 49.5t19.5 52.5t22.5 46.5q25 41 64.5 109t86 144.5t96.5 154.5t96 140.5t84 101.5t60 39q51 0 81 -19.5t45.5 -53.5t18.5 -83t3 -107q0 -51 -1 -90t-1 -78q0 -51 4 -114.5 t14 -167.5q0 -14 8.5 -20.5t20.5 -8.5t25.5 -4t23.5 -8q27 -20 35 -57t8 -58v-6q-2 -37 -17.5 -53.5t-34 -28.5t-34.5 -27.5t-18 -48.5q0 -6 4 -24.5t9 -43t12 -51t13 -49.5q4 -20 29 -42.5t37 -45.5q8 -18 14.5 -42.5t10.5 -48t6 -43t2 -27.5q-2 -16 -16.5 -56.5t-38 -82.5 t-51 -74.5t-58.5 -32.5q-41 0 -66.5 27.5t-41 69.5t-20.5 92t-7 94t-2 75t-2 35q-4 31 -6.5 54.5t-4.5 50t-6 58.5t-14 79q-55 -16 -117.5 -24.5t-126 -18t-122 -24.5t-105.5 -44q-27 -14 -43 -50t-31.5 -79t-31 -90t-38 -86t-53 -63.5t-78.5 -24.5q-29 0 -54 16.5t-45.5 41 t-32 51t-11.5 46.5zM442 1583q0 14 12.5 42t34.5 44q20 14 65.5 47t84.5 66q31 25 52.5 52.5t40 51t39 37.5t46.5 14q10 0 32.5 -12t47.5 -28.5t46.5 -31t27.5 -18.5q20 -12 60 -37.5t69 -48.5q12 -6 35.5 -18t38.5 -21q31 -16 52 -44.5t21 -57.5q0 -53 -13 -65.5t-48 -12.5 h-45q-47 0 -88 19.5t-76 44t-65.5 44t-55.5 19.5q-31 0 -65.5 -19.5t-72.5 -46t-78 -52t-81 -40.5q-18 -6 -39 -6q-35 0 -56.5 20.5t-21.5 57.5zM512 610q0 -16 13.5 -20t29.5 -4h20q6 0 11 2q18 2 59 15t84 28.5t77 28t38 16.5l14 190q-10 82 -17 141.5t-22 120.5 q-25 -29 -47 -62.5t-45 -66.5q-8 -12 -26.5 -41.5t-43 -69.5t-50 -84t-47 -84t-35 -69.5t-13.5 -40.5z" />
<glyph unicode="&#xc3;" horiz-adv-x="1296" d="M-37 63v5q4 61 36 107t73 92t82 99.5t63 131.5q10 23 37 47t47 53q10 14 19.5 37.5t18.5 49.5t19.5 52.5t22.5 46.5q25 41 64.5 109t86 144.5t96.5 154.5t96 140.5t84 101.5t60 39q51 0 81 -19.5t45.5 -53.5t18.5 -83t3 -107q0 -51 -1 -90t-1 -78q0 -51 4 -114.5 t14 -167.5q0 -14 8.5 -20.5t20.5 -8.5t25.5 -4t23.5 -8q27 -20 35 -57t8 -58v-6q-2 -37 -17.5 -53.5t-34 -28.5t-34.5 -27.5t-18 -48.5q0 -6 4 -24.5t9 -43t12 -51t13 -49.5q4 -20 29 -42.5t37 -45.5q8 -18 14.5 -42.5t10.5 -48t6 -43t2 -27.5q-2 -16 -16.5 -56.5t-38 -82.5 t-51 -74.5t-58.5 -32.5q-41 0 -66.5 27.5t-41 69.5t-20.5 92t-7 94t-2 75t-2 35q-4 31 -6.5 54.5t-4.5 50t-6 58.5t-14 79q-55 -16 -117.5 -24.5t-126 -18t-122 -24.5t-105.5 -44q-27 -14 -43 -50t-31.5 -79t-31 -90t-38 -86t-53 -63.5t-78.5 -24.5q-29 0 -54 16.5t-45.5 41 t-32 51t-11.5 46.5zM512 610q0 -16 13.5 -20t29.5 -4h20q6 0 11 2q18 2 59 15t84 28.5t77 28t38 16.5l14 190q-10 82 -17 141.5t-22 120.5q-25 -29 -47 -62.5t-45 -66.5q-8 -12 -26.5 -41.5t-43 -69.5t-50 -84t-47 -84t-35 -69.5t-13.5 -40.5zM532 1622q0 23 14.5 48.5 t33 51t37 50t28.5 47.5q41 18 57.5 28.5t24.5 15.5t16.5 6t34.5 1q59 0 106.5 -50.5t78.5 -119.5h10q6 10 10 23.5t4 19.5q0 31 -12 47t-25.5 28.5t-26 28t-12.5 45.5q0 10 11.5 23.5t26 26t29.5 20.5t26 8q45 0 70.5 -23.5t37.5 -59.5t14 -79t2 -82q0 -31 -5 -68.5 t-21.5 -69.5t-45 -54.5t-75.5 -22.5q-41 0 -70.5 19.5t-52 49.5t-39 64.5t-31.5 65.5q-27 -10 -48 -39t-38.5 -60.5t-28.5 -56t-20 -24.5h-39q-18 0 -32.5 10t-25.5 24.5t-17.5 31t-6.5 26.5z" />
<glyph unicode="&#xc4;" horiz-adv-x="1220" d="M-12 29q0 29 10 57.5t26.5 55t36 51t37.5 45.5q10 10 18.5 25.5t18.5 25.5q12 14 24.5 19t24.5 22q59 88 118.5 177t115.5 177q29 47 63.5 89t65.5 89q27 41 49 83t53 83q20 29 29.5 60.5t21 60.5t31 49.5t62.5 24.5h10l2 10q6 16 8 34.5t2 35.5q0 14 -1 27t-1 30 q0 6 1 12t1 12q0 18 -4 43t-4 48q0 29 19.5 52t47.5 27l15 -8q53 -33 95 -59.5t85 -67.5q6 -72 6 -145q0 -88 -4 -183.5t-4 -187.5q0 -47 -7 -92t-7 -90q0 -23 6 -46.5t6 -45.5q0 -10 -2 -17q8 4 21.5 15.5t23.5 11.5q14 -23 26.5 -38t24.5 -29.5t26.5 -28t35.5 -29.5 q2 -2 2 -6q0 -6 -6.5 -20.5t-14.5 -28t-16 -24.5t-10 -13q-8 -10 -17.5 -21.5t-19.5 -21.5q-31 -29 -70 -31v-14q0 -74 -2 -156t-18 -153q-10 -37 -15.5 -76t-20 -70t-44 -50t-86.5 -19q-20 0 -39 11t-34 26.5t-25.5 33t-12.5 29.5q10 8 17.5 26.5t10.5 40t5 41t4 31.5 q6 51 6 107q0 29 -2 56.5t-2 55.5v19.5t2 19.5l2 12l-18 7q-53 23 -100.5 43t-106.5 49l-15 6l-6 -12q-25 -49 -59.5 -94.5t-69 -89.5t-64.5 -87t-44 -86q-20 -16 -35.5 -41.5t-31 -50t-36 -43t-49.5 -18.5t-62.5 13t-62 33.5t-48 42t-19.5 38.5zM584 1636v42v34q4 23 6 32 t9 17t21.5 22.5t41.5 47.5q4 -2 11 -6t17 -4q10 -2 27.5 6t27.5 8q31 -4 53.5 -25.5t36 -48t18.5 -55.5t3 -47q-2 -16 -17.5 -38t-36 -41t-44 -31.5t-43.5 -10.5q-16 2 -38 17.5t-42.5 33t-34.5 31.5zM686 635q16 -23 16 -27h-2q33 -10 52.5 -21.5t42.5 -11.5t43 11l-7 14 q-6 14 -6 29v41.5t9 58.5q0 8 -1.5 20.5t-4.5 24.5t-9 20.5t-18 8.5q-16 0 -22.5 -13.5t-16.5 -23.5l-6 -8q-23 -35 -38.5 -71t-31.5 -52zM940 1751q2 20 19.5 36.5t40 28t44 18.5t31.5 5q27 -4 51.5 -24.5t44 -46t30.5 -53.5t9 -46t-8 -45t-22.5 -49.5t-43 -37.5t-69.5 -11 q-31 4 -55.5 32.5t-41 66.5t-24.5 73t-6 53z" />
<glyph unicode="&#xc5;" horiz-adv-x="1017" d="M-51 -41q0 88 19.5 150.5t47 118t57 115.5t52.5 146q14 47 24.5 79t21.5 50.5t23.5 27.5t30.5 13l6 3v4q23 78 60 154.5t80 152.5t86 152.5t78 156.5q10 0 40 12h3l18 6q12 2 32.5 11.5t44 18.5t46 16.5t39.5 7.5q21 -1 39 -19q53 -59 65 -130.5t12 -147.5t-7 -151 t-7 -140v-25q0 -12 10.5 -31.5t21.5 -42t21.5 -46t10.5 -43.5q0 -31 -16.5 -51.5t-37.5 -43.5q-45 -47 -56 -92t-11 -96q0 -47 5 -92t5 -88q0 -35 -7 -67t-28 -60q-57 -20 -92 -21q-76 0 -104 78q16 33 24 69t13.5 71.5t7.5 72.5t6 72l2 4l-4 2q-29 25 -64 30t-71.5 5 t-73.5 2t-68 18l-4 2l-6 -4q-23 -18 -41 -47t-33.5 -59.5t-27 -61.5t-15.5 -55q-18 -18 -37.5 -73.5t-42 -114t-50 -103.5t-62.5 -45q-31 0 -58.5 33t-27.5 96zM457 612l6 -4q10 -8 31 -8q23 0 49 9t55 9q4 0 8 -1t8 -1l7 5q23 33 27.5 65.5t4.5 65t1 63.5t20 59l8 15h-14 q-10 0 -14.5 11t-20.5 11q-2 0 -4 -1t-6 -1l-5 -4q-25 -41 -45 -73.5t-39.5 -65.5t-38 -67.5t-36.5 -80.5zM522 1815q0 16 5 40.5t12.5 49t16.5 48t17 36.5q20 35 53 54t74 19t88 -18q2 -16 15.5 -24.5t29 -13.5t27.5 -10t14 -16l3 -12h14q23 0 39 -20q16 -6 43.5 -43 t55.5 -88.5t47.5 -108.5t17.5 -104q-12 -55 -39 -90t-63 -56.5t-74.5 -33t-75.5 -15.5q-39 37 -103 37v18l-10 4q-35 10 -71.5 30t-67.5 57.5t-49.5 100t-18.5 159.5zM764 1686q0 -25 5 -47.5t22 -43.5l6 -8l10 4q35 10 47 29.5t12 42.5q0 27 -8 51.5t-8 48.5v11v8l-8 4 q-4 4 -13.5 9t-25.5 5h-10l-9 -2l-2 -8q-8 -23 -13 -49.5t-5 -54.5z" />
<glyph unicode="&#xc6;" horiz-adv-x="1652" d="M-115 264q0 4 1 16.5t4.5 25.5t8.5 23.5t11 10.5h90q78 86 142.5 180t129.5 189q53 78 98.5 152.5t86.5 162.5q25 53 51.5 110.5t58.5 108.5q18 27 30.5 67t27 76.5t34 63.5t54.5 27q86 0 155.5 -9.5t149.5 -9.5q117 0 229.5 8.5t225.5 28.5q27 4 64.5 10t78.5 6 q53 0 95 -18t42 -72q0 -35 -40 -60.5t-104.5 -45t-149.5 -31.5t-175 -19.5t-180 -10.5t-164 -3q4 -49 7 -112.5t3 -128.5q0 -82 -5 -160t-15 -131q14 -2 26.5 -3t26.5 -1q70 0 136.5 17.5t132 42t129 49t128.5 38.5q10 -16 22.5 -34.5t12.5 -45.5q0 -72 -68.5 -122 t-166 -83.5t-203 -53t-176.5 -29.5q-8 -2 -14.5 -37t-9.5 -78t-4 -82t-1 -49q0 -14 -2 -40t-2 -54q0 -47 11.5 -82t45.5 -35q20 0 44 10t48.5 25.5t46 32t37.5 26.5q55 37 110.5 73t115.5 66q0 12 12 33t29.5 42.5t36 36.5t30.5 15q18 0 39 -6t38.5 -15t28.5 -22.5t11 -27.5 q0 -76 -34 -135.5t-82 -105.5t-100 -82t-91 -66q-66 -35 -138.5 -68t-150.5 -33q-49 0 -100 19q-33 12 -71 38.5t-70.5 59.5t-55 68.5t-22.5 66.5q0 23 6 43.5t8 42.5q0 20 3 68.5t7 97.5t10.5 87t12.5 38q-31 23 -74 29t-90 6q-35 0 -66.5 -2t-58.5 -4q-35 -37 -62.5 -89.5 t-58.5 -107.5t-67.5 -106.5t-90.5 -86.5q-10 -6 -26 -6q-45 0 -85 16.5t-72 41t-51.5 53.5t-25.5 55zM532 700q20 -6 44 -8t49 -2q23 0 44 1t44 1q4 47 9 97.5t5 97.5q0 43 -7 81t-24 66q-33 -92 -80 -169t-84 -165z" />
<glyph unicode="&#xc7;" horiz-adv-x="997" d="M1 229.5q1 36.5 1 32.5q0 133 27.5 256t81 237.5t133.5 226.5t184 224q31 33 71 57.5t76 53.5q23 18 43.5 38.5t42 38t46 30t59.5 12.5q84 0 127 -25t63.5 -64.5t27.5 -88t22 -97.5v2v-4q0 -4 1 -7t1 -7q0 -27 -25 -56.5t-55.5 -54t-57 -40t-30.5 -15.5q-20 0 -30.5 31.5 t-14.5 71.5t-6.5 78t-4.5 48q-29 -6 -60.5 -27.5t-61 -49t-57 -56t-50.5 -51.5q-55 -55 -117.5 -136t-115 -178.5t-86 -207t-33.5 -221.5q0 -35 6 -70t23.5 -61.5t49 -43t83.5 -16.5q45 0 79.5 17.5t75.5 27.5q23 4 44.5 14.5t45.5 10.5q41 0 41 -37q2 -20 -9 -43t-24 -39 q-29 -41 -53 -61.5t-50 -30.5t-54.5 -14.5t-61.5 -8.5t-64.5 -9t-64.5 -5q-41 0 -66.5 12.5t-45 27.5t-38 31.5t-44.5 22.5q-35 8 -50.5 51t-20.5 89.5t-4 83zM14 -594q0 8 8.5 31.5t16.5 42.5q41 6 78 38.5t64.5 79t44 99.5t16.5 98v12q0 16 22.5 37t32.5 25q6 4 26.5 9 t43.5 5q18 0 34 -6t30.5 -20.5t26 -32t18.5 -32.5t7 -23q0 -53 -29.5 -105.5t-74.5 -100.5t-99.5 -87t-103.5 -64q-12 -6 -30.5 -17t-36 -23.5t-30.5 -20.5t-18 -8q-16 0 -31.5 25.5t-15.5 37.5z" />
<glyph unicode="&#xc8;" d="M-14 623q0 35 6 54t16 32.5t24.5 26t30.5 34.5q18 25 35 56.5t29 65.5t19.5 66.5t7.5 55.5q0 27 -13.5 56.5t-29 58t-28.5 55t-13 45.5q0 39 30.5 61.5t81.5 37.5t115.5 27.5t132.5 30.5q31 6 87 20.5t126 29t145.5 26t145.5 11.5q202 0 231 -113q2 -10 3 -18.5t1 -16.5 q0 -43 -41 -61.5t-94 -23.5t-102 -3t-68 0q-4 0 -40 -6t-87 -16.5t-109.5 -22.5t-110.5 -26.5t-89 -28t-45 -23.5l-2 -16q4 -25 15.5 -42.5t21.5 -32.5t19 -31.5t12 -37.5l2 -18l16 2q55 2 125 18.5t139.5 34t132 31.5t103.5 14q12 0 21 -10t15.5 -24.5t9.5 -26.5t3 -19 q2 -23 -13.5 -44t-44.5 -48q-55 -51 -122.5 -79.5t-138 -49t-141.5 -41t-134 -53.5q-47 -27 -93 -53.5t-91 -57.5l-2 -8q-10 -72 -29 -139.5t-19 -132.5q0 -35 7 -66l6 -18l18 8q92 31 171 87t138 132q14 18 26.5 44t27 49.5t31 40t38.5 16.5q14 0 28.5 -19.5t26 -46 t18.5 -55.5t7 -49q0 -45 -17.5 -85t-47 -75t-67.5 -66.5t-77 -62.5q-35 -27 -69.5 -60.5t-70.5 -63.5t-74 -50.5t-75 -20.5q-70 0 -126 45.5t-89 96.5q-20 100 -23 194t-3 187q0 53 -3 105t-3 106zM248 1935v21q41 12 72.5 30.5t64.5 18.5q31 0 54.5 -21.5t43 -52t36 -65.5 t30.5 -62q47 -84 73.5 -142t55.5 -101q8 -10 8 -23q0 -33 -51 -33q-31 0 -71 15.5t-111 74.5q0 20 -18.5 28.5t-31.5 23.5q-41 47 -70.5 76.5t-48 57t-27.5 62.5t-9 92z" />
<glyph unicode="&#xc9;" d="M-14 623q0 35 6 54t16 32.5t24.5 26t30.5 34.5q18 25 35 56.5t29 65.5t19.5 66.5t7.5 55.5q0 27 -13.5 56.5t-29 58t-28.5 55t-13 45.5q0 39 30.5 61.5t81.5 37.5t115.5 27.5t132.5 30.5q31 6 87 20.5t126 29t145.5 26t145.5 11.5q202 0 231 -113q2 -10 3 -18.5t1 -16.5 q0 -43 -41 -61.5t-94 -23.5t-102 -3t-68 0q-4 0 -40 -6t-87 -16.5t-109.5 -22.5t-110.5 -26.5t-89 -28t-45 -23.5l-2 -16q4 -25 15.5 -42.5t21.5 -32.5t19 -31.5t12 -37.5l2 -18l16 2q55 2 125 18.5t139.5 34t132 31.5t103.5 14q12 0 21 -10t15.5 -24.5t9.5 -26.5t3 -19 q2 -23 -13.5 -44t-44.5 -48q-55 -51 -122.5 -79.5t-138 -49t-141.5 -41t-134 -53.5q-47 -27 -93 -53.5t-91 -57.5l-2 -8q-10 -72 -29 -139.5t-19 -132.5q0 -35 7 -66l6 -18l18 8q92 31 171 87t138 132q14 18 26.5 44t27 49.5t31 40t38.5 16.5q14 0 28.5 -19.5t26 -46 t18.5 -55.5t7 -49q0 -45 -17.5 -85t-47 -75t-67.5 -66.5t-77 -62.5q-35 -27 -69.5 -60.5t-70.5 -63.5t-74 -50.5t-75 -20.5q-70 0 -126 45.5t-89 96.5q-20 100 -23 194t-3 187q0 53 -3 105t-3 106zM438 1561q0 12 8 22q29 43 55.5 101.5t73.5 142.5q14 27 31 61.5t36.5 65.5 t43 52.5t53.5 21.5q33 0 65 -18.5t73 -31.5v-20q0 -57 -9.5 -92t-28 -62.5t-48 -57.5t-70.5 -77q-12 -14 -30.5 -22.5t-18.5 -28.5q-72 -59 -112 -74.5t-71 -15.5q-51 0 -51 33z" />
<glyph unicode="&#xca;" d="M-14 623q0 35 6 54t16 32.5t24.5 26t30.5 34.5q18 25 35 56.5t29 65.5t19.5 66.5t7.5 55.5q0 27 -13.5 56.5t-29 58t-28.5 55t-13 45.5q0 39 30.5 61.5t81.5 37.5t115.5 27.5t132.5 30.5q31 6 87 20.5t126 29t145.5 26t145.5 11.5q202 0 231 -113q2 -10 3 -18.5t1 -16.5 q0 -43 -41 -61.5t-94 -23.5t-102 -3t-68 0q-4 0 -40 -6t-87 -16.5t-109.5 -22.5t-110.5 -26.5t-89 -28t-45 -23.5l-2 -16q4 -25 15.5 -42.5t21.5 -32.5t19 -31.5t12 -37.5l2 -18l16 2q55 2 125 18.5t139.5 34t132 31.5t103.5 14q12 0 21 -10t15.5 -24.5t9.5 -26.5t3 -19 q2 -23 -13.5 -44t-44.5 -48q-55 -51 -122.5 -79.5t-138 -49t-141.5 -41t-134 -53.5q-47 -27 -93 -53.5t-91 -57.5l-2 -8q-10 -72 -29 -139.5t-19 -132.5q0 -35 7 -66l6 -18l18 8q92 31 171 87t138 132q14 18 26.5 44t27 49.5t31 40t38.5 16.5q14 0 28.5 -19.5t26 -46 t18.5 -55.5t7 -49q0 -45 -17.5 -85t-47 -75t-67.5 -66.5t-77 -62.5q-35 -27 -69.5 -60.5t-70.5 -63.5t-74 -50.5t-75 -20.5q-70 0 -126 45.5t-89 96.5q-20 100 -23 194t-3 187q0 53 -3 105t-3 106zM129 1642q0 14 12.5 42t34.5 45q20 14 65.5 46.5t84.5 65.5q31 25 52 52.5 t39.5 51t39 38t47.5 14.5q10 0 32.5 -12.5t47 -29t46 -30.5t27.5 -18q20 -12 60.5 -38t68.5 -48q12 -6 36 -18.5t38 -20.5q31 -16 52.5 -45t21.5 -58q0 -53 -13.5 -84.5t-48.5 -31.5h-45q-47 0 -88 19.5t-75.5 44t-65.5 44t-55 19.5q-31 0 -66 -19.5t-72.5 -46.5 t-77.5 -52.5t-81 -39.5q-18 -6 -39 -6q-35 0 -56.5 40t-21.5 76z" />
<glyph unicode="&#xcb;" d="M-14 623q0 35 6 54t16 32.5t24.5 26t30.5 34.5q18 25 35 56.5t29 65.5t19.5 66.5t7.5 55.5q0 27 -13.5 56.5t-29 58t-28.5 55t-13 45.5q0 39 30.5 61.5t81.5 37.5t115.5 27.5t132.5 30.5q31 6 87 20.5t126 29t145.5 26t145.5 11.5q202 0 231 -113q2 -10 3 -18.5t1 -16.5 q0 -43 -41 -61.5t-94 -23.5t-102 -3t-68 0q-4 0 -40 -6t-87 -16.5t-109.5 -22.5t-110.5 -26.5t-89 -28t-45 -23.5l-2 -16q4 -25 15.5 -42.5t21.5 -32.5t19 -31.5t12 -37.5l2 -18l16 2q55 2 125 18.5t139.5 34t132 31.5t103.5 14q12 0 21 -10t15.5 -24.5t9.5 -26.5t3 -19 q2 -23 -13.5 -44t-44.5 -48q-55 -51 -122.5 -79.5t-138 -49t-141.5 -41t-134 -53.5q-47 -27 -93 -53.5t-91 -57.5l-2 -8q-10 -72 -29 -139.5t-19 -132.5q0 -35 7 -66l6 -18l18 8q92 31 171 87t138 132q14 18 26.5 44t27 49.5t31 40t38.5 16.5q14 0 28.5 -19.5t26 -46 t18.5 -55.5t7 -49q0 -45 -17.5 -85t-47 -75t-67.5 -66.5t-77 -62.5q-35 -27 -69.5 -60.5t-70.5 -63.5t-74 -50.5t-75 -20.5q-70 0 -126 45.5t-89 96.5q-20 100 -23 194t-3 187q0 53 -3 105t-3 106zM244 1692q0 23 1 32t7 18t18.5 25.5t34.5 51.5q4 0 12.5 -3.5t18.5 -3.5 t26.5 10.5t26.5 10.5q31 0 55.5 -18.5t41 -43t25.5 -52.5t9 -46q0 -16 -12 -39.5t-30.5 -45t-40 -37t-42.5 -15.5q-16 0 -39.5 12.5t-46 26.5t-39 27.5t-18.5 13.5q-2 18 -5 41.5t-3 34.5zM592 1774q0 20 15.5 38.5t36 33t41 23.5t30.5 9q27 0 54.5 -17.5t50 -41t36.5 -49.5 t14 -44t-3 -45.5t-16 -52t-38 -43t-68 -18.5q-31 0 -58.5 25.5t-49 60.5t-33.5 68.5t-12 52.5z" />
<glyph unicode="&#xcc;" horiz-adv-x="612" d="M18 33q18 84 26.5 162.5t16 155.5t16.5 152t27 152q0 20 13.5 83t31 135.5t33 143t15.5 107.5q0 10 -7.5 21.5t-7.5 21.5q2 23 8.5 43.5t6.5 42.5q-2 14 -8.5 29.5t-6.5 32.5q0 12 7.5 20t29.5 13q-2 2 -2 6q0 10 12.5 14t31 5t36.5 0t31 3q59 -23 87.5 -88t28.5 -141 q0 -55 -16 -117h2q2 0 6 6q-20 -139 -47 -264t-52.5 -249t-45 -253.5t-27.5 -279.5q-20 -27 -48 -54.5t-44 -27.5q-6 0 -8 2q-2 -4 -8 -4q-12 0 -25.5 9t-27 19.5t-28 19.5t-26.5 9q-2 0 -10 -4q-2 10 -4 35.5t-17 38.5zM111 1853v21q41 12 72.5 30.5t64.5 18.5 q31 0 54.5 -21.5t43 -52t35.5 -65.5t31 -62q47 -84 73.5 -142t55.5 -101q8 -10 8 -23q0 -33 -51 -33q-31 0 -71 15.5t-112 74.5q0 20 -18 28.5t-31 23.5q-41 47 -70.5 76.5t-48 57t-27.5 62.5t-9 92z" />
<glyph unicode="&#xcd;" horiz-adv-x="612" d="M18 33q18 84 26.5 162.5t16 155.5t16.5 152t27 152q0 20 13.5 83t31 135.5t33 143t15.5 107.5q0 10 -7.5 21.5t-7.5 21.5q2 23 8.5 43.5t6.5 42.5q-2 14 -8.5 29.5t-6.5 32.5q0 12 7.5 20t29.5 13q-2 2 -2 6q0 10 12.5 14t31 5t36.5 0t31 3q59 -23 87.5 -88t28.5 -141 q0 -55 -16 -117h2q2 0 6 6q-20 -139 -47 -264t-52.5 -249t-45 -253.5t-27.5 -279.5q-20 -27 -48 -54.5t-44 -27.5q-6 0 -8 2q-2 -4 -8 -4q-12 0 -25.5 9t-27 19.5t-28 19.5t-26.5 9q-2 0 -10 -4q-2 10 -4 35.5t-17 38.5zM63 1454q0 12 3.5 18.5t10.5 13.5t16 17t22 27 q27 39 42 62.5t23 40t14.5 27.5t16.5 28q20 33 32.5 54t18.5 41.5t8 46t2 71.5q0 20 20.5 40.5t50.5 38t61.5 28.5t54.5 11q31 0 48 -21.5t25.5 -49t10.5 -53t2 -35.5q0 -18 -12.5 -45t-32 -55.5t-43 -59.5t-45.5 -62q-18 -25 -54 -62.5t-78 -74.5t-88.5 -62.5t-85.5 -25.5 q-16 0 -29.5 15.5t-13.5 25.5z" />
<glyph unicode="&#xce;" horiz-adv-x="612" d="M-78 1470q0 14 12.5 42t34.5 44q20 14 65.5 47t84.5 66q31 25 52.5 52.5t39.5 51t38.5 38t47.5 14.5q10 0 32.5 -12.5t47 -29t46 -30.5t28.5 -18q20 -12 60 -38t69 -48q12 -6 35.5 -18.5t37.5 -20.5q31 -16 52.5 -45t21.5 -58q0 -53 -13.5 -65t-47.5 -12h-45 q-47 0 -88 19t-76 44t-66 44t-55 19q-31 0 -65.5 -19t-72.5 -46t-78 -52.5t-81 -39.5q-18 -6 -39 -6q-35 0 -56.5 20.5t-21.5 56.5zM18 33q18 84 26.5 162.5t16 155.5t16.5 152t27 152q0 20 13.5 83t31 135.5t33 143t15.5 107.5q0 10 -7.5 21.5t-7.5 21.5q2 23 8.5 43.5 t6.5 42.5q-2 14 -8.5 29.5t-6.5 32.5q0 12 7.5 20t29.5 13q-2 2 -2 6q0 10 12.5 14t31 5t36.5 0t31 3q59 -23 87.5 -88t28.5 -141q0 -55 -16 -117h2q2 0 6 6q-20 -139 -47 -264t-52.5 -249t-45 -253.5t-27.5 -279.5q-20 -27 -48 -54.5t-44 -27.5q-6 0 -8 2q-2 -4 -8 -4 q-12 0 -25.5 9t-27 19.5t-28 19.5t-26.5 9q-2 0 -10 -4q-2 10 -4 35.5t-17 38.5z" />
<glyph unicode="&#xcf;" horiz-adv-x="528" d="M6 1616q0 20 1 29.5t6 17.5t16.5 22.5t31.5 47.5q4 0 12.5 -3.5t16.5 -3.5q10 0 24.5 9.5t24.5 9.5q27 0 49.5 -16.5t38 -40t23.5 -48.5t8 -41q0 -14 -11 -35.5t-27.5 -41t-36 -33.5t-38.5 -14q-16 0 -37.5 11t-42 24.5t-35 24.5t-16.5 11q-2 16 -5 39t-3 31zM18 33 q18 84 26.5 162.5t16 155.5t16.5 152t27 152q0 20 13.5 83t31 135.5t33 143t15.5 107.5q0 10 -7.5 21.5t-7.5 21.5q2 23 8.5 43.5t6.5 42.5q-2 14 -8.5 29.5t-6.5 32.5q0 12 7.5 20t29.5 13q-2 2 -2 6q0 10 12.5 14t31 5t36.5 0t31 3q59 -23 87.5 -88t28.5 -141 q0 -55 -16 -117h2q2 0 6 6q-20 -139 -47 -264t-52.5 -249t-45 -253.5t-27.5 -279.5q-20 -27 -48 -54.5t-44 -27.5q-6 0 -8 2q-2 -4 -8 -4q-12 0 -25.5 9t-27 19.5t-28 19.5t-26.5 9q-2 0 -10 -4q-2 10 -4 35.5t-17 38.5zM289 1733q0 20 15 38.5t35.5 33t41 23.5t31.5 9 q27 0 54.5 -17.5t50 -41t36.5 -49t14 -43.5t-3 -46t-16 -52.5t-38 -43t-68 -18.5q-31 0 -58.5 25.5t-49 60.5t-33.5 68.5t-12 52.5z" />
<glyph unicode="&#xd1;" horiz-adv-x="1427" d="M-49 143q0 90 44 196.5t102.5 212t115.5 201t84 165.5q14 43 31.5 93t38 99t44 94t52.5 78q4 8 22.5 15.5t45 12.5t54 8t50.5 3q20 0 39.5 -2t42.5 -10q31 -12 46 -51t23.5 -86.5t12.5 -93.5t10 -70q14 -66 21.5 -135.5t25.5 -133.5q31 -106 59.5 -192t57.5 -189 q10 35 15 84.5t18 89.5q12 45 34.5 113t47 138.5t45 137t30.5 113.5l2 13q4 25 9.5 49t9.5 47l8 37q8 35 11 65.5t13.5 54t32 37t66.5 13.5q29 0 54.5 -16.5t46 -41t31.5 -53.5t11 -53q0 -66 -25.5 -148t-41.5 -153l-5 -25q-14 -59 -35.5 -146t-48 -180.5t-53 -179.5 t-51.5 -141q-23 -37 -38 -76t-35.5 -70.5t-48 -52t-75.5 -20.5q-59 0 -107 41t-83 99.5t-58.5 125t-35.5 115.5q-20 78 -47 151.5t-54 151.5q-18 53 -30.5 107.5t-50.5 101.5q-6 0 -17.5 -24.5t-24 -55.5t-22.5 -57.5t-12 -28.5q-16 -59 -38 -115.5t-56 -107.5 q-47 -70 -80 -153t-68 -161q-20 -45 -38.5 -86t-35.5 -78q-31 -8 -71 -8q-41 0 -88 8q-33 51 -33 123zM633 1593q0 23 14.5 48.5t32.5 51t36.5 50t28.5 47.5q41 18 57.5 28.5t25 15.5t16.5 6t35 1q59 0 106 -50t78 -120h10q6 10 10 23.5t4 19.5q0 31 -4 41t-10 16.5 t-10 16.5t-4 41q0 10 17.5 23.5t40 25.5t44 20.5t31.5 8.5q45 0 69.5 -24.5t35 -61.5t12.5 -81t2 -83q0 -31 -20.5 -79t-54.5 -89t-75 -63.5t-80 -2.5q-72 35 -129 85.5t-86 109.5q-27 -10 -45 -36t-30.5 -52.5t-20.5 -48t-16 -21.5h-39q-18 0 -32.5 16.5t-26 39t-17.5 45 t-6 32.5z" />
<glyph unicode="&#xd2;" horiz-adv-x="1159" d="M-47 332q0 66 21.5 124t37.5 117q20 102 62.5 178t94.5 140.5t110.5 125t111.5 130.5q35 51 80 90t80 80q18 23 45 53.5t62.5 58t76.5 47t88 19.5q37 0 70 -12.5t64.5 -28.5t65.5 -32.5t73 -24.5q4 -10 12 -25.5t31 -19.5q10 -27 10 -52q0 -53 -38 -88.5t-85 -35.5 q-23 0 -39 8l-53 18q6 -35 9 -66.5t22 -62.5q25 -59 34 -122.5t9 -129.5q0 -59 -12.5 -129.5t-37 -141.5t-62.5 -134.5t-87 -108.5q-61 -55 -115.5 -124.5t-116 -131t-135 -104.5t-174.5 -43q-31 0 -68.5 17.5t-73.5 42t-63.5 52t-37.5 45.5q-31 55 -51.5 129t-20.5 142z M209 307q0 -12 10 -29.5t26.5 -33t37 -25.5t43.5 -10q37 0 82 28.5t88 67.5t78.5 78t52.5 57q29 37 50 82t35.5 94.5t21.5 100.5t7 98v19q-2 12 -3 25t-1 28q0 4 1 10t1 12q0 29 -22.5 72t-50.5 88v-6q0 -27 -43 -59.5t-101.5 -77.5t-121 -104.5t-101.5 -137.5 q-90 -182 -90 -377zM451 1976v21q41 12 72.5 30.5t64.5 18.5q31 0 54.5 -21.5t43 -52t35.5 -65.5t31 -62q47 -84 73.5 -142t55.5 -101q8 -10 8 -23q0 -33 -51 -33q-31 0 -71 15.5t-112 74.5q0 20 -18.5 28.5t-30.5 23.5q-41 47 -70.5 76.5t-48 57t-27.5 62.5t-9 92z" />
<glyph unicode="&#xd3;" horiz-adv-x="1083" d="M-47 332q0 66 21.5 124t37.5 117q20 102 62.5 178t94.5 140.5t110.5 125t111.5 130.5q35 51 80 90t80 80q18 23 45 53.5t62.5 58t76.5 47t88 19.5q37 0 70 -12.5t64.5 -28.5t65.5 -32.5t73 -24.5q4 -10 12 -25.5t31 -19.5q10 -27 10 -52q0 -53 -38 -88.5t-85 -35.5 q-23 0 -39 8l-53 18q6 -35 9 -66.5t22 -62.5q25 -59 34 -122.5t9 -129.5q0 -59 -12.5 -129.5t-37 -141.5t-62.5 -134.5t-87 -108.5q-61 -55 -115.5 -124.5t-116 -131t-135 -104.5t-174.5 -43q-31 0 -68.5 17.5t-73.5 42t-63.5 52t-37.5 45.5q-31 55 -51.5 129t-20.5 142z M209 307q0 -12 10 -29.5t26.5 -33t37 -25.5t43.5 -10q37 0 82 28.5t88 67.5t78.5 78t52.5 57q29 37 50 82t35.5 94.5t21.5 100.5t7 98v19q-2 12 -3 25t-1 28q0 4 1 10t1 12q0 29 -22.5 72t-50.5 88v-6q0 -27 -43 -59.5t-101.5 -77.5t-121 -104.5t-101.5 -137.5 q-90 -182 -90 -377zM535 1544q0 12 3 18.5t10 13.5t16 17.5t22 26.5q27 39 42 62.5t23 40t14.5 27.5t16.5 28q20 33 32.5 54t18.5 41.5t8 46.5t2 71q0 20 20.5 40.5t50.5 38t61.5 28.5t54.5 11q31 0 48 -21.5t25.5 -49t10.5 -53t2 -35.5q0 -18 -12.5 -45t-32 -55.5 t-43 -59.5t-45.5 -61q-18 -25 -54 -63t-78 -75t-88.5 -62.5t-84.5 -25.5q-16 0 -29.5 15.5t-13.5 25.5z" />
<glyph unicode="&#xd4;" horiz-adv-x="1159" d="M-47 332q0 66 21.5 124t37.5 117q20 102 62.5 178t94.5 140.5t110.5 125t111.5 130.5q35 51 80 90t80 80q18 23 45 53.5t62.5 58t76.5 47t88 19.5q37 0 70 -12.5t64.5 -28.5t65.5 -32.5t73 -24.5q4 -10 12 -25.5t31 -19.5q10 -27 10 -52q0 -53 -38 -88.5t-85 -35.5 q-23 0 -39 8l-53 18q6 -35 9 -66.5t22 -62.5q25 -59 34 -122.5t9 -129.5q0 -59 -12.5 -129.5t-37 -141.5t-62.5 -134.5t-87 -108.5q-61 -55 -115.5 -124.5t-116 -131t-135 -104.5t-174.5 -43q-31 0 -68.5 17.5t-73.5 42t-63.5 52t-37.5 45.5q-31 55 -51.5 129t-20.5 142z M209 307q0 -12 10 -29.5t26.5 -33t37 -25.5t43.5 -10q37 0 82 28.5t88 67.5t78.5 78t52.5 57q29 37 50 82t35.5 94.5t21.5 100.5t7 98v19q-2 12 -3 25t-1 28q0 4 1 10t1 12q0 29 -22.5 72t-50.5 88v-6q0 -27 -43 -59.5t-101.5 -77.5t-121 -104.5t-101.5 -137.5 q-90 -182 -90 -377zM393 1624q0 14 12.5 42t34.5 44q20 14 65.5 47t84.5 66q31 25 52.5 52.5t39.5 51t38.5 37.5t47.5 14q10 0 32.5 -12t47 -28.5t46 -31t28.5 -18.5q20 -12 60 -37.5t69 -48.5q12 -6 35.5 -18t37.5 -21q14 -8 28.5 -26.5t24 -39t15.5 -42t6 -35.5 q0 -53 -13.5 -65.5t-47.5 -12.5h-45q-47 0 -88 19.5t-76 44t-66 44t-55 19.5q-31 0 -65.5 -19.5t-72.5 -46t-78 -52t-81 -40.5q-18 -6 -39 -6q-16 0 -30.5 11.5t-24.5 30t-16.5 39t-6.5 38.5z" />
<glyph unicode="&#xd5;" horiz-adv-x="1159" d="M141 371q6 12 11.5 19t5.5 20v4q0 10 -6.5 24.5t-6.5 26.5q6 14 7 31q0 4 -1 7t-1 7q-6 8 -7 35q0 29 6.5 74t16.5 95t21.5 101t23.5 94t21.5 72t13.5 33q20 20 59 54t57 79q23 53 58 86t63 33q6 0 22.5 2t36 4t36 4t22.5 2q25 0 49.5 7t59 16.5t83 17.5t119.5 8 q43 0 77 -23.5t58.5 -57.5t38 -72.5t13.5 -71.5v-10q-4 -57 -18.5 -140.5t-35 -174.5t-44 -184t-47 -173t-45 -139.5t-36.5 -81.5q-16 -29 -51 -74t-125 -105q-25 -16 -56.5 -28t-65 -21.5t-66.5 -13.5t-59 -4q-63 0 -109.5 26.5t-78.5 68.5t-51.5 92t-31.5 96.5t-20 83 t-17 51.5zM381 1622q0 23 14.5 48.5t32.5 51t36.5 50t29.5 47.5q41 18 57 28.5t24.5 15.5t16.5 6t35 1q59 0 106 -50.5t78 -119.5h10q6 10 10.5 23.5t4.5 19.5q0 31 -12.5 47t-26 28.5t-25.5 28t-12 45.5q0 10 11 23.5t25.5 26t30 20.5t25.5 8q45 0 70.5 -23.5t38 -59.5 t14.5 -79t2 -82q0 -31 -5 -68.5t-21.5 -69.5t-45 -54.5t-76.5 -22.5q-41 0 -70.5 19.5t-52 49.5t-39 64.5t-30.5 65.5q-27 -10 -48.5 -39t-39 -60.5t-28.5 -56t-19 -24.5h-39q-18 0 -32.5 10t-26 24.5t-17.5 31t-6 26.5zM387 459q0 -8 5 -46t17.5 -80t34 -76t56.5 -34 q51 0 98 45t87 118t73 162t56.5 178t35.5 167t12 127q-10 14 -27.5 28.5t-36 23.5t-34.5 15.5t-25 6.5q-100 0 -167.5 -62.5t-108.5 -157t-58.5 -206t-17.5 -209.5z" />
<glyph unicode="&#xd6;" horiz-adv-x="1091" d="M-47 332q0 66 21.5 124t37.5 117q20 102 62.5 178t94.5 140.5t110.5 125t111.5 130.5q35 51 80 90t80 80q18 23 45 53.5t62.5 58t76.5 47t88 19.5q37 0 70 -12.5t64.5 -28.5t65.5 -32.5t73 -24.5q4 -10 12 -25.5t31 -19.5q10 -27 10 -52q0 -53 -38 -88.5t-85 -35.5 q-23 0 -39 8l-53 18q6 -35 9 -66.5t22 -62.5q25 -59 34 -122.5t9 -129.5q0 -59 -12.5 -129.5t-37 -141.5t-62.5 -134.5t-87 -108.5q-61 -55 -115.5 -124.5t-116 -131t-135 -104.5t-174.5 -43q-31 0 -68.5 17.5t-73.5 42t-63.5 52t-37.5 45.5q-31 55 -51.5 129t-20.5 142z M209 307q0 -12 10 -29.5t26.5 -33t37 -25.5t43.5 -10q37 0 82 28.5t88 67.5t78.5 78t52.5 57q29 37 50 82t35.5 94.5t21.5 100.5t7 98v19q-2 12 -3 25t-1 28q0 4 1 10t1 12q0 29 -22.5 72t-50.5 88v-6q0 -27 -43 -59.5t-101.5 -77.5t-121 -104.5t-101.5 -137.5 q-90 -182 -90 -377zM506 1696q0 23 1 32t7 18t18.5 25.5t34.5 51.5q4 0 12.5 -3t18.5 -3t26.5 10t26.5 10q31 0 55.5 -18.5t41 -43t25.5 -52.5t9 -46q0 -16 -12 -39.5t-30.5 -45t-40 -37t-42.5 -15.5q-16 0 -39.5 12.5t-46 26.5t-39 27.5t-18.5 13.5q-2 18 -5 42t-3 34z M840 1749q0 20 15 38.5t35.5 33t41 23.5t31.5 9q27 0 54 -17t50 -40.5t37 -49.5t14 -44t-3 -46t-16.5 -52.5t-38 -43t-67.5 -18.5q-31 0 -58.5 25.5t-49 60.5t-33.5 69t-12 52z" />
<glyph unicode="&#xd8;" horiz-adv-x="1189" d="M-70 -645q2 63 16.5 111.5t36 93.5t49 91t58.5 105q20 39 49 82t29 74q0 29 -22.5 52.5t-51.5 47.5q-72 59 -95.5 138t-23.5 167q0 106 31 220t79 221.5t104.5 203t109.5 166.5q51 39 93 75t77 77q23 8 50.5 13t58.5 5q14 0 39.5 -2t53 -11t55.5 -25.5t48 -42.5l14 -21 l9 23q43 92 76.5 189t80.5 183q92 -4 145.5 -55t53.5 -109q0 -35 -18.5 -70.5t-40 -73.5t-39 -78t-17.5 -83v-14l2 -6q33 -47 63 -86t51.5 -80t34.5 -91t13 -120q0 -154 -64.5 -286t-172 -238.5t-244.5 -185t-285 -124.5l-6 -6q-86 -117 -164 -249t-123 -302 q-20 -10 -34.5 -21t-30.5 -22q-12 4 -23.5 5.5t-21.5 5.5q-33 6 -59.5 15t-43.5 38zM201 291q0 -41 3 -83t13 -85l2 -10h17q10 0 17 -3.5t19 -13.5l9 13q68 92 125 201.5t108 227t98 242.5t90 248v8q-2 12 -10 18.5t-16 10.5h-12q-90 -45 -174 -121t-149 -177t-102.5 -222 t-37.5 -254zM557 168l23 10q49 20 94 54t84 75t71.5 84t57.5 84q31 47 63.5 123t32.5 168q0 76 -33 149l-24 -12v-4q0 -10 -8.5 -28.5t-18.5 -40t-21.5 -42t-17.5 -32.5q-49 -92 -92 -178l-23 -43q-20 -39 -39.5 -77t-39.5 -75q-10 -16 -25.5 -37.5t-32 -46.5t-30 -52.5 t-17.5 -53.5z" />
<glyph unicode="&#xd9;" horiz-adv-x="1132" d="M4 418q0 141 9.5 229t19.5 129q10 51 15 82t26 80q16 45 23 90t16 92q16 86 39.5 167t40.5 159q41 20 86 20q43 0 83.5 -15t63.5 -38q12 -47 12 -90q0 -76 -28.5 -152.5t-63.5 -156.5q-41 -90 -68.5 -168t-39.5 -170q-6 -43 -13.5 -73t-12.5 -58.5t-9 -58t-4 -72.5 q0 -53 13 -89t33.5 -57.5t45 -31t47.5 -9.5q55 0 103 34t86 82t66 103.5t44 98.5q16 49 32.5 100t43.5 94q31 53 61.5 105.5t52.5 111.5q27 72 46.5 145t44.5 144q10 31 24 67t35.5 66.5t50.5 52t66 21.5t65.5 -19.5t28.5 -62.5q0 -47 -10.5 -94t-23.5 -93t-24.5 -88 t-13.5 -79q-45 -111 -90 -223.5t-95 -223t-106.5 -217t-124.5 -207.5q-20 -31 -61 -73.5t-88 -80.5t-97.5 -64.5t-88.5 -26.5q-27 0 -65 10t-77 25.5t-70.5 35t-46.5 37.5q-59 78 -80.5 186.5t-21.5 223.5zM430 1935v21q41 12 73 30.5t64 18.5q31 0 54.5 -21.5t43 -52 t36 -65.5t30.5 -62q47 -84 73.5 -142t55.5 -101q8 -10 8 -23q0 -33 -51 -33q-31 0 -70.5 15.5t-111.5 74.5q0 20 -18.5 28.5t-30.5 23.5q-41 47 -71 76.5t-48 57t-27.5 62.5t-9.5 92z" />
<glyph unicode="&#xda;" horiz-adv-x="1132" d="M-57 438q0 141 9 229.5t19 129.5q10 51 15.5 81.5t25.5 79.5q16 45 23.5 90.5t15.5 92.5q16 86 40 167t40 158q41 21 86 21q43 0 84 -15.5t64 -37.5q12 -47 12 -91q0 -76 -29 -152.5t-63 -156.5q-41 -90 -69 -168t-40 -170q-6 -43 -13 -72.5t-12.5 -58t-9.5 -58.5t-4 -73 q0 -53 13.5 -89t34 -57.5t45 -30.5t46.5 -9q55 0 103.5 33.5t86.5 82t65.5 103.5t43.5 98q16 49 33 100.5t43 94.5q31 53 61.5 105.5t53.5 111.5q27 72 46 144.5t44 144.5q10 31 24.5 66.5t36 66.5t50 52.5t65.5 21.5t65.5 -19.5t28.5 -62.5q0 -47 -10 -94.5t-23.5 -93.5 t-24.5 -88t-13 -79q-45 -111 -90 -223.5t-95.5 -223t-106.5 -217t-124 -206.5q-20 -31 -61 -74t-88.5 -81t-97.5 -64.5t-89 -26.5q-27 0 -64.5 10.5t-76.5 25.5t-71 34.5t-46 38.5q-59 78 -80.5 186.5t-21.5 222.5zM514 1462q0 12 3 18.5t10.5 13.5t16.5 17.5t21 26.5 q27 39 42.5 62.5t23.5 40t14 27.5t17 28q20 33 32.5 54.5t18.5 41.5t8 46t2 71q0 20 20.5 40.5t50 38t61.5 29t54 11.5q31 0 48.5 -21.5t25.5 -49.5t10 -53.5t2 -35.5q0 -18 -12 -45t-31.5 -55.5t-43 -59.5t-46.5 -61q-18 -25 -54 -63t-78 -74.5t-88 -62.5t-85 -26 q-16 0 -29.5 15.5t-13.5 25.5z" />
<glyph unicode="&#xdb;" horiz-adv-x="1132" d="M4 418q0 141 9.5 229t19.5 129q10 51 15 82t26 80q16 45 23 90t16 92q16 86 39.5 167t40.5 159q41 20 86 20q43 0 83.5 -15t63.5 -38q12 -47 12 -90q0 -76 -28.5 -152.5t-63.5 -156.5q-41 -90 -68.5 -168t-39.5 -170q-6 -43 -13.5 -73t-12.5 -58.5t-9 -58t-4 -72.5 q0 -53 13 -89t33.5 -57.5t45 -31t47.5 -9.5q55 0 103 34t86 82t66 103.5t44 98.5q16 49 32.5 100t43.5 94q31 53 61.5 105.5t52.5 111.5q27 72 46.5 145t44.5 144q10 31 24 67t35.5 66.5t50.5 52t66 21.5t65.5 -19.5t28.5 -62.5q0 -47 -10.5 -94t-23.5 -93t-24.5 -88 t-13.5 -79q-45 -111 -90 -223.5t-95 -223t-106.5 -217t-124.5 -207.5q-20 -31 -61 -73.5t-88 -80.5t-97.5 -64.5t-88.5 -26.5q-27 0 -65 10t-77 25.5t-70.5 35t-46.5 37.5q-59 78 -80.5 186.5t-21.5 223.5zM332 1686q0 14 12 41.5t35 44.5q20 14 65 46.5t84 65.5 q31 25 52.5 52.5t40 51t39 38t47.5 14.5q10 0 32.5 -12.5t47 -29t46 -30.5t27.5 -18q20 -12 60.5 -38t68.5 -48q12 -6 36 -18.5t38 -20.5t28.5 -26.5t23.5 -39t15.5 -42.5t6.5 -36q0 -53 -13.5 -65t-48.5 -12h-45q-47 0 -88 19t-76 44t-65.5 44.5t-55.5 19.5 q-31 0 -65.5 -19.5t-72.5 -46.5t-78 -52.5t-80 -39.5q-18 -6 -39 -6q-16 0 -30.5 11t-25 29.5t-16.5 39t-6 39.5z" />
<glyph unicode="&#xdc;" horiz-adv-x="1081" d="M-78 418q0 141 9.5 229t19.5 129q10 51 15 82t26 80q16 45 23.5 90t15.5 92q16 86 39.5 167t40.5 159q41 20 86 20q43 0 84 -15t63 -38q12 -47 12 -90q0 -76 -28.5 -152.5t-63.5 -156.5q-41 -90 -68.5 -168t-39.5 -170q-6 -43 -13.5 -73t-12.5 -58.5t-9 -58t-4 -72.5 q0 -53 13 -89t33.5 -57.5t45 -31t47.5 -9.5q55 0 103.5 34t86 82t65.5 103.5t44 98.5q16 49 32.5 100t43.5 94q31 53 61.5 105.5t52.5 111.5q27 72 46.5 145t44.5 144q10 31 24 67t36 66.5t50.5 52t65.5 21.5t65.5 -19.5t28.5 -62.5q0 -47 -10.5 -94t-23.5 -93t-24.5 -88 t-13.5 -79q-45 -111 -90 -223.5t-95 -223t-106.5 -217t-124.5 -207.5q-20 -31 -61 -73.5t-88 -80.5t-97 -64.5t-89 -26.5q-27 0 -65 10t-77 25.5t-70.5 35t-45.5 37.5q-59 78 -81 186.5t-22 223.5zM305 1692q0 23 1 32t7 18t18.5 25.5t35.5 51.5q4 0 12 -3.5t18 -3.5 t26.5 10.5t27.5 10.5q31 0 55 -18.5t40.5 -43t26 -52.5t9.5 -46q0 -16 -12.5 -39.5t-31 -45t-40 -37t-41.5 -15.5q-16 0 -40 12.5t-46.5 26.5t-39 27.5t-18.5 13.5q-2 18 -5 41.5t-3 34.5zM653 1774q0 20 15.5 38.5t36 33t41 23.5t30.5 9q27 0 54.5 -17.5t50 -41t37 -49.5 t14.5 -44t-3 -45.5t-16.5 -52t-38 -43t-67.5 -18.5q-31 0 -58.5 25.5t-49 60.5t-34 68.5t-12.5 52.5z" />
<glyph unicode="&#xdd;" horiz-adv-x="948" d="M-20 510.5v38.5q0 33 2 77t5 93t9 97t12 89q4 27 12.5 61.5t15.5 71.5t13 72t6 64q6 -2 21 -3q39 0 76.5 18.5t64.5 18.5q8 0 16 -4q18 -18 30.5 -28.5t21 -18.5t12.5 -16t4 -21q0 -27 -13.5 -71.5t-23.5 -79.5q-16 -49 -24.5 -104.5t-13.5 -111t-6 -107.5t-1 -97 q0 -27 7 -45.5t32 -18.5q41 0 80 39t70.5 93.5t58.5 109.5t43 88q18 39 46 85t55.5 94t54 97.5t43.5 92.5q6 4 16 13t12 32q8 4 33 10t59 6q75 0 134 -47q-4 -12 -6.5 -29.5t-2.5 -33.5v-15.5t4 -17.5q-6 -45 -15 -98.5t-19.5 -109.5t-19.5 -110.5t-15 -99.5l-6 2 q-27 -90 -67 -169t-68 -167q-18 -53 -32 -107.5t-30 -107.5q-86 -248 -131 -493.5t-63 -499.5q0 -8 -1.5 -17.5t-1.5 -33v-64.5t3 -110q0 -16 1 -39t1 -52q0 -35 -3.5 -43t-3.5 -28l-6 4l-12 -25q-10 -23 -35.5 -27.5t-77.5 -4.5h-4q-14 0 -23.5 -2.5t-21.5 -2.5l-6 3 q-16 4 -18 10t-13 10q-18 27 -22 102.5t1 180t19.5 226.5t30.5 243.5t35.5 233.5t36 191.5t28 120.5t15.5 21l2 6q14 43 31.5 85t35 90t36 104.5t34.5 130.5q-31 -49 -56.5 -89t-57 -68t-77 -43t-112.5 -15q-39 0 -81 12t-79 37q-10 6 -20.5 24.5t-21.5 41t-23.5 44 t-24.5 31.5q0 12 -4 23.5t-8 19.5q-8 20 -8 37.5zM393 1270q0 12 3 18t10.5 13.5t16.5 17.5t21 27q27 39 42.5 62.5t23.5 39.5t14 27.5t17 27.5q20 33 32.5 54.5t18.5 42t8 46t2 70.5q0 20 20.5 41t50 38t61.5 28.5t54 11.5q31 0 48.5 -21.5t25.5 -49t10 -53.5t2 -36 q0 -18 -12 -44.5t-31.5 -55.5t-43 -59.5t-46.5 -61.5q-18 -25 -54 -62.5t-78 -74.5t-88 -62.5t-85 -25.5q-16 0 -29.5 15.5t-13.5 25.5z" />
<glyph unicode="&#xe0;" horiz-adv-x="1298" d="M-45 68q43 123 87 223t87 194q23 51 47.5 103.5t46.5 109.5q10 4 14.5 10.5t6.5 10.5l2 2l4 -2l39 -17l-15 41q-4 10 2.5 23.5t16.5 34.5q10 20 20.5 43.5t14.5 52.5q51 14 89 76.5t75 134.5q18 39 38.5 78t43 69.5t48 49t54.5 18.5q33 0 65 -20l15 -9l10 13 q20 27 26.5 50t12.5 64l2 2q35 35 76 31t78 -45q35 -35 53 -84t16 -96q-4 -47 -20.5 -93t-34.5 -89q-12 -29 -21.5 -54.5t-13.5 -48.5q-6 -37 -5 -72.5t5 -64.5q2 -10 2 -16.5v-12.5l2 -16l14 -2q45 -4 83 3t73 15q31 8 59.5 14.5t61.5 4.5q4 -18 13 -37t20 -41l2 -2 q0 -53 -13.5 -77t-35.5 -50q-10 -12 -21.5 -25.5t-21.5 -29.5q-41 0 -73 -10.5t-61 -20.5q-23 -10 -46 -17.5t-52 -11.5l-14 -2l-2 -16q-2 -90 22.5 -163t53.5 -142q23 -53 41 -106.5t22 -108.5q-10 -4 -17.5 -10.5t-15.5 -10.5q-16 -12 -43 -27q-41 20 -71.5 55.5t-53 80.5 t-41 96t-36.5 104q-23 66 -45.5 131.5t-57.5 118.5l-6 8h-12q-41 -4 -64.5 6.5t-46.5 22.5t-47.5 21.5t-60.5 5.5h-9l-6 -9q-43 -70 -78.5 -137t-68.5 -143t-64.5 -164t-62.5 -199q-29 -12 -51 -12q-25 0 -44.5 12.5t-35 32t-27.5 45t-24 51.5q-6 14 -12.5 27.5t-12.5 24.5z M449 1866q0 8 4 28.5t13 42t26.5 39t42.5 17.5q18 0 45.5 -8.5t52 -20.5t42 -28.5t17.5 -30.5q0 -33 1 -52.5t6.5 -35t15.5 -30.5t28 -40q8 -12 12.5 -21.5t12.5 -21.5t20.5 -29.5t34.5 -44.5q23 -27 33 -34t10 -23q0 -8 -12 -19.5t-25 -11.5q-33 0 -72.5 18.5t-77.5 43 t-69.5 52t-48.5 46.5q-37 45 -74.5 90t-37.5 74z" />
<glyph unicode="&#xe1;" horiz-adv-x="1304" d="M-45 68q43 123 87 223t87 194q23 51 47.5 103.5t46.5 109.5q10 4 14.5 10.5t6.5 10.5l2 2l4 -2l39 -17l-15 41q-4 10 2.5 23.5t16.5 34.5q10 20 20.5 43.5t14.5 52.5q51 14 89 76.5t75 134.5q18 39 38.5 78t43 69.5t48 49t54.5 18.5q33 0 65 -20l15 -9l10 13 q20 27 26.5 50t12.5 64l2 2q35 35 76 31t78 -45q35 -35 53 -84t16 -96q-4 -47 -20.5 -93t-34.5 -89q-12 -29 -21.5 -54.5t-13.5 -48.5q-6 -37 -5 -72.5t5 -64.5q2 -10 2 -16.5v-12.5l2 -16l14 -2q45 -4 83 3t73 15q31 8 59.5 14.5t61.5 4.5q4 -18 13 -37t20 -41l2 -2 q0 -53 -13.5 -77t-35.5 -50q-10 -12 -21.5 -25.5t-21.5 -29.5q-41 0 -73 -10.5t-61 -20.5q-23 -10 -46 -17.5t-52 -11.5l-14 -2l-2 -16q-2 -90 22.5 -163t53.5 -142q23 -53 41 -106.5t22 -108.5q-10 -4 -17.5 -10.5t-15.5 -10.5q-16 -12 -43 -27q-41 20 -71.5 55.5t-53 80.5 t-41 96t-36.5 104q-23 66 -45.5 131.5t-57.5 118.5l-6 8h-12q-41 -4 -64.5 6.5t-46.5 22.5t-47.5 21.5t-60.5 5.5h-9l-6 -9q-43 -70 -78.5 -137t-68.5 -143t-64.5 -164t-62.5 -199q-29 -12 -51 -12q-25 0 -44.5 12.5t-35 32t-27.5 45t-24 51.5q-6 14 -12.5 27.5t-12.5 24.5z M647 1542q0 12 3 18.5t10.5 13.5t16.5 17.5t21 26.5q27 39 32 51t2 15.5t-7 4.5t6 17q20 33 32.5 54.5t18.5 42t8.5 46t2.5 70.5q0 20 22.5 38.5t55 33t66.5 23.5t56 9q31 0 48.5 -21.5t25.5 -49t10 -53t2 -35.5q0 -18 -12 -45t-31.5 -55.5t-43 -59.5t-46.5 -62 q-18 -25 -43.5 -52t-56.5 -49.5t-67 -38t-74 -15.5q-16 0 -37 22.5t-21 32.5z" />
<glyph unicode="&#xe2;" horiz-adv-x="1304" d="M-45 68q43 123 87 223t87 194q23 51 47.5 103.5t46.5 109.5q10 4 14.5 10.5t6.5 10.5l2 2l4 -2l39 -17l-15 41q-4 10 2.5 23.5t16.5 34.5q10 20 20.5 43.5t14.5 52.5q51 14 89 76.5t75 134.5q18 39 38.5 78t43 69.5t48 49t54.5 18.5q33 0 65 -20l15 -9l10 13 q20 27 26.5 50t12.5 64l2 2q35 35 76 31t78 -45q35 -35 53 -84t16 -96q-4 -47 -20.5 -93t-34.5 -89q-12 -29 -21.5 -54.5t-13.5 -48.5q-6 -37 -5 -72.5t5 -64.5q2 -10 2 -16.5v-12.5l2 -16l14 -2q45 -4 83 3t73 15q31 8 59.5 14.5t61.5 4.5q4 -18 13 -37t20 -41l2 -2 q0 -53 -13.5 -77t-35.5 -50q-10 -12 -21.5 -25.5t-21.5 -29.5q-41 0 -73 -10.5t-61 -20.5q-23 -10 -46 -17.5t-52 -11.5l-14 -2l-2 -16q-2 -90 22.5 -163t53.5 -142q23 -53 41 -106.5t22 -108.5q-10 -4 -17.5 -10.5t-15.5 -10.5q-16 -12 -43 -27q-41 20 -71.5 55.5t-53 80.5 t-41 96t-36.5 104q-23 66 -45.5 131.5t-57.5 118.5l-6 8h-12q-41 -4 -64.5 6.5t-46.5 22.5t-47.5 21.5t-60.5 5.5h-9l-6 -9q-43 -70 -78.5 -137t-68.5 -143t-64.5 -164t-62.5 -199q-29 -12 -51 -12q-25 0 -44.5 12.5t-35 32t-27.5 45t-24 51.5q-6 14 -12.5 27.5t-12.5 24.5z M406 1499q2 14 15 41t38 41q20 14 67 44t88 61q33 23 55.5 49t43 48.5t41 35t47.5 12.5q10 -2 32.5 -15.5t46 -31t44 -33.5t26.5 -20q18 -12 57.5 -41t65.5 -52q12 -8 34.5 -21t37.5 -24q29 -16 49 -46.5t18 -59.5q-4 -53 -18 -64.5t-47 -9.5l-45 4q-47 2 -87 23.5t-74 48.5 t-63.5 48.5t-54.5 23.5q-29 2 -65.5 -15.5t-75.5 -42t-80 -48t-84 -36.5q-18 -4 -39 -2q-35 2 -55.5 23.5t-17.5 58.5z" />
<glyph unicode="&#xe3;" horiz-adv-x="1384" d="M12 68q43 123 87 223t87 194q23 51 47.5 103.5t47.5 109.5q10 4 14 10.5t6 10.5l2 2l4 -2l39 -17l-14 41q-4 10 2 23.5t16 34.5q10 20 20.5 43.5t14.5 52.5q51 14 89 76.5t75 134.5q18 39 38.5 78t43 69.5t48.5 49t54 18.5q33 0 66 -20l14 -9l10 13q20 27 26.5 50 t12.5 64l2 2q35 35 76 31t78 -45q35 -35 53.5 -84t15.5 -96q-4 -47 -20 -93t-35 -89q-12 -29 -21.5 -54.5t-13.5 -48.5q-6 -37 -5 -72.5t5 -64.5q2 -10 2 -16.5v-12.5l2 -16l15 -2q45 -4 83 3t72 15q31 8 60 14.5t61 4.5q4 -18 13.5 -37t19.5 -41l2 -2q0 -53 -13.5 -77 t-35.5 -50q-10 -12 -21.5 -25.5t-21.5 -29.5q-41 0 -73 -10.5t-60 -20.5q-23 -10 -46.5 -17.5t-51.5 -11.5l-15 -2l-2 -16q-2 -90 22.5 -163t53.5 -142q23 -53 41 -106.5t22 -108.5q-10 -4 -17 -10.5t-15 -10.5q-16 -12 -43 -27q-41 20 -72 55.5t-53.5 80.5t-41 96 t-36.5 104q-23 66 -45.5 131.5t-57.5 118.5l-6 8h-12q-41 -4 -64.5 6.5t-46.5 22.5t-47 21.5t-61 5.5h-8l-6 -9q-43 -70 -79 -137t-69 -143t-64.5 -164t-62.5 -199q-29 -12 -51 -12q-25 0 -44.5 12.5t-34.5 32t-27.5 45t-24.5 51.5q-6 14 -12.5 27.5t-12.5 24.5zM614 1575 q0 23 14.5 48.5t33 51t37 50t28.5 47.5q41 18 57.5 28t24.5 15.5t16.5 6.5t34.5 1q59 0 106.5 -50.5t77.5 -119.5h11q6 10 10 23.5t4 19.5q0 31 -12.5 47t-25.5 28.5t-25.5 28t-12.5 45.5q0 10 11.5 23.5t25.5 26t29.5 20.5t25.5 8q45 0 71 -23.5t38 -59.5t14 -79t2 -82 q0 -31 -5 -68.5t-21.5 -69.5t-45 -54.5t-75.5 -22.5q-41 0 -70.5 19.5t-52 49.5t-39 64.5t-31.5 65.5q-27 -10 -48 -39t-38.5 -60.5t-29 -56t-19.5 -24.5h-39q-18 0 -32.5 10t-25.5 24.5t-17.5 31t-6.5 26.5z" />
<glyph unicode="&#xe4;" horiz-adv-x="1384" d="M-45 68q43 123 87 223t87 194q23 51 47.5 103.5t46.5 109.5q10 4 14.5 10.5t6.5 10.5l2 2l4 -2l39 -17l-15 41q-4 10 2.5 23.5t16.5 34.5q10 20 20.5 43.5t14.5 52.5q51 14 89 76.5t75 134.5q18 39 38.5 78t43 69.5t48 49t54.5 18.5q33 0 65 -20l15 -9l10 13 q20 27 26.5 50t12.5 64l2 2q35 35 76 31t78 -45q35 -35 53 -84t16 -96q-4 -47 -20.5 -93t-34.5 -89q-12 -29 -21.5 -54.5t-13.5 -48.5q-6 -37 -5 -72.5t5 -64.5q2 -10 2 -16.5v-12.5l2 -16l14 -2q45 -4 83 3t73 15q31 8 59.5 14.5t61.5 4.5q4 -18 13 -37t20 -41l2 -2 q0 -53 -13.5 -77t-35.5 -50q-10 -12 -21.5 -25.5t-21.5 -29.5q-41 0 -73 -10.5t-61 -20.5q-23 -10 -46 -17.5t-52 -11.5l-14 -2l-2 -16q-2 -90 22.5 -163t53.5 -142q23 -53 41 -106.5t22 -108.5q-10 -4 -17.5 -10.5t-15.5 -10.5q-16 -12 -43 -27q-41 20 -71.5 55.5t-53 80.5 t-41 96t-36.5 104q-23 66 -45.5 131.5t-57.5 118.5l-6 8h-12q-41 -4 -64.5 6.5t-46.5 22.5t-47.5 21.5t-60.5 5.5h-9l-6 -9q-43 -70 -78.5 -137t-68.5 -143t-64.5 -164t-62.5 -199q-29 -12 -51 -12q-25 0 -44.5 12.5t-35 32t-27.5 45t-24 51.5q-6 14 -12.5 27.5t-12.5 24.5z M537 1622q0 23 1 32t7 18t18 25.5t35 51.5q4 0 12 -3t19 -3q10 0 26.5 10t26.5 10q31 0 55.5 -18.5t41 -43t25.5 -52t9 -45.5q0 -16 -12.5 -40t-30.5 -45.5t-39.5 -37t-42.5 -15.5q-16 0 -39.5 12.5t-46 27t-39 27.5t-18.5 13q-2 18 -5 42t-3 34zM877 1686q0 20 15 38.5 t35.5 33t41 23.5t30.5 9q27 0 54.5 -17.5t50 -41t37 -49.5t14.5 -44t-3 -45.5t-16.5 -52t-38 -43t-67.5 -18.5q-31 0 -58.5 25.5t-49 60t-33.5 68.5t-12 53z" />
<glyph unicode="&#xe5;" horiz-adv-x="1144" d="M-145 -57q0 31 20.5 67.5t46 72.5t52 65.5t38.5 48.5q27 37 48.5 74.5t38 67.5t26.5 49l10 18q-4 -2 -4 -3q-8 0 -11 10.5t-3 26.5q0 23 3 45.5t3 32.5q0 2 -1 3t-1 3v2q4 0 10 -1t10 -1q51 0 95.5 32t83 78t73.5 99t70 98q27 35 52.5 76t53 78t62.5 66.5t80 44.5 q4 0 6 2q20 0 44.5 -11.5t50.5 -29t48.5 -38t36.5 -36.5q20 -25 43 -47.5t44.5 -46t38.5 -50t30 -63.5q37 -92 56 -205.5t19 -214.5q0 -41 -1 -79.5t-1 -79.5q0 -23 1 -46.5t1 -46.5q0 -39 -5 -83t-17 -81.5t-33.5 -62t-52.5 -24.5q-23 0 -56.5 5t-66.5 15t-56.5 24.5 t-23.5 32.5q23 49 35 100.5t20.5 103.5t12.5 105.5t12 104.5q2 14 3 27.5t1 27.5q0 35 -8 62q-61 -8 -128 -18.5t-132 -28.5q-23 -6 -53.5 -9.5t-61.5 -6.5t-60.5 -9t-49.5 -20q-8 -6 -20.5 -21.5l-25 -31t-20.5 -26.5t-10 -7q0 -23 -5 -34t-16.5 -22.5t-29 -28t-41.5 -51.5 q-16 -23 -31.5 -47t-32.5 -47q-41 -57 -72.5 -116.5t-83.5 -106.5q-4 -4 -14 -4q-12 0 -29.5 8t-34 17.5t-29.5 18.5t-19 13q-39 20 -39 60zM522 1485q0 57 24.5 108.5t64.5 89t90.5 59t99.5 21.5q23 0 49.5 -7t58.5 -7q8 0 14.5 1t16.5 3q43 0 76 -28.5t55.5 -70.5 t34.5 -87t12 -76v-23q-2 -45 -24 -79q-23 -41 -41.5 -90.5t-57.5 -73.5q-80 -49 -174 -49q-139 0 -219 82.5t-80 226.5zM590 614q25 0 49 6.5t47 16.5q27 8 56.5 10t54 6t41 13.5t16.5 33.5q0 20 -8 48t-21.5 51.5t-29 40t-27.5 16.5q-10 0 -25.5 -19.5t-34 -46t-36 -55 t-27.5 -45.5q-14 -23 -28.5 -39t-26.5 -37zM700 1454q0 -45 31 -76q14 -23 45 -22q59 0 95 41t36 92q0 47 -24.5 72.5t-57.5 25.5q-27 0 -49 -12t-39.5 -30.5t-27 -42t-9.5 -48.5z" />
<glyph unicode="&#xe6;" horiz-adv-x="1615" d="M-238 -53q0 41 20.5 59.5t55.5 28.5q82 104 147.5 225t131.5 242q-14 16 -15 45q0 18 6.5 36.5t16.5 32.5v-2q41 0 64.5 19.5t38 48.5t25.5 59.5t28 53.5q27 35 43 70.5t34 76.5t36 78t28 80q4 23 17.5 54.5t13.5 59.5q0 16 -10.5 27.5t-23.5 23t-23.5 22.5t-10.5 26 q0 33 21.5 49t49 25.5t55.5 15.5t40 16q-2 6 -3 11.5t-1 11.5q0 29 16.5 57.5t20.5 61.5q39 12 78 12q45 0 80.5 -18.5t58 -50t35 -73.5t12.5 -88q0 -8 -1 -15t-1 -15q33 -16 72 -17q31 0 60.5 8.5t58 18.5t55 18.5t53.5 8.5q8 0 27.5 8t27.5 12q55 25 106.5 43.5t95.5 34.5 t82 32.5t68 39.5q16 0 39 -5.5t43.5 -14.5t34.5 -23.5t14 -32.5q-18 -10 -17 -27.5t-7 -30.5q-20 -33 -51 -55t-65 -38.5t-68.5 -29t-61.5 -24.5q-29 -12 -61.5 -25.5t-61.5 -29.5q-55 -37 -109.5 -53.5t-108.5 -21.5t-106.5 -7t-103.5 -10q4 -29 6 -63t2 -68 q0 -70 -4 -126.5t-4 -105.5q0 -14 31 -14q20 0 51 6t58.5 13t49 14.5t25.5 9.5q43 23 86 50.5t88 51t88 39.5t86 16q14 0 27.5 -19t13.5 -36q0 -16 -10 -35.5t-24.5 -40t-27.5 -37t-22 -22.5q-88 -80 -195.5 -132t-197.5 -81q-16 -4 -32.5 -12t-26.5 -8q-8 0 -14.5 1 t-12.5 1q-23 0 -36 -21.5t-20 -52.5t-9 -63.5t-2 -53.5q0 -6 3 -42t3 -71q0 -23 -3 -40t-10 -17q80 12 155 55t140.5 103.5t122 129t96.5 130.5q25 45 44.5 67.5t44.5 22.5q18 0 27 -7t20 -7q6 0 16 6q6 -14 11 -21.5t10.5 -13.5t10.5 -12t9 -19l-3 -6t-6 -15t-5 -17.5 t-2 -10.5q-4 -43 -34 -87t-52 -85q-49 -92 -121 -167t-156 -134q-35 -25 -71.5 -42t-73.5 -38q-27 -14 -50.5 -29.5t-49 -27.5t-58.5 -19.5t-76 -7.5q-49 0 -80.5 14.5t-50 38t-25 51t-6.5 56.5q0 49 9.5 101.5t9.5 99.5q0 12 -4 48t-4 75q0 29 4 52t18 27 q-29 18 -70.5 28.5t-89.5 10.5q-61 0 -116.5 -21.5t-77.5 -68.5q-18 -43 -43 -101.5t-51.5 -122t-56 -123.5t-59.5 -109.5t-60.5 -79t-59.5 -29.5q-12 0 -34.5 1t-44 4t-39 8t-17.5 12q-4 18 -14.5 28t-22.5 18.5t-21.5 18.5t-9.5 29zM420 666q35 -10 64.5 -12.5t57 -2.5 t53.5 1t54 -3q2 0 4 31t4 77t3.5 102.5t1.5 109.5q0 88 -4.5 127t-18.5 39q-10 0 -21.5 -15.5t-20.5 -34t-15.5 -36t-6.5 -19.5q-10 -47 -31.5 -87t-35.5 -85q-2 -6 -16.5 -36.5t-31 -65.5t-29.5 -62.5t-11 -27.5z" />
<glyph unicode="&#xe7;" horiz-adv-x="802" d="M-18 379.5q-2 50.5 2 99.5t16 101.5t41 111.5q14 31 42 85t67.5 116.5t90 128t111 118t130 86.5t145.5 34q66 0 112.5 -20.5t80.5 -47.5t55.5 -51.5t35.5 -30.5l2 -2q6 -8 12.5 -14.5t12.5 -14.5q8 -16 8 -24q0 -29 -34.5 -53.5t-69.5 -24.5h-19h-20q-53 0 -103.5 20.5 t-111.5 57.5q-10 -12 -31.5 -24.5t-38.5 -26.5q-86 -74 -149.5 -156t-104.5 -164t-61.5 -155.5t-20.5 -129.5q0 -72 14.5 -127t51.5 -92q12 -14 32.5 -22t36.5 -8t44 11t62 28.5t73 39t79 41.5q90 47 146.5 75t81.5 28q10 0 25.5 -12.5t28.5 -32t23.5 -42t10.5 -40.5 q0 -23 -14.5 -37t-36 -25.5t-47 -17.5t-48.5 -12q-45 -10 -107.5 -49t-130 -82t-132 -77t-113.5 -34t-99 25.5t-90 72.5t-64.5 113.5t-24.5 150.5q0 55 -2 105.5zM137 -553q0 8 9.5 31.5t17.5 42.5q41 6 78 38.5t64.5 79t43 98.5t15.5 97v14q0 16 22.5 37t32.5 25 q6 4 26.5 9t42.5 5q18 0 35 -6q16 -6 30.5 -20.5t26 -32t18.5 -32.5t7 -23q0 -53 -29.5 -105.5t-74.5 -100.5t-99.5 -87t-103.5 -64q-12 -6 -29.5 -17t-35 -23.5t-31 -20.5t-17.5 -8q-16 0 -32.5 25.5t-16.5 37.5z" />
<glyph unicode="&#xe8;" horiz-adv-x="946" d="M-201 1362q154 47 334 74.5t352 50.5q45 6 96.5 15t103.5 15.5t103.5 8.5t98.5 -6q6 -2 13 -3t13 -4q35 -10 74 -18t75 -22.5t64.5 -37t44.5 -61.5q-2 -20 -8 -32.5t-16 -26.5q-2 -4 -4 -6t-4 -6q-29 -2 -57.5 -2.5t-61.5 -0.5h-88q-33 0 -64.5 -1t-67.5 -5t-79 -11 t-96 -21q-39 8 -69 3t-62 -16q-33 -10 -76 -18l-17 -4v-17q2 -37 2 -65.5t-3 -55t-7 -52t-10 -56.5l-4 -20l18 -3q16 -4 30.5 -4h31.5q84 0 159.5 22.5t147.5 51.5q53 23 104.5 39t102.5 23q8 -23 14 -62t-6 -70q-2 -2 0 -11t-2 -9q-12 -23 -58.5 -51.5t-103.5 -58 t-111.5 -53t-80.5 -34.5q-41 -16 -80 -31.5t-80 -33.5q-10 -6 -18.5 -14.5t-12.5 -14.5q-8 -12 -12 -14q-20 -12 -40 -15.5t-38 -7.5q-16 -4 -31.5 -7t-27.5 -13q-35 -31 -53.5 -75t-24.5 -97t-5 -115.5t5 -126.5l2 -63l27 16q70 41 138 97.5t127.5 119t108.5 126t84 118.5 q8 -10 20.5 -18.5t35.5 -6.5q37 -72 31.5 -137.5t-34 -124.5t-73.5 -113.5t-88 -103.5q-12 -14 -40 -38.5t-58.5 -53.5t-60.5 -57.5t-46 -49.5q-190 -104 -301 27q-45 55 -69.5 138t-35 174t-6.5 180.5t19 154.5q12 59 13 128t-3 138q39 8 61.5 32t36 56.5t19.5 70.5t10 75 l6 55l6 37l-33 -16q-37 -18 -81 -19q-57 0 -109.5 25.5t-85.5 70.5q-16 23 -28.5 60t-0.5 88zM186 1972v21q41 12 73 30.5t65 18.5q31 0 54 -21.5t42.5 -52.5t36 -65.5t30.5 -61.5q47 -84 73.5 -142.5t55.5 -101.5q8 -10 9 -22q0 -33 -52 -33q-31 0 -70.5 15.5t-111.5 74.5 q0 20 -18.5 28.5t-30.5 22.5q-41 47 -70.5 77t-48 57.5t-28 62.5t-9.5 92z" />
<glyph unicode="&#xe9;" horiz-adv-x="884" d="M-201 1360q154 47 334 74.5t352 50.5q45 6 96.5 15t103.5 15.5t103.5 8.5t98.5 -6q6 -2 13 -3.5t13 -3.5q35 -10 74 -18t75 -22.5t64.5 -37t44.5 -61.5q-2 -20 -8 -32.5t-16 -26.5q-2 -4 -4 -6t-4 -7q-29 -2 -57.5 -2h-61.5h-88q-33 0 -64.5 -1t-67.5 -5t-79 -11t-96 -21 q-39 8 -69 2.5t-62 -15.5q-33 -10 -76 -18l-17 -4v-17q2 -37 2 -65.5t-3 -55t-7 -52t-10 -56.5l-4 -21l18 -2q16 -4 30.5 -4h31.5q84 0 159.5 22.5t147.5 51.5q53 23 104.5 39t102.5 22q8 -23 14 -61.5t-6 -69.5q-2 -2 0 -11t-2 -9q-12 -23 -58.5 -51.5t-103.5 -58 t-111.5 -53t-80.5 -34.5q-41 -16 -80 -31.5t-80 -33.5q-10 -6 -18.5 -14.5t-12.5 -14.5q-8 -12 -12 -14q-20 -12 -40 -15.5t-38 -7.5q-16 -4 -31.5 -7t-27.5 -13q-35 -31 -53.5 -75t-24.5 -97.5t-5 -115.5t5 -126l2 -63l27 16q70 41 138 97.5t127.5 119t108.5 125.5t84 119 q8 -10 20.5 -18.5t35.5 -6.5q37 -72 31.5 -137.5t-34 -124.5t-73.5 -113.5t-88 -103.5q-12 -14 -40 -39t-58.5 -53.5t-60.5 -57t-46 -49.5q-190 -104 -301 27q-45 55 -69.5 138t-35 174t-6.5 180.5t19 154.5q12 59 13 128t-3 138q39 8 61.5 32t36 56.5t19.5 70.5t10 75l6 55 l6 37l-33 -16q-37 -18 -81 -19q-57 0 -109.5 25.5t-85.5 70.5q-16 23 -28.5 60t-0.5 88zM309 1583q0 13 8 23q29 43 55.5 101t73.5 142q14 27 31 62t36 65.5t43 52t54 21.5q33 0 65 -18.5t73 -30.5v-21q0 -57 -9.5 -92t-28 -62.5t-48 -57t-70.5 -76.5q-12 -14 -30.5 -22.5 t-18.5 -29.5q-72 -59 -112 -74.5t-71 -15.5q-51 0 -51 33z" />
<glyph unicode="&#xea;" horiz-adv-x="1017" d="M-201 1362q154 47 334 74.5t352 50.5q45 6 96.5 15t103.5 15.5t103.5 8.5t98.5 -6q6 -2 13 -3t13 -4q35 -10 74 -18t75 -22.5t64.5 -37t44.5 -61.5q-2 -20 -8 -32.5t-16 -26.5q-2 -4 -4 -6t-4 -6q-29 -2 -57.5 -2.5t-61.5 -0.5h-88q-33 0 -64.5 -1t-67.5 -5t-79 -11 t-96 -21q-39 8 -69 3t-62 -16q-33 -10 -76 -18l-17 -4v-17q2 -37 2 -65.5t-3 -55t-7 -52t-10 -56.5l-4 -20l18 -3q16 -4 30.5 -4h31.5q84 0 159.5 22.5t147.5 51.5q53 23 104.5 39t102.5 23q8 -23 14 -62t-6 -70q-2 -2 0 -11t-2 -9q-12 -23 -58.5 -51.5t-103.5 -58 t-111.5 -53t-80.5 -34.5q-41 -16 -80 -31.5t-80 -33.5q-10 -6 -18.5 -14.5t-12.5 -14.5q-8 -12 -12 -14q-20 -12 -40 -15.5t-38 -7.5q-16 -4 -31.5 -7t-27.5 -13q-35 -31 -53.5 -75t-24.5 -97t-5 -115.5t5 -126.5l2 -63l27 16q137 80 252.5 200t205.5 261q8 -10 20.5 -18.5 t35.5 -6.5q37 -72 31.5 -137.5t-34 -124.5t-73.5 -113.5t-88 -103.5q-12 -14 -40 -38.5t-58.5 -53.5t-60.5 -57.5t-46 -49.5q-190 -104 -301 27q-45 55 -69.5 138t-35 174t-6.5 180.5t19 154.5q12 59 13 128t-3 138q39 8 61.5 32t36 56.5t19.5 70.5t10 75l6 55l6 37l-33 -16 q-37 -18 -81 -19q-57 0 -109.5 25.5t-85.5 70.5q-16 23 -28.5 60t-0.5 88zM82 1671q0 14 12 42t35 44q20 14 65.5 47t84.5 66q31 25 52 52.5t39.5 51t39 37.5t47.5 14q10 0 32.5 -12t47 -28.5t46 -31t27.5 -18.5q20 -12 60.5 -37.5t68.5 -48.5l36 -18t38 -21 q31 -16 52.5 -44.5t21.5 -57.5q0 -53 -13.5 -78.5t-48.5 -25.5h-45q-47 0 -88 19t-75.5 44t-65.5 44.5t-55 19.5q-31 0 -66 -19.5t-73 -46.5t-77.5 -52.5t-80.5 -39.5q-18 -6 -39 -6q-35 0 -56.5 33.5t-21.5 70.5z" />
<glyph unicode="&#xeb;" horiz-adv-x="884" d="M-201 1362q154 47 334 74.5t352 50.5q45 6 96.5 15t103.5 15.5t103.5 8.5t98.5 -6q6 -2 13 -3t13 -4q35 -10 74 -18t75 -22.5t64.5 -37t44.5 -61.5q-2 -20 -8 -32.5t-16 -26.5q-2 -4 -4 -6t-4 -6q-29 -2 -57.5 -2.5t-61.5 -0.5h-88q-33 0 -64.5 -1t-67.5 -5t-79 -11 t-96 -21q-39 8 -69 3t-62 -16q-33 -10 -76 -18l-17 -4v-17q2 -37 2 -65.5t-3 -55t-7 -52t-10 -56.5l-4 -20l18 -3q16 -4 30.5 -4h31.5q84 0 159.5 22.5t147.5 51.5q53 23 104.5 39t102.5 23q8 -23 14 -62t-6 -70q-2 -2 0 -11t-2 -9q-12 -23 -58.5 -51.5t-103.5 -58 t-111.5 -53t-80.5 -34.5q-41 -16 -80 -31.5t-80 -33.5q-10 -6 -18.5 -14.5t-12.5 -14.5q-8 -12 -12 -14q-20 -12 -40 -15.5t-38 -7.5q-16 -4 -31.5 -7t-27.5 -13q-35 -31 -53.5 -75t-24.5 -97t-5 -115.5t5 -126.5l2 -63l27 16q137 80 252.5 200t205.5 261q8 -10 20.5 -18.5 t35.5 -6.5q37 -72 31.5 -137.5t-34 -124.5t-73.5 -113.5t-88 -103.5q-12 -14 -40 -38.5t-58.5 -53.5t-60.5 -57.5t-46 -49.5q-190 -104 -301 27q-45 55 -69.5 138t-35 174t-6.5 180.5t19 154.5q12 59 13 128t-3 138q39 8 61.5 32t36 56.5t19.5 70.5t10 75l6 55l6 37l-33 -16 q-37 -18 -81 -19q-57 0 -109.5 25.5t-85.5 70.5q-16 23 -28.5 60t-0.5 88zM143 1716q0 18 3.5 46t16.5 52.5t37.5 43t67.5 18.5q31 0 58.5 -25.5t49 -60.5t34 -68.5t12.5 -52.5q0 -20 -15.5 -38.5t-36 -33t-41 -23.5t-30.5 -9q-27 0 -54.5 17t-50 41t-37 49.5t-14.5 43.5z M494 1769q0 16 12 40t30.5 45.5t40 37t41.5 15.5q16 0 40 -12.5t46.5 -27t39 -27.5t18.5 -13q2 -18 5 -42t3 -34q0 -23 -1 -33t-7 -19t-18.5 -24.5t-34.5 -50.5q-4 0 -12.5 3t-18.5 3t-26.5 -10t-26.5 -10q-31 0 -55.5 18.5t-41 43t-25.5 52t-9 45.5z" />
<glyph unicode="&#xec;" horiz-adv-x="528" d="M39 137v22.5t4 22.5q10 35 24.5 67t28.5 64q12 29 18.5 56.5t10.5 58.5q8 45 22.5 88t31 86t30.5 86t22 90q4 31 7.5 81t13.5 97.5t30.5 81t61.5 33.5q27 0 53.5 -18.5t48 -46t35 -58t13.5 -55.5q0 -10 -5.5 -28.5t-11.5 -41t-13 -45t-9 -41.5q-16 -90 -41 -189 t-54.5 -202.5t-61.5 -205t-60 -195.5q-12 -4 -19 -4q-16 0 -31.5 6t-27.5 12q-20 8 -42 10t-44 6q-6 35 -20.5 76t-14.5 86zM94 1563v20q41 12 73 30.5t64 18.5q31 0 54.5 -21.5t43 -52t36 -65.5t30.5 -61q47 -84 73.5 -142.5t55.5 -101.5q8 -10 8 -23q0 -33 -51 -32 q-31 0 -70.5 15t-111.5 75q0 20 -18.5 28.5t-30.5 22.5q-41 47 -70.5 76.5t-48 57.5t-28 62.5t-9.5 92.5z" />
<glyph unicode="&#xed;" horiz-adv-x="595" d="M39 137v22.5t4 22.5q10 35 24.5 67t28.5 64q12 29 18.5 56.5t10.5 58.5q8 45 22.5 88t31 86t30.5 86t22 90q4 31 7.5 81t13.5 97.5t30.5 81t61.5 33.5q27 0 53.5 -18.5t48 -46t35 -58t13.5 -55.5q0 -10 -5.5 -28.5t-11.5 -41t-13 -45t-9 -41.5q-16 -90 -41 -189 t-54.5 -202.5t-61.5 -205t-60 -195.5q-12 -4 -19 -4q-16 0 -31.5 6t-27.5 12q-20 8 -42 10t-44 6q-6 35 -20.5 76t-14.5 86zM199 1174q0 12 3 18t10 13t16.5 17.5t21.5 26.5q27 39 42 62.5t23.5 40t14.5 28t16 27.5q20 33 32.5 54.5t18.5 42t8.5 46t2.5 70.5q0 20 20.5 40.5 t50 38t61 29t54.5 11.5q31 0 48 -21.5t25.5 -49.5t10.5 -53.5t2 -35.5q0 -18 -12.5 -45t-32 -55.5t-43 -59t-45.5 -61.5q-18 -25 -54 -63t-78 -74.5t-88 -62t-85 -25.5q-16 0 -29.5 15t-13.5 26z" />
<glyph unicode="&#xee;" horiz-adv-x="694" d="M-45 1163q0 14 12.5 42t34.5 44q20 14 65.5 47t84.5 66q31 25 52 52.5t39.5 51t39 38t47.5 14.5q10 0 32.5 -12.5t47 -29t46 -30.5t27.5 -19q20 -12 60.5 -37.5t68.5 -48.5l36 -18t38 -20q31 -16 52.5 -45t21.5 -58q0 -53 -13.5 -75.5t-48.5 -22.5h-45q-47 0 -88 19.5 t-75.5 44t-65.5 44t-55 19.5q-31 0 -66 -19.5t-72.5 -46t-77.5 -52.5t-81 -40q-18 -6 -39 -6q-35 0 -56.5 30.5t-21.5 67.5zM39 137v22.5t4 22.5q10 35 24.5 67t28.5 64q12 29 18.5 56.5t10.5 58.5q8 45 22.5 88t31 86t30.5 86t22 90q4 31 7.5 81t13.5 97.5t30.5 81 t61.5 33.5q27 0 53.5 -18.5t48 -46t35 -58t13.5 -55.5q0 -10 -5.5 -28.5t-11.5 -41t-13 -45t-9 -41.5q-16 -90 -41 -189t-54.5 -202.5t-61.5 -205t-60 -195.5q-12 -4 -19 -4q-16 0 -31.5 6t-27.5 12q-20 8 -42 10t-44 6q-6 35 -20.5 76t-14.5 86z" />
<glyph unicode="&#xef;" horiz-adv-x="649" d="M39 137v22.5t4 22.5q10 35 24.5 67t28.5 64q12 29 18.5 56.5t10.5 58.5q8 45 22.5 88t31 86t30.5 86t22 90q4 31 7.5 81t13.5 97.5t30.5 81t61.5 33.5q27 0 53.5 -18.5t48 -46t35 -58t13.5 -55.5q0 -10 -5.5 -28.5t-11.5 -41t-13 -45t-9 -41.5q-16 -90 -41 -189 t-54.5 -202.5t-61.5 -205t-60 -195.5q-12 -4 -19 -4q-16 0 -31.5 6t-27.5 12q-20 8 -42 10t-44 6q-6 35 -20.5 76t-14.5 86zM90 1274q0 18 14.5 43.5t37 49.5t50 41t54.5 17q10 0 30.5 -9t41 -23.5t36 -33t15.5 -38.5q0 -18 -12.5 -52t-34 -69t-49 -60.5t-58.5 -25.5 q-43 0 -67.5 18.5t-38 43t-16.5 52.5t-3 46zM440 1221q0 18 9.5 45.5t26 52t41 43t54.5 18.5q10 0 26.5 -10t27.5 -10q10 0 18 3t12 3q23 -35 35 -51.5t18.5 -25.5t7.5 -18t1 -32q0 -10 -3 -33.5t-5 -42.5q-2 0 -18.5 -13t-39 -27.5t-46 -27t-40.5 -12.5q-20 0 -41.5 15.5 t-40 37t-31 45.5t-12.5 40z" />
<glyph unicode="&#xf1;" horiz-adv-x="919" d="M-25 393q0 74 5.5 149.5t15.5 147.5q6 41 20.5 80t18.5 80q4 31 3 62.5t11 62.5q8 23 23.5 50.5t37 52t47 42t54.5 17.5q27 0 53.5 -14.5t48 -38t35.5 -52t14 -57.5q0 -16 -6 -33.5t-15 -36t-18.5 -36t-15.5 -31.5q-43 -125 -62.5 -251t-19.5 -259q0 -41 12.5 -75 t55.5 -34q49 0 90 35t73.5 84t58.5 103.5t46 93.5q39 74 64.5 177t51 196t59.5 159t89 66q27 0 45.5 -13.5t30.5 -34t17.5 -43t5.5 -41.5q0 -23 -4.5 -46t-4.5 -46q0 -16 6.5 -30.5t6.5 -32.5q0 -23 -15.5 -64t-23.5 -82q-12 -59 -37 -111t-47 -110q-12 -33 -33.5 -60.5 t-36.5 -56.5q-27 -55 -65.5 -109t-82.5 -104.5t-90 -97.5t-87 -88q-8 -6 -28 -12t-41.5 -11.5t-40.5 -8.5t-26 -3q-33 0 -58.5 10.5t-49 27t-44 35.5t-40.5 38q-37 33 -58.5 75t-31.5 87t-13.5 94t-3.5 98zM213 1389q0 23 14.5 48t33 50.5t36.5 50.5t29 47q41 18 57 28.5 t24.5 15.5t16.5 6t35 1q59 0 106 -50t78 -120h10q6 10 10.5 23.5t4.5 19.5q0 31 -4.5 41.5t-10.5 16.5t-10 16t-4 41q0 10 17.5 23.5t40 26t44 20.5t31.5 8q45 0 69.5 -24.5t35 -61.5t12.5 -81t2 -83q0 -31 -20.5 -79t-54.5 -89t-75 -63.5t-79 -1.5q-72 35 -129.5 85 t-86.5 109q-27 -10 -45 -35.5t-30.5 -52.5t-20.5 -48.5t-16 -21.5h-39q-18 0 -32.5 16.5t-26 39t-17.5 45t-6 33.5z" />
<glyph unicode="&#xf2;" horiz-adv-x="1036" d="M-12 218.5q2 23.5 5 46t5 46t-2 47.5q-2 2 -2 11q10 41 27.5 79.5t31.5 81.5q25 90 62 173t81 161t92 154t95 153q29 49 58.5 95.5t64.5 81.5q39 43 107.5 72.5t140 30.5t131 -35t78.5 -122q33 -74 66.5 -135t43.5 -121q23 -129 14.5 -226t-37 -182t-74.5 -163t-97 -166 q-10 -16 -18.5 -37.5t-22.5 -38.5q-43 -49 -93.5 -110.5t-106.5 -117.5t-120.5 -98t-134.5 -55q-49 -10 -99 -5.5t-77 24.5q-10 6 -15.5 13t-21.5 15q-37 12 -66.5 43t-53 69t-39 82t-21.5 85q-4 25 -2 48.5zM233 211q4 -14 6.5 -26.5t6.5 -28.5q10 -35 14 -41t41 0 q63 10 113.5 46t93.5 85t81 105.5t75 107.5q98 137 137 289.5t10 324.5l-6 51q-29 -4 -60.5 3.5t-58.5 -11.5q-39 -39 -71.5 -87t-61.5 -91q-35 -49 -61.5 -104.5t-57.5 -104.5q-33 -51 -71.5 -115.5t-70.5 -133t-50.5 -138.5t-8.5 -131zM541 1923v21q41 12 72.5 30.5 t64.5 18.5q31 0 54.5 -21.5t43 -52.5t35.5 -65.5t31 -61.5q47 -84 73.5 -142.5t55.5 -101.5q8 -10 8 -22q0 -33 -51 -33q-31 0 -71 15.5t-112 74.5q0 20 -18 28.5t-31 22.5q-41 47 -70.5 77t-48 57.5t-27.5 62.5t-9 92z" />
<glyph unicode="&#xf3;" horiz-adv-x="1046" d="M-86 266q0 51 18.5 93t18.5 92v10q16 41 40.5 74.5t45.5 74.5q39 86 90 161t107.5 144.5t117 137t119.5 135.5q37 43 74 83t76 68q45 37 118.5 54.5t144 7.5t123 -56.5t56.5 -134.5q18 -78 41.5 -144.5t23.5 -125.5q0 -131 -24.5 -226.5t-67.5 -173t-100 -147 t-123 -147.5q-14 -16 -25.5 -36t-27.5 -32q-51 -43 -110.5 -94t-125 -97t-136.5 -77t-142 -31q-49 0 -98 12t-72 35q-8 8 -12.5 16.5t-18.5 18.5q-35 18 -59.5 53t-40 77t-23.5 88t-8 87zM162 266q0 -14 1 -27.5t1 -29.5q4 -35 7 -42t40 -7q66 0 122 26.5t106 67.5t96.5 90 t91.5 94q121 119 185.5 262.5t64.5 317.5l2 51q-29 2 -60 14.5t-59 -2.5q-45 -31 -85 -72.5t-77 -80.5q-41 -41 -77 -91.5t-75 -93.5q-41 -45 -90 -102t-92 -119.5t-72.5 -128t-29.5 -127.5zM575 1466q0 12 3.5 18.5t10.5 13.5t16 17.5t22 26.5q27 39 42 62.5t23 40 t14.5 27.5t16.5 28q20 33 32.5 54.5t18.5 42t8 46t2 70.5q0 20 20.5 40.5t50.5 38t61.5 29t54.5 11.5q31 0 48 -21.5t25.5 -49.5t10.5 -53.5t2 -35.5q0 -18 -12.5 -45t-32 -55.5t-43 -59.5t-45.5 -61q-18 -25 -54 -63t-78 -74.5t-88.5 -62.5t-85.5 -26q-16 0 -29.5 15.5 t-13.5 25.5z" />
<glyph unicode="&#xf4;" horiz-adv-x="1071" d="M-12 218.5q2 23.5 5 46t5 46t-2 47.5q-2 2 -2 11q10 41 27.5 79.5t31.5 81.5q25 90 62 173t81 161t92 154t95 153q29 49 58.5 95.5t64.5 81.5q39 43 107.5 72.5t140 30.5t131 -35t78.5 -122q33 -74 66.5 -135t43.5 -121q23 -129 14.5 -226t-37 -182t-74.5 -163t-97 -166 q-10 -16 -18.5 -37.5t-22.5 -38.5q-43 -49 -93.5 -110.5t-106.5 -117.5t-120.5 -98t-134.5 -55q-49 -10 -99 -5.5t-77 24.5q-10 6 -15.5 13t-21.5 15q-37 12 -66.5 43t-53 69t-39 82t-21.5 85q-4 25 -2 48.5zM233 211q4 -14 6.5 -26.5t6.5 -28.5q10 -35 14 -41t41 0 q63 10 113.5 46t93.5 85t81 105.5t75 107.5q98 137 137 289.5t10 324.5l-6 51q-29 -4 -60.5 3.5t-58.5 -11.5q-39 -39 -71.5 -87t-61.5 -91q-35 -49 -61.5 -104.5t-57.5 -104.5q-33 -51 -71.5 -115.5t-70.5 -133t-50.5 -138.5t-8.5 -131zM334 1499q0 16 11 49t34 49 q20 16 64 55.5t83 76.5q29 29 50.5 60.5t40 58t38 44t45.5 17.5q10 0 34 -14.5t48.5 -33t46 -36t27.5 -21.5q20 -14 61 -42.5t70 -57.5q12 -6 36 -20.5t38 -24.5q33 -18 54.5 -50t23.5 -67q0 -63 -13.5 -76.5t-48.5 -13.5h-45q-47 0 -88 22.5t-77 50t-66.5 50t-55.5 22.5 q-31 0 -64.5 -22.5t-71.5 -52t-77.5 -60t-78.5 -47.5q-18 -6 -39 -6q-35 0 -57.5 23.5t-22.5 66.5z" />
<glyph unicode="&#xf5;" horiz-adv-x="1052" d="M-12 218.5q2 23.5 5 46t5 46t-2 47.5q-2 2 -2 11q10 41 27.5 79.5t31.5 81.5q25 90 62 173t81 161t92 154t95 153q29 49 58.5 95.5t64.5 81.5q39 43 107.5 72.5t140 30.5t131 -35t78.5 -122q33 -74 66.5 -135t43.5 -121q23 -129 14.5 -226t-37 -182t-74.5 -163t-97 -166 q-10 -16 -18.5 -37.5t-22.5 -38.5q-43 -49 -93.5 -110.5t-106.5 -117.5t-120.5 -98t-134.5 -55q-49 -10 -99 -5.5t-77 24.5q-10 6 -15.5 13t-21.5 15q-37 12 -66.5 43t-53 69t-39 82t-21.5 85q-4 25 -2 48.5zM233 211q4 -14 6.5 -26.5t6.5 -28.5q10 -35 14 -41t41 0 q63 10 113.5 46t93.5 85t81 105.5t75 107.5q98 137 137 289.5t10 324.5l-6 51q-29 -4 -60.5 3.5t-58.5 -11.5q-39 -39 -71.5 -87t-61.5 -91q-35 -49 -61.5 -104.5t-57.5 -104.5q-33 -51 -71.5 -115.5t-70.5 -133t-50.5 -138.5t-8.5 -131zM461 1636q0 23 14 48.5t32.5 51 t37 50t28.5 47.5q41 18 57.5 28.5t25 15.5t16.5 6t35 1q59 0 106 -50t78 -120h10q6 10 10 23.5t4 19.5q0 31 -4 41t-10 16.5t-10 16.5t-4 41q0 10 17.5 23.5t40 25.5t44 20.5t31.5 8.5q45 0 69.5 -24.5t35 -61.5t12.5 -81t2 -83q0 -31 -20.5 -79t-54.5 -89t-75 -63.5 t-80 -2.5q-72 35 -129 85.5t-86 109.5q-27 -10 -45 -36t-30.5 -52.5t-20.5 -48t-16 -21.5h-39q-18 0 -32.5 16.5t-26 39t-17.5 45t-6 32.5z" />
<glyph unicode="&#xf6;" horiz-adv-x="1056" d="M-12 218.5q2 23.5 5 46t5 46t-2 47.5q-2 2 -2 11q10 41 27.5 79.5t31.5 81.5q25 90 62 173t81 161t92 154t95 153q29 49 58.5 95.5t64.5 81.5q39 43 107.5 72.5t140 30.5t131 -35t78.5 -122q33 -74 66.5 -135t43.5 -121q23 -129 14.5 -226t-37 -182t-74.5 -163t-97 -166 q-10 -16 -18.5 -37.5t-22.5 -38.5q-43 -49 -93.5 -110.5t-106.5 -117.5t-120.5 -98t-134.5 -55q-49 -10 -99 -5.5t-77 24.5q-10 6 -15.5 13t-21.5 15q-37 12 -66.5 43t-53 69t-39 82t-21.5 85q-4 25 -2 48.5zM233 211q4 -14 6.5 -26.5t6.5 -28.5q10 -35 14 -41t41 0 q63 10 113.5 46t93.5 85t81 105.5t75 107.5q98 137 137 289.5t10 324.5l-6 51q-29 -4 -60.5 3.5t-58.5 -11.5q-39 -39 -71.5 -87t-61.5 -91q-35 -49 -61.5 -104.5t-57.5 -104.5q-33 -51 -71.5 -115.5t-70.5 -133t-50.5 -138.5t-8.5 -131zM502 1692q0 10 3 33.5t5 41.5 q2 0 18.5 13.5t39 28t46 26.5t39.5 12q20 0 42 -15t40.5 -36.5t30.5 -45.5t12 -40q0 -18 -9 -46t-25.5 -52.5t-41 -43t-55.5 -18.5q-10 0 -26.5 10.5t-26.5 10.5t-18.5 -3t-12.5 -3q-23 35 -35 50t-18 24.5t-7 19.5t-1 33zM850 1610q0 18 12 52t34 68.5t49.5 60.5t58.5 26 q43 0 67.5 -18.5t37.5 -43t16 -52.5t3 -46t-14 -44t-36.5 -49.5t-50.5 -41t-54 -17.5q-10 0 -30.5 9.5t-41 23.5t-36 32.5t-15.5 39.5z" />
<glyph unicode="&#xf7;" horiz-adv-x="1210" d="M221 604q0 100 59.5 135t143.5 35q6 0 23.5 -3t38 -7t38 -7t23.5 -3q33 0 62.5 1t64.5 1q57 0 89 8t56.5 17.5t51 17.5t75.5 8q8 0 23.5 -12.5t30 -28.5t24.5 -32.5t10 -26.5q0 -4 -6 -26t-14 -47.5t-17.5 -46t-17.5 -20.5t-8 4t-10 4q-12 0 -21.5 -18t-24.5 -18 q-12 0 -18 4t-20 4q-6 0 -45 -9.5t-89.5 -19.5t-99.5 -19.5t-76 -9.5q-33 0 -52 -2t-33.5 -3t-27 -3t-30.5 -2q-16 0 -49 4t-68 17.5t-60.5 38t-25.5 65.5zM475 182q0 98 33 129t90 37q12 0 21.5 10.5t21.5 10.5q16 0 21.5 -12.5t17.5 -12.5q8 0 10 1t2 3t2 3t8 1 q27 0 48.5 -20.5t38 -46t25.5 -51t9 -37.5q0 -37 -20.5 -73t-50 -63.5t-64.5 -44t-65 -16.5q-35 0 -63 21.5t-46 51t-28.5 60.5t-10.5 49zM479 1059q0 12 8.5 24.5t12.5 24.5q2 23 3 48.5t15 41.5q18 6 41 13.5t45.5 13.5t41 10t26.5 4q47 0 79.5 -22.5t52 -56.5t29 -71.5 t9.5 -68.5q0 -20 -19.5 -46t-46 -48.5t-54.5 -38t-42 -15.5q-37 0 -74 16.5t-64.5 42t-45 59.5t-17.5 69z" />
<glyph unicode="&#xf8;" horiz-adv-x="1159" d="M-68 295q0 31 6.5 67.5t14.5 73.5t15 73t12 66q6 61 16 124t30.5 130.5t54.5 142.5t89 163q51 82 100 127t95.5 65.5t90.5 21.5t87 -3.5t86 -7.5t88 8q2 0 10 10t17.5 21.5t17.5 20.5t10 9q23 37 36 70.5t23 60.5l7 12h12q59 0 104 -26.5t88 -53.5l9 -8q8 -25 8 -53 q0 -23 -3 -45.5t-3 -44.5q0 -33 10 -57.5t24.5 -46t30 -43t25.5 -48.5q16 -51 22 -110.5t6 -118.5q0 -92 5.5 -165t-3 -145.5t-39 -150.5t-102.5 -178q-35 -53 -89 -112.5t-115.5 -115t-127 -102.5t-125.5 -80q-12 -6 -27.5 -11t-30.5 -10t-27.5 -10t-16.5 -14 q-14 -23 -34.5 -82t-20.5 -182q0 -49 9 -74.5t20.5 -43t20.5 -34t9 -44.5q0 -29 -15.5 -48.5t-45.5 -23.5q-51 0 -90 25.5t-64.5 65.5t-38 89t-12.5 98q0 33 7 65t11 62q6 43 7 52v8l2 7t12 48q-63 23 -120.5 79t-100.5 129t-70 151.5t-27 146.5zM150 287q0 -98 37.5 -153.5 t97.5 -78.5q25 2 36 1t16 2t7 16.5t6 42.5v8q4 23 12.5 43t12.5 43q33 119 56.5 213t47 185t51 188.5t66.5 224.5q8 27 30.5 61.5t28.5 63.5q0 2 -21.5 2t-48 1t-50 3t-27.5 6q-84 -102 -150.5 -196.5t-112.5 -195.5t-70.5 -217t-24.5 -263zM535 55q10 6 27.5 13.5 t39.5 17.5q23 10 58.5 42t76.5 77t82 99t76 108.5t56.5 104.5t23.5 87l20 295q0 8 -2 37t-8 66.5t-17.5 80.5t-25.5 84q-37 -33 -62.5 -83t-43.5 -93t-35 -81t-32 -74.5t-30.5 -75.5t-29.5 -86q-29 -86 -51.5 -153.5t-42 -135.5t-40 -145.5t-40.5 -184.5z" />
<glyph unicode="&#xf9;" horiz-adv-x="919" d="M-25 393q0 74 5.5 149.5t15.5 147.5q6 41 20.5 80t18.5 80q4 31 3 62.5t11 62.5q8 23 23.5 50.5t37 52t47 42t54.5 17.5q27 0 53.5 -14.5t48 -38t35.5 -52t14 -57.5q0 -16 -6 -33.5t-15 -36t-18.5 -36t-15.5 -31.5q-43 -125 -62.5 -251t-19.5 -259q0 -41 12.5 -75 t55.5 -34q49 0 90 35t73.5 84t58.5 103.5t46 93.5q39 74 64.5 177t51 196t59.5 159t89 66q27 0 45.5 -13.5t30.5 -34t17.5 -43t5.5 -41.5q0 -23 -4.5 -46t-4.5 -46q0 -16 6.5 -30.5t6.5 -32.5q0 -23 -15.5 -64t-23.5 -82q-12 -59 -37 -111t-47 -110q-12 -33 -33.5 -60.5 t-36.5 -56.5q-27 -55 -65.5 -109t-82.5 -104.5t-90 -97.5t-87 -88q-8 -6 -28 -12t-41.5 -11.5t-40.5 -8.5t-26 -3q-33 0 -58.5 10.5t-49 27t-44 35.5t-40.5 38q-37 33 -58.5 75t-31.5 87t-13.5 94t-3.5 98zM233 1483v20q41 12 73 30.5t65 18.5q31 0 54.5 -21.5t42.5 -52 t35.5 -65.5t31.5 -61q47 -84 73.5 -142.5t55.5 -101.5q8 -10 8 -23q0 -33 -51 -32q-31 0 -71 15t-112 75q0 20 -18.5 28.5t-30.5 22.5q-41 47 -70.5 76.5t-48 57.5t-28 62.5t-9.5 92.5z" />
<glyph unicode="&#xfa;" horiz-adv-x="954" d="M-25 393q0 74 5.5 149.5t15.5 147.5q6 41 20.5 80t18.5 80q4 31 3 62.5t11 62.5q8 23 23.5 50.5t37 52t47 42t54.5 17.5q27 0 53.5 -14.5t48 -38t35.5 -52t14 -57.5q0 -16 -6 -33.5t-15 -36t-18.5 -36t-15.5 -31.5q-43 -125 -62.5 -251t-19.5 -259q0 -41 12.5 -75 t55.5 -34q49 0 90 35t73.5 84t58.5 103.5t46 93.5q39 74 64.5 177t51 196t59.5 159t89 66q27 0 45.5 -13.5t30.5 -34t17.5 -43t5.5 -41.5q0 -23 -4.5 -46t-4.5 -46q0 -16 6.5 -30.5t6.5 -32.5q0 -23 -15.5 -64t-23.5 -82q-12 -59 -37 -111t-47 -110q-12 -33 -33.5 -60.5 t-36.5 -56.5q-27 -55 -65.5 -109t-82.5 -104.5t-90 -97.5t-87 -88q-8 -6 -28 -12t-41.5 -11.5t-40.5 -8.5t-26 -3q-33 0 -58.5 10.5t-49 27t-44 35.5t-40.5 38q-37 33 -58.5 75t-31.5 87t-13.5 94t-3.5 98zM410 1092q0 12 3 18t10 13t16.5 17.5t21.5 26.5q27 39 42 62.5 t23.5 40t14.5 28t16 27.5q20 33 32.5 54.5t18.5 42t8 46t2 70.5q0 20 20.5 40.5t50.5 38t61.5 29t54.5 11.5q31 0 48 -21.5t25.5 -49t10.5 -53.5t2 -36q0 -18 -12.5 -45t-32 -55.5t-43 -59t-45.5 -61.5q-18 -25 -54 -62.5t-78 -74.5t-88 -62.5t-85 -25.5q-16 0 -29.5 15 t-13.5 26z" />
<glyph unicode="&#xfb;" horiz-adv-x="919" d="M-25 393q0 74 5.5 149.5t15.5 147.5q6 41 20.5 80t18.5 80q4 31 3 62.5t11 62.5q8 23 23.5 50.5t37 52t47 42t54.5 17.5q27 0 53.5 -14.5t48 -38t35.5 -52t14 -57.5q0 -16 -6 -33.5t-15 -36t-18.5 -36t-15.5 -31.5q-43 -125 -62.5 -251t-19.5 -259q0 -41 12.5 -75 t55.5 -34q49 0 90 35t73.5 84t58.5 103.5t46 93.5q39 74 64.5 177t51 196t59.5 159t89 66q27 0 45.5 -13.5t30.5 -34t17.5 -43t5.5 -41.5q0 -23 -4.5 -46t-4.5 -46q0 -16 6.5 -30.5t6.5 -32.5q0 -23 -15.5 -64t-23.5 -82q-12 -59 -37 -111t-47 -110q-12 -33 -33.5 -60.5 t-36.5 -56.5q-27 -55 -65.5 -109t-82.5 -104.5t-90 -97.5t-87 -88q-8 -6 -28 -12t-41.5 -11.5t-40.5 -8.5t-26 -3q-33 0 -58.5 10.5t-49 27t-44 35.5t-40.5 38q-37 33 -58.5 75t-31.5 87t-13.5 94t-3.5 98zM150 1360q2 14 17 40.5t38 41.5q23 12 71 40.5t89 57.5 q33 23 56 48.5t44.5 46t42 33.5t47.5 11q10 0 31.5 -15t45 -33.5t43 -35t25.5 -20.5q18 -14 55.5 -43t65.5 -55q10 -6 33 -20.5t37 -24.5q29 -20 48 -50t15 -59q-4 -53 -19 -75.5t-50 -18.5l-45 4q-47 4 -86 27.5t-72 51t-61.5 50t-53.5 24.5q-31 2 -66.5 -14t-75.5 -38.5 t-83 -45t-84 -33.5q-10 -2 -20.5 -2h-20.5q-35 4 -53.5 38t-13.5 69z" />
<glyph unicode="&#xfc;" horiz-adv-x="933" d="M-25 393q0 74 5.5 149.5t15.5 147.5q6 41 20.5 80t18.5 80q4 31 3 62.5t11 62.5q8 23 23.5 50.5t37 52t47 42t54.5 17.5q27 0 53.5 -14.5t48 -38t35.5 -52t14 -57.5q0 -16 -6 -33.5t-15 -36t-18.5 -36t-15.5 -31.5q-43 -125 -62.5 -251t-19.5 -259q0 -41 12.5 -75 t55.5 -34q49 0 90 35t73.5 84t58.5 103.5t46 93.5q39 74 64.5 177t51 196t59.5 159t89 66q27 0 45.5 -13.5t30.5 -34t17.5 -43t5.5 -41.5q0 -23 -4.5 -46t-4.5 -46q0 -16 6.5 -30.5t6.5 -32.5q0 -23 -15.5 -64t-23.5 -82q-12 -59 -37 -111t-47 -110q-12 -33 -33.5 -60.5 t-36.5 -56.5q-27 -55 -65.5 -109t-82.5 -104.5t-90 -97.5t-87 -88q-8 -6 -28 -12t-41.5 -11.5t-40.5 -8.5t-26 -3q-33 0 -58.5 10.5t-49 27t-44 35.5t-40.5 38q-37 33 -58.5 75t-31.5 87t-13.5 94t-3.5 98zM252 1372q0 23 1 32t7 18.5t18.5 25.5t34.5 51q4 0 12.5 -3 t18.5 -3t26.5 10t26.5 10q31 0 55.5 -18t41 -43t25.5 -52.5t9 -45.5q0 -16 -12 -40t-30.5 -45.5t-40 -36.5t-42.5 -15q-16 0 -39.5 12t-46 26.5t-39 27.5t-18.5 13q-2 18 -5 42t-3 34zM600 1454q0 20 15.5 38.5t36 33t41 24t30.5 9.5q27 0 54.5 -17.5t50 -41t37 -49.5 t14.5 -44t-3.5 -46t-16.5 -52.5t-37.5 -43t-67.5 -18.5q-31 0 -58.5 25.5t-49 60.5t-34 69t-12.5 52z" />
<glyph unicode="&#xfd;" horiz-adv-x="1138" d="M-78 721q0 41 8.5 80t8.5 80q0 23 -1 43t-1 39q0 35 19 42t46 7q4 0 9 -1t12 -1q6 0 49 7t84 7q16 0 25 -14.5t22 -26.5q20 -20 23 -45t7 -47q6 -55 4.5 -138t2.5 -165t20 -147.5t59 -82.5q88 70 156 166.5t117 196.5q25 51 51.5 94t54 85t56 86t55.5 93q20 37 36.5 78 t43.5 76q20 29 37.5 41t36 17t39 6t49.5 8q8 -4 24 -5h10q4 -10 12.5 -22t18.5 -18q-4 -133 -22.5 -261.5t-44 -254.5t-52 -250.5t-47.5 -253.5h-8q-23 -96 -45.5 -186.5t-40.5 -179.5t-29.5 -179t-11.5 -189q0 -131 14.5 -252.5t14.5 -244.5q0 -27 -19.5 -55.5t-19.5 -53.5 q-4 0 -6 1t-4 1q-6 0 -15 -4q-12 6 -36.5 8t-41.5 2q-23 0 -44 -3t-44 -3h-6q-10 0 -14 6.5t-7 13.5t-7.5 15t-14.5 14q6 12 8 32t2 43.5v46v38.5q0 78 -4 152.5t-4 152.5q0 152 24.5 301.5t53.5 296.5q4 25 15.5 66t23.5 88t21.5 96t9.5 92q0 63 -27 93q-41 -35 -77 -94.5 t-74.5 -118t-83.5 -101.5t-107 -43q-59 0 -112.5 34t-98.5 62q-27 16 -43 55.5t-28.5 85.5t-21.5 90t-19 73t-17.5 66.5t-21.5 64.5q-2 6 -12.5 17t-20.5 22.5t-19 19.5l-8 8q-2 10 -2 31zM385 1182q0 12 4 18t11.5 13.5l17.5 17.5t24 26q31 39 47.5 62.5t25.5 40t16.5 28 t17.5 27.5q25 33 38 54.5t19 42t8 46t2 70.5q0 20 24 41t55.5 38t67.5 28.5t60 11.5q35 0 54.5 -21.5t28.5 -49t11.5 -53.5t2.5 -36q0 -18 -14.5 -44.5t-36 -55.5t-47 -59.5t-50.5 -61.5q-23 -25 -61.5 -62.5t-85.5 -74.5t-97.5 -62.5t-95.5 -25.5q-16 0 -31.5 15t-15.5 26z " />
<glyph unicode="&#xff;" horiz-adv-x="972" d="M-16 510.5v38.5q0 33 2 77t5 93t9 97t12 89q4 27 12.5 61.5t15.5 71.5t13 72t6 64q6 -2 21 -3q39 0 77 18.5t64 18.5q8 0 17 -4q18 -18 30.5 -28.5t20.5 -18.5t12 -16t4 -21q0 -27 -13 -71.5t-24 -79.5q-16 -49 -24 -104.5t-13.5 -111t-6.5 -107.5t-1 -97 q0 -27 7.5 -45.5t31.5 -18.5q41 0 80 39t70.5 93.5t58.5 109.5t43 88q18 39 46 85t55.5 94t54 97.5t43.5 92.5q6 4 16 13t12 32q8 4 33 10t60 6q74 0 133 -47q-4 -12 -6.5 -29.5t-2.5 -33.5v-15.5t5 -17.5q-6 -45 -15.5 -98.5t-19.5 -109.5t-19.5 -110.5t-15.5 -99.5l-6 2 q-27 -90 -67 -169t-68 -167q-18 -53 -31.5 -107.5t-30.5 -107.5q-86 -248 -131 -493.5t-63 -499.5q0 -8 -1 -17.5t-1 -33v-64.5t2 -110q0 -16 1 -39t1 -52q0 -35 -3 -43t-3 -28l-7 4l-12 -25q-10 -23 -35.5 -27.5t-77.5 -4.5h-4q-14 0 -23 -2.5t-22 -2.5l-6 3q-16 4 -18 10 t-13 10q-18 27 -22 102.5t1 180t19.5 226.5t30.5 243.5t35.5 233.5t36 191.5t28 120.5t15.5 21l2 6q14 43 31.5 85t35 90t36 104.5t34.5 130.5q-31 -49 -56.5 -89t-57 -68t-76.5 -43t-113 -15q-39 0 -81 12t-79 37q-10 6 -20.5 24.5t-21.5 41t-23.5 44t-24.5 31.5 q0 12 -4 23.5t-8 19.5q-8 20 -8 37.5zM250 1485q0 23 1 32t7 18t18.5 25.5t34.5 51.5q4 0 12.5 -3t18.5 -3t26.5 10t26.5 10q31 0 55.5 -18.5t41 -43t25.5 -52.5t9 -46q0 -16 -12 -39.5t-30.5 -45t-40 -37t-42.5 -15.5q-16 0 -39.5 12.5t-46 26.5t-39 27.5t-18.5 13.5 q-2 18 -5 42t-3 34zM598 1567q0 20 15.5 38.5t36 33t41 23.5t30.5 9q27 0 54.5 -17.5t50 -41t37 -49t14.5 -43.5t-3.5 -46t-16.5 -52.5t-37.5 -43t-67.5 -18.5q-31 0 -58.5 25.5t-49 60.5t-34 68.5t-12.5 52.5z" />
<glyph unicode="&#x152;" horiz-adv-x="1683" d="M-68 340q4 45 15.5 85t17.5 85q12 98 37 186t56.5 171t66.5 164t70 165q23 53 45 100t49 88l14 23l-12 23q-35 66 -57.5 95t-22.5 56q0 16 24.5 28.5t36.5 24.5q23 0 52.5 -2t44.5 -12l14 -10l18 4q10 2 18.5 3t16.5 1q39 0 73 -16.5t66.5 -44t67.5 -62.5t78 -70 q53 23 130 37.5t161 30.5q33 6 92 21.5t133 31t153.5 27.5t153.5 12q215 0 246 -117q2 -10 3 -19t1 -17q0 -31 -19.5 -49.5t-49 -27.5t-65.5 -12.5t-71 -3.5h-23.5t-21.5 2h-42t-32 -2q-6 0 -42.5 -7t-90 -18t-116 -24.5t-117.5 -28t-94 -28.5t-47 -25l-5 -10l3 -8 q4 -25 15 -42.5t22.5 -33.5t20.5 -33.5t11 -42.5l2 -18h19q57 4 130.5 21.5t147.5 36t139.5 32.5t108.5 14q14 0 24.5 -11t17.5 -25.5t10 -27.5t3 -20q0 -45 -61 -100q-57 -53 -129 -83t-146.5 -52.5t-150.5 -44t-141 -55.5q-23 -12 -46.5 -24.5t-46.5 -27.5 q-20 -63 -44.5 -121.5t-49.5 -121.5q-8 -18 -13 -42t-16 -40q-10 -16 -17 -27.5t-13 -24.5q0 -27 6 -51l6 -20l18 6q98 33 181.5 93.5t146.5 139.5q14 18 27.5 45t29 51.5t34 42t40.5 17.5q14 0 28.5 -20.5t27 -48t20.5 -58.5t8 -51q0 -68 -41 -127t-98 -112.5 t-121.5 -101.5t-114.5 -93q-31 -29 -58.5 -44.5t-60 -23.5t-76.5 -9t-112 -1q-47 0 -92 2t-82 10q-29 -27 -87 -44t-109 -17q-41 0 -55.5 14t-43.5 21q-37 8 -74.5 36.5t-68.5 67.5t-53.5 83t-30.5 83q-10 45 -6 88t-15 86zM180 297q0 -47 19.5 -88t31.5 -84 q35 10 61.5 19.5t55.5 29.5q43 31 75 73t59.5 89t51 98t48.5 101q94 184 94 374q0 125 -43 252l-15 49l-38 -20h-11q-8 0 -18 -2t-19 -8l-14 -15q-33 -43 -56.5 -96t-45.5 -100q-27 -53 -51.5 -106.5t-47.5 -106.5t-47 -110.5t-43.5 -116t-33 -118t-13.5 -114.5z" />
<glyph unicode="&#x153;" horiz-adv-x="1638" d="M-43 526q0 16 1 31.5t1 32.5q2 63 19.5 124.5t40 122t47 119t40.5 119.5q16 59 42 111.5t45 105.5q6 20 23 55t47 68t71 56.5t96 23.5q78 0 137.5 -15.5t112.5 -15.5q16 0 27 2q102 18 205.5 32.5t203.5 27.5q72 10 155 24.5t163 14.5q20 0 41.5 -1t42.5 -5l26 -7 q35 -10 74 -18t75 -22.5t64.5 -37t44.5 -61.5q-2 -20 -8 -32.5t-16 -26.5l-9 -13q-29 -2 -57.5 -2h-60.5h-88q-33 0 -65 -1t-67.5 -5t-78.5 -11t-97 -22q-10 2 -20 3.5t-21 1.5q-41 0 -74.5 -12.5t-90.5 -22.5l-17 -4v-17q2 -16 2 -31.5v-29.5q0 -47 -5 -83t-15 -85l-4 -21 l18 -2q16 -4 30.5 -4h31.5q72 0 139 18.5t130.5 42t124 46t120.5 28.5q4 -16 10 -38.5t6 -47.5q0 -14 -4 -26t-4 -23v-10q0 -18 -47 -49t-107.5 -61.5t-119 -57.5t-83.5 -35q-23 -8 -50 -18t-55 -21.5t-50.5 -25t-34.5 -29.5q-16 -25 -43 -29t-47 -8q-47 -8 -75 -35.5 t-42 -67.5t-19 -89t-5 -101q0 -35 1 -69.5t3 -71.5l2 -63l26 16q137 80 253 199.5t206 261.5q8 -10 19.5 -17.5t29.5 -7.5q10 0 17.5 -17.5t11.5 -40t6 -43t2 -26.5q0 -51 -17.5 -98t-46 -91t-63.5 -85t-67 -78q-12 -14 -40 -39t-59 -53.5t-60.5 -57t-45.5 -49.5 q-88 -47 -154 -47q-72 0 -126 51.5t-87 143.5q-10 -23 -23.5 -40.5t-31.5 -33.5q-25 -20 -45.5 -44t-43 -44.5t-48 -33.5t-60.5 -13q-31 0 -64.5 6t-65.5 15.5t-57.5 21.5t-37.5 22q-59 49 -112.5 125t-69.5 150q-10 49 -12.5 98t-8.5 98q-4 31 -6 62t-2 63zM213 543 q0 -55 6 -115.5t19.5 -111t37 -83t58.5 -32.5q37 0 70.5 36.5t60.5 87t46.5 101.5t27.5 78q18 57 46.5 133t45.5 151q0 20 -1 39t-1 39q4 0 6 1t6 1q0 47 -15.5 81t-31.5 77q-6 16 -23.5 37.5t-43 45.5t-56.5 47.5t-61 45.5q4 -8 4 -18q0 -25 -15.5 -68t-35 -87t-37 -82 t-21.5 -52q-14 -45 -30.5 -79t-30 -70.5t-22.5 -85t-9 -117.5z" />
<glyph unicode="&#x178;" horiz-adv-x="1083" d="M-78 721q0 41 8.5 80t8.5 80q0 23 -1 43t-1 39q0 35 19 42t46 7q4 0 9 -1t12 -1q6 0 49 7t84 7q16 0 25 -14.5t22 -26.5q20 -20 23 -45t7 -47q6 -55 4.5 -138t2.5 -165t20 -147.5t59 -82.5q88 70 156 166.5t117 196.5q25 51 51.5 94t54 85t56 86t55.5 93q20 37 36.5 78 t43.5 76q20 29 37.5 41t36 17t39 6t49.5 8q8 -4 24 -5h10q4 -10 12.5 -22t18.5 -18q-4 -133 -22.5 -261.5t-44 -254.5t-52 -250.5t-47.5 -253.5h-8q-23 -96 -45.5 -186.5t-40.5 -179.5t-29.5 -179t-11.5 -189q0 -131 14.5 -252.5t14.5 -244.5q0 -27 -19.5 -55.5t-19.5 -53.5 q-4 0 -6 1t-4 1q-6 0 -15 -4q-12 6 -36.5 8t-41.5 2q-23 0 -44 -3t-44 -3h-6q-10 0 -14 6.5t-7 13.5t-7.5 15t-14.5 14q6 12 8 32t2 43.5v46v38.5q0 78 -4 152.5t-4 152.5q0 152 24.5 301.5t53.5 296.5q4 25 15.5 66t23.5 88t21.5 96t9.5 92q0 63 -27 93q-41 -35 -77 -94.5 t-74.5 -118t-83.5 -101.5t-107 -43q-59 0 -112.5 34t-98.5 62q-27 16 -43 55.5t-28.5 85.5t-21.5 90t-19 73t-17.5 66.5t-21.5 64.5q-2 6 -12.5 17t-20.5 22.5t-19 19.5l-8 8q-2 10 -2 31zM229 1436q2 18 8.5 44.5t21.5 50t42 39t70 11.5q31 -4 55.5 -32.5t41.5 -65.5 t26.5 -72t7.5 -53q-2 -20 -19.5 -37.5t-40 -30t-44 -18.5t-31.5 -4q-25 2 -50.5 22.5t-46 47t-32 53.5t-9.5 45zM584 1450q2 16 16 37.5t34.5 42t44 33t44.5 10.5q14 -2 36.5 -16.5t43 -32t36 -31.5t17.5 -14q0 -20 1 -44t-1 -34q-2 -23 -4 -32t-9 -18.5t-21.5 -22.5 t-41.5 -46q-4 0 -11 4t-17 6q-10 0 -27.5 -8t-28.5 -8q-31 4 -53 24.5t-35.5 48t-19.5 55.5t-4 46z" />
<glyph unicode="&#x2c6;" horiz-adv-x="1024" d="M125 1090q0 14 12.5 41.5t34.5 44.5q20 14 65.5 46.5t84.5 65.5q31 25 52 52.5t39.5 51t39 38t47.5 14.5q10 0 32.5 -12.5t47 -29t46 -30.5t27.5 -18q20 -12 60.5 -38t68.5 -48q12 -6 36 -18.5t38 -20.5q31 -16 52.5 -45t21.5 -58q0 -53 -13.5 -65t-48.5 -12h-45 q-47 0 -88 19t-75.5 44t-65.5 44.5t-55 19.5q-31 0 -66 -19.5t-73 -46.5t-77.5 -52.5t-80.5 -39.5q-18 -6 -39 -6q-35 0 -56.5 20.5t-21.5 57.5z" />
<glyph unicode="&#x2dc;" horiz-adv-x="1024" d="M215 1128q0 23 14.5 48.5t33 51t36.5 50.5t29 47q41 18 57 28.5t24.5 15.5t16.5 6t35 1q59 0 106 -50t78 -120h10q6 10 10.5 23.5t4.5 19.5q0 31 -12.5 47.5t-26 28.5t-25.5 27.5t-12 46.5q0 10 11 23.5t25.5 25.5t30 20.5t25.5 8.5q45 0 70.5 -23.5t38 -59.5t14.5 -79 t2 -82q0 -31 -5 -69t-21.5 -69.5t-45 -54t-75.5 -22.5q-41 0 -71 19.5t-52.5 49t-39 64.5t-30.5 66q-27 -10 -48.5 -39t-38.5 -61t-28.5 -56.5t-19.5 -24.5h-39q-18 0 -32.5 10.5t-26 24.5t-17.5 30.5t-6 26.5z" />
<glyph unicode="&#x2000;" horiz-adv-x="1054" />
<glyph unicode="&#x2001;" horiz-adv-x="2109" />
<glyph unicode="&#x2002;" horiz-adv-x="1054" />
<glyph unicode="&#x2003;" horiz-adv-x="2109" />
<glyph unicode="&#x2004;" horiz-adv-x="703" />
<glyph unicode="&#x2005;" horiz-adv-x="527" />
<glyph unicode="&#x2006;" horiz-adv-x="351" />
<glyph unicode="&#x2007;" horiz-adv-x="351" />
<glyph unicode="&#x2008;" horiz-adv-x="263" />
<glyph unicode="&#x2009;" horiz-adv-x="421" />
<glyph unicode="&#x200a;" horiz-adv-x="117" />
<glyph unicode="&#x2010;" d="M133 469q0 100 59.5 135t143.5 35q6 0 23.5 -3t38 -7t38 -7.5t23.5 -3.5q33 0 62.5 1.5t64.5 1.5q57 0 89 8t56.5 17t51 17.5t75.5 8.5q8 0 23.5 -12.5t30 -29t24.5 -33t10 -26.5q0 -4 -6 -25.5t-14 -47t-17.5 -46t-17.5 -20.5t-8 4t-11 4q-12 0 -21 -18.5t-24 -18.5 q-12 0 -18 4.5t-21 4.5q-6 0 -44.5 -9.5t-89 -19.5t-99.5 -19.5t-76 -9.5q-33 0 -52 -2t-33.5 -3t-27 -3t-30.5 -2q-16 0 -49 4t-68 17.5t-60.5 38t-25.5 65.5z" />
<glyph unicode="&#x2011;" d="M133 469q0 100 59.5 135t143.5 35q6 0 23.5 -3t38 -7t38 -7.5t23.5 -3.5q33 0 62.5 1.5t64.5 1.5q57 0 89 8t56.5 17t51 17.5t75.5 8.5q8 0 23.5 -12.5t30 -29t24.5 -33t10 -26.5q0 -4 -6 -25.5t-14 -47t-17.5 -46t-17.5 -20.5t-8 4t-11 4q-12 0 -21 -18.5t-24 -18.5 q-12 0 -18 4.5t-21 4.5q-6 0 -44.5 -9.5t-89 -19.5t-99.5 -19.5t-76 -9.5q-33 0 -52 -2t-33.5 -3t-27 -3t-30.5 -2q-16 0 -49 4t-68 17.5t-60.5 38t-25.5 65.5z" />
<glyph unicode="&#x2012;" d="M133 469q0 100 59.5 135t143.5 35q6 0 23.5 -3t38 -7t38 -7.5t23.5 -3.5q33 0 62.5 1.5t64.5 1.5q57 0 89 8t56.5 17t51 17.5t75.5 8.5q8 0 23.5 -12.5t30 -29t24.5 -33t10 -26.5q0 -4 -6 -25.5t-14 -47t-17.5 -46t-17.5 -20.5t-8 4t-11 4q-12 0 -21 -18.5t-24 -18.5 q-12 0 -18 4.5t-21 4.5q-6 0 -44.5 -9.5t-89 -19.5t-99.5 -19.5t-76 -9.5q-33 0 -52 -2t-33.5 -3t-27 -3t-30.5 -2q-16 0 -49 4t-68 17.5t-60.5 38t-25.5 65.5z" />
<glyph unicode="&#x2013;" horiz-adv-x="1507" d="M133 469q0 100 59.5 135t143.5 35q6 0 58 -3t114.5 -7t115 -7.5t58.5 -3.5q12 0 27.5 2.5t32 4.5t30.5 4t23 2q12 0 21 4t26 4q12 0 25.5 -4t29.5 -4q57 0 107.5 7t96.5 16.5t91 17.5t94 8q8 0 23.5 -12.5t30 -28.5t24.5 -32.5t10 -26.5q0 -4 -5 -26t-13 -47.5t-17.5 -46 t-17.5 -20.5t-8 4t-10 5q-12 0 -22.5 -18.5t-25.5 -18.5q-12 0 -18 4t-20 4q-4 0 -39 -5t-86.5 -12.5t-111.5 -15.5t-116.5 -15t-100.5 -12.5t-61 -5.5q-33 0 -87 -2t-110 -3t-103.5 -3t-65.5 -2q-16 0 -49 4t-68 17.5t-60.5 38t-25.5 65.5z" />
<glyph unicode="&#x2014;" horiz-adv-x="1898" d="M133 492q0 100 59.5 135t143.5 35q6 0 58 -3.5t114.5 -7.5t115 -7t58.5 -3h32.5t43 -1t42 -1h27.5h355q12 0 24.5 -4t28.5 -4q57 0 115.5 7t115 16.5t109.5 17.5t102 8q8 0 23.5 -12.5t30 -28.5t24.5 -32.5t10 -26.5q0 -4 -5 -26t-13 -47.5t-17.5 -46t-17.5 -20.5t-8 4 t-10 5q-12 0 -22.5 -18.5t-24.5 -18.5q-12 0 -18.5 4t-20.5 4q-4 0 -67.5 -3t-159 -8.5t-207 -10.5t-211 -10t-172 -8t-89.5 -3q-33 0 -87 -2t-110 -3t-103.5 -3t-65.5 -2q-16 0 -49 4t-68 17t-60.5 38t-25.5 66z" />
<glyph unicode="&#x2018;" horiz-adv-x="632" d="M90 1505q0 18 4 42t14.5 45.5t30 37t47.5 15.5q43 0 84 -8.5t74 -34t52.5 -71.5t19.5 -122q0 -18 -2 -39.5t-2 -48.5q0 -35 8 -76t33 -94q23 -49 34 -87t17 -63v-4q0 -18 -13.5 -58t-29.5 -62q-23 0 -53.5 31.5t-63.5 73.5t-59.5 84t-38.5 64q-27 49 -54.5 96.5t-50 94.5 t-37 93t-14.5 91z" />
<glyph unicode="&#x2019;" horiz-adv-x="765" d="M246 969v2q6 25 24.5 66.5t42.5 90.5q29 59 39 101.5t10 77.5q0 31 -4 54t-4 44q0 63 15.5 106t42 69t59.5 37t70 11q27 0 55 -6q29 -6 45 -21.5t23.5 -35t9.5 -42t2 -40.5q0 -45 -14.5 -91t-37 -93.5t-50 -94.5t-54.5 -96q-12 -20 -38.5 -62t-57.5 -85t-62.5 -75 t-52.5 -32h-4q-8 2 -18.5 16.5t-19.5 33t-15 36.5t-6 29z" />
<glyph unicode="&#x201a;" horiz-adv-x="651" d="M111 -274q6 25 24.5 66.5t42.5 90.5q29 59 39 101.5t10 76.5q0 31 -4 54.5t-4 44.5q0 63 15.5 106t42 68.5t59.5 37t70 11.5q27 0 55 -6q29 -6 45 -21.5t23.5 -35t9.5 -42t2 -40.5q0 -45 -14.5 -91.5t-37 -93.5t-50 -94t-54.5 -96q-12 -20 -39 -62.5t-57.5 -85.5 t-62 -74.5t-52.5 -31.5h-4q-8 2 -18.5 16.5t-19.5 32.5t-15 36.5t-6 29.5v2z" />
<glyph unicode="&#x201c;" horiz-adv-x="1228" d="M145 1505q0 18 4.5 42t14.5 45.5t28.5 37t47.5 15.5q43 0 85 -8.5t73.5 -34t52 -71.5t20.5 -122q0 -18 -2 -39.5t-2 -48.5q0 -35 8 -76t33 -94q23 -49 34 -87t17 -63v-2q0 -20 -14.5 -60t-30.5 -62q-23 0 -53.5 31.5t-62 73.5t-58.5 84t-39 64q-27 49 -54.5 96.5 t-50 94.5t-37 93t-14.5 91zM672 1505q0 18 4 42t14 45.5t29.5 37t48.5 15.5q43 0 85 -11.5t75 -39t53 -77t20 -124.5q0 -20 -3 -42t-3 -48q0 -29 8.5 -66t30.5 -86q23 -49 42.5 -91t25.5 -67v-2q0 -10 -6 -28.5t-15.5 -38t-19.5 -33.5t-19 -14q-23 0 -53.5 31.5t-63 73.5 t-59 84t-39.5 64q-27 49 -54.5 96.5t-50 94.5t-36.5 93t-14 91z" />
<glyph unicode="&#x201d;" horiz-adv-x="1269" d="M217 987v2q6 25 25.5 67t42.5 91t31 85t8 64q0 27 -3.5 48.5t-3.5 41.5q0 76 20.5 125.5t53.5 78t75 39.5t85 11q29 0 47 -15t29.5 -36.5t15.5 -45.5t4 -42q0 -45 -14.5 -91t-37 -93t-50 -95t-53.5 -98q-12 -23 -39 -64.5t-60 -82.5t-64.5 -73t-52.5 -32q-8 0 -18 14.5 t-19.5 34t-15.5 38t-6 28.5zM760 993v2q6 25 18.5 64t34.5 88q25 51 32 91t7 75q0 29 -2 50t-2 42q0 76 20.5 122t52 71.5t73.5 33.5t85 8q29 0 47.5 -15t29.5 -36.5t15.5 -45.5t4.5 -42q0 -45 -14.5 -91t-37 -93t-50 -95t-54.5 -98q-12 -23 -39 -64.5t-59.5 -82.5 t-64.5 -73t-52 -32q-16 23 -30.5 62t-14.5 59z" />
<glyph unicode="&#x201e;" horiz-adv-x="1196" d="M111 -274q6 25 24.5 66.5t42.5 90.5q29 59 39 101.5t10 76.5q0 31 -4 54.5t-4 44.5q0 76 18.5 121t49 67.5t70.5 29.5t83 7q29 0 48.5 -16.5t30.5 -39t16.5 -48t5.5 -43.5q0 -45 -14.5 -91.5t-37 -93.5t-50 -94t-54.5 -96q-12 -20 -39 -62.5t-57.5 -85.5t-62 -74.5 t-52.5 -31.5h-4q-8 2 -18.5 16.5t-19.5 32.5t-15 36.5t-6 29.5v2zM629 -274q6 25 24.5 66.5t42.5 90.5q29 59 39 101.5t10 76.5q0 31 -4 54.5t-4 44.5q0 76 18.5 121t48.5 67.5t69.5 29.5t82.5 7q29 0 48.5 -16.5t32 -39t17.5 -48t5 -43.5q0 -45 -14.5 -91.5t-37 -93.5 t-50 -94t-54.5 -96q-12 -20 -38.5 -62.5t-57.5 -85.5t-62.5 -74.5t-52.5 -31.5h-4q-8 2 -18.5 16.5t-19.5 32.5t-15 36.5t-6 29.5v2z" />
<glyph unicode="&#x2022;" horiz-adv-x="917" d="M201 522q0 41 14 80t37 74q27 53 78 73.5t110 20.5q45 0 93.5 -10t90.5 -27.5t73.5 -39t45.5 -44.5q29 -41 29 -82q0 -47 -27.5 -92t-58.5 -104q-14 -29 -36.5 -46.5t-49.5 -27.5t-55.5 -14t-55.5 -4q-23 0 -43 2t-32 6q-18 4 -44 17t-52.5 31.5t-50 43t-42.5 51.5 q-25 39 -24 92z" />
<glyph unicode="&#x2026;" horiz-adv-x="1619" d="M125 117q0 27 15.5 57.5t40 57t54 44t58.5 17.5q12 0 15 -4t18 -4q12 0 22 8t23 14q4 -6 20.5 -28.5t33.5 -49t31.5 -50.5t14.5 -32q0 -41 -16.5 -79.5t-43 -68.5t-61.5 -48.5t-71 -18.5q-35 0 -64 17.5t-48.5 45.5t-30.5 60.5t-11 61.5zM629 78q0 18 11 46t29.5 53.5 t44 44t54.5 18.5q35 0 68.5 -8.5t61.5 -29t45.5 -52t17.5 -80.5q0 -16 -2.5 -28.5t-8.5 -31t-20.5 -44t-38.5 -64.5q-16 -2 -42 -6.5t-42 -4.5q-45 0 -78 16.5t-55.5 43t-33.5 59.5t-11 68zM1161 37q0 104 57.5 165.5t151.5 61.5q35 0 60.5 -21.5t43 -51t25.5 -62.5t8 -53 q0 -10 -7 -26.5t-14 -35t-14.5 -37t-7.5 -30.5v-2q-31 -12 -48 -19.5t-26.5 -11.5t-13.5 -5t-10 -1h-41q-33 0 -62.5 11t-52 28.5t-36 41t-13.5 48.5z" />
<glyph unicode="&#x202f;" horiz-adv-x="421" />
<glyph unicode="&#x2039;" horiz-adv-x="768" d="M86 479.5q2 20.5 6 42.5v2q-2 2 -3 2t-3 2l8 9v8q25 45 72 55q33 20 56.5 42t47 42.5t49 39.5t66.5 38q23 20 51.5 27.5t69.5 39.5q4 4 8 13.5t8 15.5q12 8 25.5 11t25.5 14q6 8 11.5 19t15.5 20q6 4 12 3t15 -16l4 4q6 4 12 -3t12.5 -18t12.5 -24.5t12 -19.5 q8 -49 -16.5 -97.5t-65.5 -80.5q-29 -27 -66 -41h3q0 -2 4 -2q-59 -35 -94 -54.5t-58 -33.5q47 -33 102.5 -83t147.5 -100q12 -20 25.5 -45.5t11.5 -40.5l-4 -6q2 -2 2 -8q-4 -18 -24.5 -34.5t-22.5 -37.5q-2 -4 -1 -5t1 -5q-6 0 -21.5 4t-25.5 -6q-47 29 -66.5 43t-33 24.5 t-32 23.5t-61.5 42q-12 4 -30.5 16.5t-39 26.5t-43 28.5t-43.5 20.5q-8 2 -15 -2t-13 -2q-4 2 -6 2t-5 2q-8 -4 -14 -10q-20 4 -43.5 10t-30.5 19q0 2 -1 3t-1 3l-2 4q-6 12 -4 29q-10 4 -8 24.5z" />
<glyph unicode="&#x203a;" horiz-adv-x="792" d="M84 819q4 8 8 21.5t9 26t9.5 20.5t10.5 6l4 -4q6 16 12 18t15 -2q10 -6 17 -17t15 -16q12 -10 25.5 -11t28.5 -7q4 -4 10 -13.5t12 -13.5q20 -12 38.5 -18t34 -10t29 -7.5t25.5 -11.5q43 -12 71.5 -27.5t54.5 -31.5t53.5 -33.5t64.5 -34.5q41 0 78 -43v-8q4 -4 5 -4t3 -2 q0 -2 -4 -6v-2q8 -23 13 -42.5t-5 -23.5q6 -16 2 -28q0 -2 -2 -5q0 -2 -1 -3t-1 -3q-4 -16 -26.5 -26.5t-41.5 -16.5q-12 8 -16 11q-2 -4 -4 -4.5t-6 -4.5q-6 -2 -13.5 1t-15.5 1q-20 -10 -39.5 -27.5t-37 -34.5t-33 -32.5t-27.5 -21.5q-41 -35 -56.5 -50.5t-26.5 -27.5 t-27.5 -28.5t-59.5 -53.5q-14 8 -27.5 2t-19.5 -6v5t-4 5q-4 20 -27 32.5t-31 31.5q0 6 2 8l-6 6q-4 14 5 39.5t20 48.5q84 63 130 121.5t87 97.5q-23 10 -59.5 24.5t-102.5 39.5q4 2 4 4h2q-41 10 -72 30q-45 27 -75.5 70t-30.5 92z" />
<glyph unicode="&#x205f;" horiz-adv-x="527" />
<glyph unicode="&#x20ac;" horiz-adv-x="1589" d="M8 489q0 37 40 55.5t88 33t88 33t40 55.5q0 20 -10 27t-27 7q-18 0 -40.5 -6t-39.5 -6q-25 0 -46 15.5t-36.5 37t-24.5 45t-9 41.5t10 45t26.5 51.5t37 42t42.5 17.5q6 0 20.5 -3t30 -6t30 -5t20.5 -2q12 0 23.5 8t23.5 8q16 0 33.5 -8t33.5 -8h7q18 0 53 5t57 27 q109 117 217.5 212.5t214 162t209 103t199.5 36.5q39 0 77 -11t66.5 -34.5t46 -57.5t17.5 -77q0 -74 -43 -113.5t-113 -39.5q-12 0 -26.5 11t-26.5 11q-4 0 -5 -1t-3 -1h-2q0 -4 -11 -4q-14 0 -29.5 21.5t-27.5 21.5q-41 0 -107.5 -24.5t-133 -58.5t-119 -66.5t-60.5 -51.5 q2 -6 4 -10t15 -4q6 0 25.5 3t42 7t45 7t34.5 3q6 0 21.5 -1t34 -2t35 -2t24.5 -1q12 0 28.5 7.5t28.5 7.5q31 0 53.5 -15.5t38 -37t22.5 -47t7 -46.5q0 -53 -28.5 -70.5t-61.5 -17.5q-8 0 -23.5 3l-31 6t-29.5 6.5t-21 3.5q-70 0 -137 -12.5t-135 -30t-136.5 -38 t-142.5 -38.5q-16 -6 -23 -22.5t-24 -45.5h19q37 0 82 2t86 5.5t71.5 5.5t36.5 2l144 -7l-74 5h2q12 0 57 -3.5t97.5 -7.5t97.5 -11t59 -13q0 -16 -5 -47t-15 -43q-29 -20 -75 -39t-81 -27q-59 -12 -91 -20.5t-44 -8.5q-6 0 -16.5 1t-26.5 1q-29 0 -72 -6q-25 -4 -64.5 -17 t-54.5 -13q-12 0 -12 3t-16 3q-6 0 -23.5 -3t-42 -8.5t-52.5 -11.5t-52 -12q0 -6 -4 -5t-4 -14q0 -41 20.5 -80.5t55 -72.5t79.5 -52.5t92 -19.5q12 0 22.5 8.5t23.5 8.5q59 0 129.5 20.5t144.5 52t146.5 71.5t137 79t117 74.5t86.5 58.5q12 -12 21.5 -22.5t9.5 -22.5 q0 -4 -13.5 -26.5t-32.5 -53.5t-43 -62.5t-42 -50.5q-29 -29 -88 -67.5t-127 -77.5t-135.5 -74t-114.5 -53q-68 -29 -112 -44t-72.5 -24.5t-50 -11.5t-41.5 -2h-52q-80 0 -138 31t-103 86t-80 131t-68 166q-4 12 -29.5 11t-39.5 3q-18 4 -37 21.5t-34 39t-25.5 44 t-10.5 38.5z" />
<glyph unicode="&#x2122;" horiz-adv-x="1146" d="M113 1237v2q2 29 55 44t125 26q35 4 68.5 9t62.5 9t48.5 9t27.5 12q18 6 32 6q23 0 33 -10.5t10 -26.5q0 -10 -2 -14q-8 -23 -38.5 -45.5t-90.5 -22.5q-6 0 -12 1t-12 1l-37 -18q-6 -53 -17.5 -118t-23.5 -116q12 -41 12 -70q0 -25 -13 -44t-46 -40q-35 0 -47 14.5 t-12 37.5q0 12 2 25.5t6 25.5q4 10 7 20.5t3 20.5l18 237q-14 -4 -27.5 -5t-27.5 -5q-12 -4 -24.5 -8t-22.5 -12q-18 6 -37.5 19t-19.5 36zM416 918q8 23 34.5 71.5t58.5 103t61.5 103.5t45.5 72q25 33 52 32q23 0 38 -16t15 -45q0 -8 -4 -25l12 -61q6 -33 21 -63 q16 16 30.5 33.5t28.5 35.5t28.5 38t30.5 38q29 35 62 60.5t74 25.5h4q12 -6 23.5 -24.5t17.5 -32.5q-4 -53 -9.5 -96.5t-9.5 -84.5q-2 -12 -2 -24v-27q0 -59 12 -133q-39 -76 -77 -76q-23 0 -37.5 22.5t-14.5 57.5q0 25 11 62q-2 6 -2 28q0 14 1 30.5t3 33.5q4 29 6 56.5 t4 49.5q-29 -31 -51.5 -60.5t-44.5 -55.5q-23 -27 -43.5 -48.5t-38.5 -33.5t-33 -13q-25 0 -47.5 39t-38.5 137q-10 -10 -19 -30q-4 -10 -10 -23.5t-12 -30.5q-12 -29 -28.5 -62.5t-32.5 -61.5q-18 -33 -37 -53.5t-35 -20.5q-31 0 -47 72z" />
<glyph unicode="&#xe000;" horiz-adv-x="1536" d="M0 0v1536h1536v-1536h-1536z" />
<glyph unicode="&#xfb01;" horiz-adv-x="1460" d="M-129 567q37 23 74 34t74.5 18.5t76.5 13.5t80 18q14 74 30.5 138.5t31 128t22.5 129t6 139.5q-68 -18 -125 -20.5t-104 15t-81 56.5t-52 104q8 20 27.5 27.5t46 8.5t55 1t53.5 6q29 6 47.5 12.5t59.5 12.5q92 10 205.5 30.5t246.5 35.5q45 4 106.5 10t126 11t126 6 t104.5 -3q20 -2 53 -23.5t54.5 -49t22.5 -55.5t-40 -46q-14 -4 -38.5 0t-43.5 0q-76 -6 -157.5 -19.5t-163.5 -28.5t-160 -28.5t-146 -21.5q12 -72 10.5 -130.5t-11 -113.5t-26 -115.5t-30.5 -134.5q55 0 124 16.5t141.5 31t146.5 16.5t139 -31q4 -55 -15.5 -85t-55 -48.5 t-82 -29.5t-95.5 -28q-90 -29 -189.5 -60.5t-197.5 -70.5q-25 -82 -44 -152.5t-36.5 -141t-35 -145.5t-39.5 -163q23 -55 6 -101t-72 -56q-14 6 -25.5 14t-23.5 15t-28.5 11.5t-39.5 2.5q-31 100 -26.5 172.5t25 140.5t47 140.5t38.5 172.5q-35 6 -70.5 21.5t-67.5 41 t-55.5 63.5t-29.5 87zM872 137q0 12 0.5 22.5t4.5 22.5q10 35 24 67t29 64q12 29 18 56.5t10 58.5q8 45 22.5 88t31 86t31 86t22.5 90q4 31 7 81t13.5 97.5t31 81t61.5 33.5q27 0 53 -18.5t47.5 -46t35 -58t13.5 -55.5q0 -10 -5 -28.5t-11 -41t-13.5 -45t-9.5 -41.5 q-16 -90 -40.5 -189t-54.5 -202.5t-61.5 -205t-60.5 -195.5q-12 -4 -18 -4q-16 0 -31.5 6t-28.5 12q-20 8 -41.5 10t-44.5 6q-6 35 -20.5 76t-14.5 86zM1137 1311q0 39 17 69.5t46 52t66 34t75 12.5q53 0 76 -26t23 -64q0 -50 -25 -95q-23 -41 -60.5 -80.5t-88.5 -39.5 q-57 0 -93 41.5t-36 95.5z" />
</font>
</defs>
</svg>
